<?xml version="1.0" encoding="UTF-8"?>
<svg version="1.1" xmlns="http://www.w3.org/2000/svg" width="818" height="305">
<path d="M0 0 C0.08226668 3.04386724 -0.02391783 5.07175348 -1 8 C-1.66 8 -2.32 8 -3 8 C-2.9175 8.78375 -2.835 9.5675 -2.75 10.375 C-3.04229142 14.61322562 -4.33602835 17.67675863 -5.9921875 21.55078125 C-7.12110538 24.15406781 -7.12110538 24.15406781 -8 27.625 C-8.82688553 30.41573866 -9.73375095 32.5722778 -11.0625 35.125 C-12.62408518 38.12760681 -13.42786496 40.64892336 -14 44 C-15.59994457 49.50251207 -17.70584089 54.67015536 -20.09375 59.87109375 C-21.35406617 62.83175028 -22.12462719 65.90701606 -23 69 C-23.7425 70.3921875 -23.7425 70.3921875 -24.5 71.8125 C-26.18769455 75.39885091 -26.83011043 78.70721096 -27.52734375 82.5859375 C-28.09618371 85.49125233 -28.97742604 88.2244421 -30 91 C-29.34 91 -28.68 91 -28 91 C-28 91.66 -28 92.32 -28 93 C-25.20816288 93.93061237 -23.63226899 94.10918415 -20.75976562 94.06591797 C-19.90878296 94.05615936 -19.05780029 94.04640076 -18.18103027 94.03634644 C-17.26535278 94.02177399 -16.34967529 94.00720154 -15.40625 93.9921875 C-13.47005729 93.97467484 -11.53385904 93.95776621 -9.59765625 93.94140625 C-6.5426511 93.91039846 -3.48792076 93.8748173 -0.43310547 93.82861328 C2.5133818 93.78636463 5.45954317 93.7628614 8.40625 93.7421875 C9.32192749 93.72356659 10.23760498 93.70494568 11.18103027 93.6857605 C12.45750427 93.68057907 12.45750427 93.68057907 13.75976562 93.67529297 C14.50794556 93.66561493 15.25612549 93.65593689 16.02697754 93.64596558 C18.5946529 94.10670309 19.4793103 94.90380959 21 97 C21 103.95899145 18.27458115 108.99018048 15 115 C12.33699482 120.0944447 10.04318299 125.23492335 7.94921875 130.58984375 C6.70146263 133.75801464 5.35758709 136.8775497 4 140 C3.34 140 2.68 140 2 140 C2.33 140.99 2.66 141.98 3 143 C2 146 2 146 0 147 C-0.40729228 149.32156597 -0.74438677 151.6568787 -1 154 C-1.66 154 -2.32 154 -3 154 C-3 154.66 -3 155.32 -3 156 C-6.72612438 156.86387807 -10.16225664 157.12170823 -13.98364258 157.11352539 C-15.16448929 157.11344986 -16.345336 157.11337433 -17.56196594 157.11329651 C-18.82671249 157.10813522 -20.09145905 157.10297394 -21.39453125 157.09765625 C-22.69702316 157.0962413 -23.99951508 157.09482635 -25.34147644 157.09336853 C-28.79216454 157.08956355 -32.24281008 157.07975064 -35.69348145 157.06866455 C-39.21947657 157.05840689 -42.74547861 157.0538616 -46.27148438 157.04882812 C-53.18100699 157.03812644 -60.09050145 157.02107443 -67 157 C-67 152.35087577 -65.08438125 149.11627482 -61.875 145.8125 C-61.25625 145.214375 -60.6375 144.61625 -60 144 C-59.67 143.01 -59.34 142.02 -59 141 C-58.01 141 -57.02 141 -56 141 C-55.855625 140.278125 -55.71125 139.55625 -55.5625 138.8125 C-55.21150553 137.05752767 -54.83993727 135.30639485 -54.4375 133.5625 C-53.38592025 127.40324718 -54.28333105 123.75952806 -57.25 118.25 C-66.33946853 100.88364449 -70.63776519 82.63846172 -67 63 C-66.855625 61.783125 -66.71125 60.56625 -66.5625 59.3125 C-66 56 -66 56 -64 53 C-63.15833002 51.07499243 -62.34911297 49.13565362 -61.5625 47.1875 C-59.85748585 43.02585304 -58.09851498 38.97613365 -56 35 C-55.34 35 -54.68 35 -54 35 C-53.72414062 34.41863281 -53.44828125 33.83726563 -53.1640625 33.23828125 C-46.92150889 21.23498186 -33.78838059 10.23413609 -21 6 C-20.01 6 -19.02 6 -18 6 C-17.67 5.34 -17.34 4.68 -17 4 C-15.07421875 3.18359375 -15.07421875 3.18359375 -12.6875 2.4375 C-11.90761719 2.18871094 -11.12773437 1.93992187 -10.32421875 1.68359375 C-6.63099084 0.59735025 -3.91446355 0 0 0 Z " fill="#41B761" transform="translate(248,68)"/>
<path d="M0 0 C1.17219543 0.78345715 2.33763668 1.57702836 3.5 2.375 C4.47453125 3.03628906 4.47453125 3.03628906 5.46875 3.7109375 C6.22671875 4.34902344 6.22671875 4.34902344 7 5 C7 5.66 7 6.32 7 7 C7.99 7.33 8.98 7.66 10 8 C11.7632323 10.28131057 13.36619907 12.52970214 14.9375 14.9375 C15.38480469 15.61611084 15.83210938 16.29472168 16.29296875 16.99389648 C19.58855638 22.10750957 22.14181286 27.19316519 24 33 C24.33902344 33.94488281 24.67804688 34.88976562 25.02734375 35.86328125 C26.75815261 41.44496605 27.29363809 47.21397459 28 53 C28.13792969 54.11117187 28.27585937 55.22234375 28.41796875 56.3671875 C29.00269119 61.88421572 29.13424596 65.78295432 27 71 C26.74670293 72.99471443 26.49423225 74.98970808 26.2734375 76.98828125 C25.52638652 82.48444201 23.54278291 87.12633275 21 92 C20.32650839 93.66392045 19.6590841 95.33032028 19 97 C17.69012143 99.96905809 16.27508761 101.72491239 14 104 C13.484375 104.886875 12.96875 105.77375 12.4375 106.6875 C11.963125 107.450625 11.48875 108.21375 11 109 C10.34 109 9.68 109 9 109 C9 109.66 9 110.32 9 111 C8.34 111 7.68 111 7 111 C6.505 112.485 6.505 112.485 6 114 C5.34 114 4.68 114 4 114 C3.75765625 114.5878125 3.5153125 115.175625 3.265625 115.78125 C1.76600845 118.41020741 0.16691014 119.69142778 -2.25 121.5 C-3.054375 122.10199219 -3.85875 122.70398438 -4.6875 123.32421875 C-9.03215998 126.47262945 -13.00111659 129.06256294 -18 131 C-18.825 131.34160156 -19.65 131.68320313 -20.5 132.03515625 C-21.7375 132.54369141 -21.7375 132.54369141 -23 133.0625 C-23.825 133.40410156 -24.65 133.74570313 -25.5 134.09765625 C-28.01255438 135.00453135 -30.35356702 135.6379036 -33 136 C-33.66 135.67 -34.32 135.34 -35 135 C-35 135.66 -35 136.32 -35 137 C-40.36489595 137.90483637 -45.50317457 138.12303662 -50.9375 138.0625 C-51.71673828 138.05798828 -52.49597656 138.05347656 -53.29882812 138.04882812 C-55.19925268 138.03716908 -57.09963706 138.01923877 -59 138 C-58.34 136.02 -57.68 134.04 -57 132 C-56.01 132 -55.02 132 -54 132 C-54 130.35 -54 128.7 -54 127 C-53.34 127 -52.68 127 -52 127 C-51.67 126.01 -51.34 125.02 -51 124 C-50.34 124 -49.68 124 -49 124 C-48.91621094 123.4534375 -48.83242188 122.906875 -48.74609375 122.34375 C-47.7521101 119.22128828 -46.04092832 117.10451324 -44.0625 114.5 C-41.73057986 111.41898754 -39.59031466 108.53033202 -38 105 C-37.34 105 -36.68 105 -36 105 C-35.74476563 104.12730469 -35.48953125 103.25460938 -35.2265625 102.35546875 C-33.96800911 98.91248352 -32.44205113 96.33072405 -30.375 93.3125 C-29.31345703 91.75789063 -29.31345703 91.75789063 -28.23046875 90.171875 C-25.46025325 86.2324442 -22.63537239 82.33722493 -19.76171875 78.47265625 C-17.93706902 75.99955847 -17.93706902 75.99955847 -16.39453125 73.18359375 C-15.93433594 72.46300781 -15.47414063 71.74242187 -15 71 C-14.34 71 -13.68 71 -13 71 C-12.90589844 70.29488281 -12.81179688 69.58976562 -12.71484375 68.86328125 C-11.86906963 65.47556303 -10.44986007 63.11859766 -8.5625 60.1875 C-7.63630859 58.72376953 -7.63630859 58.72376953 -6.69140625 57.23046875 C-6.13324219 56.49441406 -5.57507813 55.75835937 -5 55 C-4.34 55 -3.68 55 -3 55 C-3 53.68 -3 52.36 -3 51 C-2.34 50.67 -1.68 50.34 -1 50 C-1 49.01 -1 48.02 -1 47 C-4.86769326 45.1925209 -7.85206787 44.77165622 -12.10546875 44.83984375 C-13.25337891 44.85080078 -14.40128906 44.86175781 -15.58398438 44.87304688 C-16.77314453 44.89431641 -17.96230469 44.91558594 -19.1875 44.9375 C-21.55593019 44.97182508 -23.92442553 45.00199033 -26.29296875 45.02734375 C-27.3399292 45.04531006 -28.38688965 45.06327637 -29.46557617 45.08178711 C-32 45 -32 45 -34 44 C-33.54684891 39.09322336 -32.42753888 36.81739653 -29 33.3125 C-24.66558086 28.7561586 -20.73067263 23.99919866 -16.84765625 19.0546875 C-15.93306641 18.03761719 -15.93306641 18.03761719 -15 17 C-14.34 17 -13.68 17 -13 17 C-12.731875 16.43796875 -12.46375 15.8759375 -12.1875 15.296875 C-10.9196021 12.84449354 -9.51027658 10.56072317 -8 8.25 C-7.484375 7.45078125 -6.96875 6.6515625 -6.4375 5.828125 C-5.963125 5.22484375 -5.48875 4.6215625 -5 4 C-4.34 4 -3.68 4 -3 4 C-2.67 3.01 -2.34 2.02 -2 1 C-1.34 0.67 -0.68 0.34 0 0 Z " fill="#41B760" transform="translate(310,87)"/>
<path d="M0 0 C3.93254008 -0.09895097 7.86459746 -0.1715042 11.7980957 -0.21972656 C13.79339014 -0.24971281 15.78833582 -0.30053786 17.78320312 -0.3515625 C19.03681641 -0.36445312 20.29042969 -0.37734375 21.58203125 -0.390625 C23.31803589 -0.4220459 23.31803589 -0.4220459 25.08911133 -0.45410156 C28 0 28 0 29.8659668 1.87597656 C31.15182676 4.28436874 31.55194577 6.31167464 32 9 C32.88413749 11.82923997 33.83335612 14.58990518 34.94921875 17.3359375 C36.02877796 20.07296123 36.96276531 22.82798288 37.875 25.625 C40.09159367 32.33267712 42.36848243 39.02997391 45.0546875 45.56640625 C45.88914043 47.71460532 46.4626444 49.76549631 47 52 C47.47900636 53.40317625 47.97910962 54.79932713 48.5 56.1875 C48.7578125 56.88230469 49.015625 57.57710937 49.28125 58.29296875 C49.87318484 59.99895046 49.87318484 59.99895046 51 61 C51.04080783 62.99958364 51.04254356 65.00045254 51 67 C51.66 67.33 52.32 67.66 53 68 C53.81640625 69.92578125 53.81640625 69.92578125 54.5625 72.3125 C54.81128906 73.09238281 55.06007813 73.87226563 55.31640625 74.67578125 C55.54199219 75.44277344 55.76757812 76.20976562 56 77 C56.32291016 78.07314453 56.32291016 78.07314453 56.65234375 79.16796875 C57 81 57 81 56 83 C44.615 83.495 44.615 83.495 33 84 C30 76 30 76 29 72 C19.76 72 10.52 72 1 72 C0.67 73.98 0.34 75.96 0 78 C-1.5 79.6875 -1.5 79.6875 -3 81 C-3.33 81.99 -3.66 82.98 -4 84 C-11.26 83.67 -18.52 83.34 -26 83 C-26 77.84011217 -25.71725349 75.57934264 -24 71 C-23.67 70.01 -23.34 69.02 -23 68 C-22 65 -21 62 -20 59 C-19.34 59 -18.68 59 -18 59 C-18.04125 58.113125 -18.0825 57.22625 -18.125 56.3125 C-17.9660635 52.10068284 -16.48029473 49.10642153 -14.81640625 45.2734375 C-12.27566047 39.40043634 -10.25591131 33.65175795 -8.6796875 27.453125 C-7.76684788 24.15850843 -6.36600643 21.1304314 -5 18 C-4.48240421 16.31781367 -3.98351358 14.62979751 -3.5 12.9375 C-2.38139764 9.02834176 -0.81936953 5.63873907 1 2 C0.67 1.34 0.34 0.68 0 0 Z M14 27 C12.75549808 29.9868046 11.76217597 32.86162834 11 36 C10.48307172 37.91772355 9.9620258 39.83434054 9.4375 41.75 C9.03337891 43.22726563 9.03337891 43.22726563 8.62109375 44.734375 C8.41613281 45.48203125 8.21117187 46.2296875 8 47 C12.10457614 49.98514628 14.97745369 50.2954439 20 50 C20.92185319 46.32575655 20.99863115 43.58412705 20.25 39.875 C20.09015625 39.02679688 19.9303125 38.17859375 19.765625 37.3046875 C18.92269404 34.76729329 17.90204176 33.80875361 16 32 C15.8125 29.3125 15.8125 29.3125 16 27 C15.34 27 14.68 27 14 27 Z " fill="#41B760" transform="translate(376,109)"/>
<path d="M0 0 C1.0209375 0.7734375 1.0209375 0.7734375 2.0625 1.5625 C3.73176094 3.09930782 3.73176094 3.09930782 5 3 C5.42291198 7.65203181 3.89859601 10.80726715 2 15 C2 15.66 2 16.32 2 17 C-0.37524229 18.41030011 -2.10943998 19.20494059 -4.8671875 18.5703125 C-8.11992066 17.34262722 -11.16204458 15.91586147 -14.25 14.3125 C-19.44300229 12.4949492 -24.54125184 12.36217965 -30 13 C-30.66 13.66 -31.32 14.32 -32 15 C-32.66 15 -33.32 15 -34 15 C-34.66 16.98 -35.32 18.96 -36 21 C-35.195625 21.12375 -34.39125 21.2475 -33.5625 21.375 C-32.2940625 21.684375 -32.2940625 21.684375 -31 22 C-30.67 22.66 -30.34 23.32 -30 24 C-24.42030202 26.42137837 -18.74908008 27.881275 -12.83203125 29.25390625 C-10.1048844 29.97236838 -7.59194397 30.89593612 -5 32 C-5 32.66 -5 33.32 -5 34 C-4.071875 34.04125 -3.14375 34.0825 -2.1875 34.125 C1 35 1 35 2.875 37.9375 C4 41 4 41 4 43 C4.99 43.495 4.99 43.495 6 44 C8.08411215 49.9183441 7.98342267 57.44751363 5.5 63.1875 C4.7575 64.5796875 4.7575 64.5796875 4 66 C3.34 66 2.68 66 2 66 C2 66.99 2 67.98 2 69 C1.34 69 0.68 69 0 69 C-0.33 69.66 -0.66 70.32 -1 71 C-5.75390549 74.80312439 -10.07092339 75.94717331 -16 77 C-16.825 77.20625 -17.65 77.4125 -18.5 77.625 C-28.41448468 79.1121727 -38.6359361 77.36145884 -48 74 C-48.99 74 -49.98 74 -51 74 C-51.33 73.34 -51.66 72.68 -52 72 C-54.52733235 71.34444881 -54.52733235 71.34444881 -57 71 C-57 67.7 -57 64.4 -57 61 C-55.515 60.505 -55.515 60.505 -54 60 C-54 58.02 -54 56.04 -54 54 C-50.52674819 52.8422494 -47.63932552 52.93133348 -44 53 C-43.67 53.99 -43.34 54.98 -43 56 C-42.01 56 -41.02 56 -40 56 C-39.67 56.66 -39.34 57.32 -39 58 C-32.1930124 59.47977991 -23.67424799 60.28407598 -17 58 C-15.40869252 56.31749122 -15.40869252 56.31749122 -15 54 C-15.88265812 51.24952182 -15.88265812 51.24952182 -18 49 C-22.15190644 47.36440049 -26.31100732 46.50091882 -30.6875 45.6875 C-37.93280173 44.17550377 -47.181306 42.1528601 -52 36 C-52 35.01 -52 34.02 -52 33 C-52.66 32.67 -53.32 32.34 -54 32 C-55.6875 30.1875 -55.6875 30.1875 -57 28 C-56.625 25.875 -56.625 25.875 -56 24 C-56.33 23.34 -56.66 22.68 -57 22 C-57.06807717 15.55989994 -55.43663913 9.45552285 -52 4 C-49.3125 2.0625 -49.3125 2.0625 -47 1 C-46.67 0.34 -46.34 -0.32 -46 -1 C-45.01 -1 -44.02 -1 -43 -1 C-43 -1.66 -43 -2.32 -43 -3 C-42.01 -3.185625 -42.01 -3.185625 -41 -3.375 C-37.87376602 -3.98475153 -37.87376602 -3.98475153 -34.375 -5.0625 C-22.75345203 -7.93524219 -10.56940275 -5.28470137 0 0 Z " fill="#282828" transform="translate(527,115)"/>
<path d="M0 0 C1.89492188 0.15275391 1.89492188 0.15275391 3.828125 0.30859375 C4.79234375 0.39238281 5.7565625 0.47617188 6.75 0.5625 C6.75 1.2225 6.75 1.8825 6.75 2.5625 C8.4 2.5625 10.05 2.5625 11.75 2.5625 C11.75 3.2225 11.75 3.8825 11.75 4.5625 C12.53375 4.68625 13.3175 4.81 14.125 4.9375 C18.33579598 5.94007047 20.20123521 9.21724622 22.75 12.5625 C23.43177416 13.88817199 24.10191436 15.22003688 24.75 16.5625 C25.41 17.2225 26.07 17.8825 26.75 18.5625 C27.13259821 21.41894346 27.25658238 24.25154624 27.40625 27.12890625 C27.5196875 27.93199219 27.633125 28.73507813 27.75 29.5625 C28.41 29.8925 29.07 30.2225 29.75 30.5625 C29.09 30.5625 28.43 30.5625 27.75 30.5625 C28.74 32.0475 28.74 32.0475 29.75 33.5625 C28.4204934 37.55101981 27.42930728 38.47034488 23.75 40.5625 C19.72793179 40.90290942 15.77637728 40.79367956 11.75 40.5625 C11.75 41.5525 11.75 42.5425 11.75 43.5625 C13.73 43.0675 13.73 43.0675 15.75 42.5625 C16.08 43.5525 16.41 44.5425 16.75 45.5625 C18.07 45.5625 19.39 45.5625 20.75 45.5625 C21.41 46.5525 22.07 47.5425 22.75 48.5625 C23.08 48.5625 23.41 48.5625 23.75 48.5625 C23.75 50.2125 23.75 51.8625 23.75 53.5625 C23.09 53.5625 22.43 53.5625 21.75 53.5625 C21.5025 54.366875 21.255 55.17125 21 56 C20.38125 57.2684375 20.38125 57.2684375 19.75 58.5625 C17.6875 59.25 17.6875 59.25 15.75 59.5625 C15.255 60.5525 15.255 60.5525 14.75 61.5625 C12.625 62.125 12.625 62.125 9.75 62.5625 C8.1721875 62.8409375 8.1721875 62.8409375 6.5625 63.125 C-1.49004872 64.04906297 -8.81680002 63.47793917 -16.78125 62 C-19.16034992 61.50433456 -19.16034992 61.50433456 -21.25 61.5625 C-21.559375 60.6653125 -21.559375 60.6653125 -21.875 59.75 C-23.14220186 57.28417688 -23.14220186 57.28417688 -26.1875 56.25 C-30.34709665 53.95797736 -30.75335031 51.96930187 -32.25 47.5625 C-32.91 47.5625 -33.57 47.5625 -34.25 47.5625 C-34.31058594 46.93601563 -34.37117187 46.30953125 -34.43359375 45.6640625 C-34.51738281 44.84679687 -34.60117187 44.02953125 -34.6875 43.1875 C-34.80931641 41.96933594 -34.80931641 41.96933594 -34.93359375 40.7265625 C-35.14090114 38.51977195 -35.14090114 38.51977195 -36.25 36.5625 C-37.06895837 32.79529151 -37.26686614 30.24863975 -36.25 26.5625 C-36.58 25.5725 -36.91 24.5825 -37.25 23.5625 C-36.26 23.5625 -35.27 23.5625 -34.25 23.5625 C-34.58 22.5725 -34.91 21.5825 -35.25 20.5625 C-34.578125 18.6953125 -34.578125 18.6953125 -33.5 16.6875 C-33.12617187 15.98882812 -32.75234375 15.29015625 -32.3671875 14.5703125 C-31.99851562 13.90773437 -31.62984375 13.24515625 -31.25 12.5625 C-30.71375 11.5725 -30.1775 10.5825 -29.625 9.5625 C-29.17125 8.9025 -28.7175 8.2425 -28.25 7.5625 C-27.59 7.5625 -26.93 7.5625 -26.25 7.5625 C-25.92 6.9025 -25.59 6.2425 -25.25 5.5625 C-23.25 5.22916667 -21.25 4.89583333 -19.25 4.5625 C-18.92 3.9025 -18.59 3.2425 -18.25 2.5625 C-15.93925595 1.82131795 -13.60188447 1.16043673 -11.25 0.5625 C-10.66347656 0.36914062 -10.07695313 0.17578125 -9.47265625 -0.0234375 C-6.25255123 -0.62331647 -3.2562869 -0.27135724 0 0 Z M-11.25 18.5625 C-11.99276031 20.53330157 -11.99276031 20.53330157 -12.25 22.5625 C-13.24 23.2225 -14.23 23.8825 -15.25 24.5625 C-11.79173658 24.62039006 -8.33359707 24.65605821 -4.875 24.6875 C-3.89015625 24.70425781 -2.9053125 24.72101563 -1.890625 24.73828125 C-0.94960938 24.74472656 -0.00859375 24.75117188 0.9609375 24.7578125 C1.83024902 24.76828613 2.69956055 24.77875977 3.59521484 24.78955078 C5.96345939 24.76845109 5.96345939 24.76845109 7.75 22.5625 C6.76 21.5725 5.77 20.5825 4.75 19.5625 C3.76 19.8925 2.77 20.2225 1.75 20.5625 C1.75 19.5725 1.75 18.5825 1.75 17.5625 C-3.19683566 16.57313287 -6.66083524 16.26791762 -11.25 18.5625 Z M-11.25 39.5625 C-10.86659817 44.4236106 -10.86659817 44.4236106 -8.46875 45.8515625 C-4.71840637 47.05325711 -1.13514517 47.17556878 2.75 46.5625 C5.31990998 44.74985352 5.31990998 44.74985352 6.75 42.5625 C6.42 41.5725 6.09 40.5825 5.75 39.5625 C0.14 39.5625 -5.47 39.5625 -11.25 39.5625 Z " fill="#282828" transform="translate(576.25,129.4375)"/>
<path d="M0 0 C0.74362793 0.01047363 1.48725586 0.02094727 2.25341797 0.03173828 C3.46191406 0.04140625 3.46191406 0.04140625 4.69482422 0.05126953 C5.95746094 0.07640625 5.95746094 0.07640625 7.24560547 0.10205078 C8.51984375 0.11558594 8.51984375 0.11558594 9.81982422 0.12939453 C11.9202043 0.15299431 14.02043991 0.18886595 16.12060547 0.22705078 C16.12060547 0.88705078 16.12060547 1.54705078 16.12060547 2.22705078 C17.11060547 2.22705078 18.10060547 2.22705078 19.12060547 2.22705078 C19.62894138 3.47368409 20.12691692 4.72454465 20.62060547 5.97705078 C20.89904297 6.67314453 21.17748047 7.36923828 21.46435547 8.08642578 C22.12060547 10.22705078 22.12060547 10.22705078 22.12060547 14.22705078 C22.78060547 14.22705078 23.44060547 14.22705078 24.12060547 14.22705078 C24.02779297 15.52642578 24.02779297 15.52642578 23.93310547 16.85205078 C24.14968169 20.7504228 24.99697337 22.96575863 27.12060547 26.22705078 C29.19751125 27.1874918 29.19751125 27.1874918 31.12060547 27.22705078 C31.40935547 26.34017578 31.69810547 25.45330078 31.99560547 24.53955078 C32.63782749 22.64856371 33.30779676 20.76531227 34.05810547 18.91455078 C35.02477067 16.46945646 35.93642435 14.01987978 36.80810547 11.53955078 C37.08009766 10.77255859 37.35208984 10.00556641 37.63232422 9.21533203 C38.36208779 7.17032905 38.36208779 7.17032905 37.12060547 5.22705078 C37.78060547 4.56705078 38.44060547 3.90705078 39.12060547 3.22705078 C39.45060547 2.23705078 39.78060547 1.24705078 40.12060547 0.22705078 C46.72060547 0.22705078 53.32060547 0.22705078 60.12060547 0.22705078 C60.61560547 3.69205078 60.61560547 3.69205078 61.12060547 7.22705078 C59.74560547 8.91455078 59.74560547 8.91455078 58.12060547 10.22705078 C57.76341025 11.55419074 57.43446911 12.88900052 57.12060547 14.22705078 C56.49534578 15.8186209 55.8479102 17.401589 55.18310547 18.97705078 C53.39759287 23.35317985 52.14503092 27.61713627 51.12060547 32.22705078 C50.46060547 32.22705078 49.80060547 32.22705078 49.12060547 32.22705078 C49.45060547 33.21705078 49.78060547 34.20705078 50.12060547 35.22705078 C49.46060547 35.22705078 48.80060547 35.22705078 48.12060547 35.22705078 C48.12060547 35.88705078 48.12060547 36.54705078 48.12060547 37.22705078 C49.11060547 37.72205078 49.11060547 37.72205078 50.12060547 38.22705078 C49.13060547 38.22705078 48.14060547 38.22705078 47.12060547 38.22705078 C47.12060547 40.53705078 47.12060547 42.84705078 47.12060547 45.22705078 C46.13060547 45.72205078 46.13060547 45.72205078 45.12060547 46.22705078 C43.87060547 49.14371745 43.87060547 49.14371745 43.12060547 52.22705078 C43.45060547 52.88705078 43.78060547 53.54705078 44.12060547 54.22705078 C43.13060547 54.72205078 43.13060547 54.72205078 42.12060547 55.22705078 C42.45060547 55.88705078 42.78060547 56.54705078 43.12060547 57.22705078 C42.13060547 57.22705078 41.14060547 57.22705078 40.12060547 57.22705078 C40.61560547 60.19705078 40.61560547 60.19705078 41.12060547 63.22705078 C40.46060547 63.22705078 39.80060547 63.22705078 39.12060547 63.22705078 C39.12060547 64.21705078 39.12060547 65.20705078 39.12060547 66.22705078 C38.16154297 66.53642578 38.16154297 66.53642578 37.18310547 66.85205078 C34.7713547 68.12243287 34.7713547 68.12243287 34.37060547 71.35205078 C34.28810547 72.30080078 34.20560547 73.24955078 34.12060547 74.22705078 C33.46060547 74.22705078 32.80060547 74.22705078 32.12060547 74.22705078 C31.62560547 75.71205078 31.62560547 75.71205078 31.12060547 77.22705078 C29.48428655 78.27597317 27.81574684 79.27611782 26.12060547 80.22705078 C25.13060547 81.21705078 25.13060547 81.21705078 24.12060547 82.22705078 C23.46060547 82.22705078 22.80060547 82.22705078 22.12060547 82.22705078 C20.43304414 83.19137154 18.76394051 84.18915497 17.12060547 85.22705078 C16.62560547 84.23705078 16.62560547 84.23705078 16.12060547 83.22705078 C15.13060547 83.72205078 15.13060547 83.72205078 14.12060547 84.22705078 C12.41357812 84.29701092 10.70392544 84.31145232 8.99560547 84.28955078 C7.38685547 84.26892578 5.77810547 84.24830078 4.12060547 84.22705078 C4.12060547 78.61705078 4.12060547 73.00705078 4.12060547 67.22705078 C7.75060186 66.01705198 11.40472992 65.14079067 15.12060547 64.22705078 C15.45060547 62.57705078 15.78060547 60.92705078 16.12060547 59.22705078 C17.44060547 59.22705078 18.76060547 59.22705078 20.12060547 59.22705078 C20.12060547 58.23705078 20.12060547 57.24705078 20.12060547 56.22705078 C18.80060547 55.89705078 17.48060547 55.56705078 16.12060547 55.22705078 C16.12060547 52.91705078 16.12060547 50.60705078 16.12060547 48.22705078 C15.46060547 47.89705078 14.80060547 47.56705078 14.12060547 47.22705078 C13.23978239 44.93691077 12.58756778 42.61357351 11.90185547 40.25830078 C11.3112471 38.04142603 11.3112471 38.04142603 9.12060547 37.22705078 C8.62213912 35.29964758 8.12974015 33.37024517 7.68310547 31.43017578 C6.4795601 26.71628974 5.30004382 23.01334301 1.12060547 20.22705078 C1.12060547 19.56705078 1.12060547 18.90705078 1.12060547 18.22705078 C-0.35544551 11.67181157 -0.35544551 11.67181157 -3.87939453 6.22705078 C-3.87939453 0.46867198 -3.87939453 0.46867198 0 0 Z " fill="#282828" transform="translate(729.87939453125,131.77294921875)"/>
<path d="M0 0 C2.79173055 -0.02690104 5.58320348 -0.04679053 8.375 -0.0625 C9.56609375 -0.07506836 9.56609375 -0.07506836 10.78125 -0.08789062 C16.7734375 -0.11328125 16.7734375 -0.11328125 19 1 C19.66 1.99 20.32 2.98 21 4 C22.010625 3.525625 23.02125 3.05125 24.0625 2.5625 C31.02399797 -0.36718852 36.89241253 -0.24657571 44 2 C45.34740166 2.63775466 46.68557047 3.29679503 48 4 C48 4.66 48 5.32 48 6 C48.639375 6.226875 49.27875 6.45375 49.9375 6.6875 C52 8 52 8 52.625 10.4375 C52.74875 11.283125 52.8725 12.12875 53 13 C53.66 13.99 54.32 14.98 55 16 C56.03002849 21.25004626 56.14686623 26.38245016 56.1328125 31.70703125 C56.13376923 32.51363693 56.13472595 33.32024261 56.13571167 34.15129089 C56.13638809 35.84296752 56.1345716 37.53464682 56.13037109 39.22631836 C56.12497993 41.82216131 56.1303522 44.417834 56.13671875 47.01367188 C56.13605856 48.66145872 56.13477862 50.30924545 56.1328125 51.95703125 C56.13483673 52.73407913 56.13686096 53.51112701 56.13894653 54.3117218 C56.11498425 59.7700315 56.11498425 59.7700315 55 62 C52.04210873 62.2210949 49.08447236 62.42740245 46.125 62.625 C44.86236328 62.72167969 44.86236328 62.72167969 43.57421875 62.8203125 C42.76855469 62.871875 41.96289062 62.9234375 41.1328125 62.9765625 C40.38918457 63.02893066 39.64555664 63.08129883 38.87939453 63.13525391 C37 63 37 63 35 61 C34.82474945 58.20315203 34.76856811 55.5067192 34.8046875 52.7109375 C34.8075174 51.89251373 34.81034729 51.07408997 34.81326294 50.23086548 C34.82447468 47.61209607 34.84958071 44.99366636 34.875 42.375 C34.88502853 40.60156743 34.8941546 38.82812951 34.90234375 37.0546875 C34.92441722 32.70299374 34.95895356 28.3515545 35 24 C34.01 23.67 33.02 23.34 32 23 C32 21.68 32 20.36 32 19 C29.69 18.67 27.38 18.34 25 18 C25 18.99 25 19.98 25 21 C24.1843457 21.72558105 23.36869141 22.45116211 22.52832031 23.19873047 C19.33778415 26.73370652 19.36213699 29.29821652 19.546875 33.8203125 C19.55632141 34.56078827 19.56576782 35.30126404 19.57550049 36.06417847 C19.60996066 38.41892599 19.67871366 40.77110592 19.75 43.125 C19.80001248 45.48568527 19.84296033 47.84634828 19.88165283 50.20724487 C19.90799823 51.67317256 19.94216959 53.13898538 19.98504639 54.60452271 C20.06098251 57.71587548 19.99386253 60.01841242 19 63 C16.22890693 63.05392397 13.45886182 63.09363455 10.6875 63.125 C9.90181641 63.14175781 9.11613281 63.15851563 8.30664062 63.17578125 C7.1706543 63.18544922 7.1706543 63.18544922 6.01171875 63.1953125 C4.96697388 63.21102295 4.96697388 63.21102295 3.90112305 63.22705078 C2 63 2 63 -1 61 C-1.36749268 58.57777405 -1.36749268 58.57777405 -1.35644531 55.49633789 C-1.35944641 54.34496841 -1.36244751 53.19359894 -1.36553955 52.00733948 C-1.35319275 50.75839401 -1.34084595 49.50944855 -1.328125 48.22265625 C-1.32625183 46.94523056 -1.32437866 45.66780487 -1.32244873 44.35166931 C-1.31571454 41.64536067 -1.30340936 38.93979763 -1.28125 36.23364258 C-1.25299561 32.76556919 -1.24204154 29.29773019 -1.2375679 25.82955265 C-1.23240881 22.52305812 -1.21786792 19.21662004 -1.203125 15.91015625 C-1.19887512 14.66323502 -1.19462524 13.41631378 -1.19024658 12.13160706 C-1.18063904 10.97708542 -1.17103149 9.82256378 -1.16113281 8.63305664 C-1.15430481 7.61538712 -1.14747681 6.59771759 -1.14044189 5.54920959 C-1 3 -1 3 0 0 Z " fill="#282828" transform="translate(612,130)"/>
<path d="M0 0 C9.87766107 -0.41252413 18.00324979 -0.64769876 27 4 C27.99 4.33 28.98 4.66 30 5 C31.54342993 7.2379734 32.11713873 8.35573697 31.625 11.0625 C31.41875 11.701875 31.2125 12.34125 31 13 C31 13.99 31 14.98 31 16 C30.6937566 17.33981486 30.36548445 18.67511887 30 20 C29.34 20 28.68 20 28 20 C28 20.66 28 21.32 28 22 C27.05125 21.979375 26.1025 21.95875 25.125 21.9375 C22.09333717 21.77448174 22.09333717 21.77448174 20 23 C19.34 22.67 18.68 22.34 18 22 C18 21.34 18 20.68 18 20 C12.26709085 17.29155119 12.26709085 17.29155119 6 17 C6.33 17.66 6.66 18.32 7 19 C6.01 19 5.02 19 4 19 C4 20.32 4 21.64 4 23 C5.32 22.67 6.64 22.34 8 22 C8 22.66 8 23.32 8 24 C10.31 24.33 12.62 24.66 15 25 C15 25.66 15 26.32 15 27 C15.78375 27.144375 16.5675 27.28875 17.375 27.4375 C20 28 20 28 22 29 C22.33 28.34 22.66 27.68 23 27 C23.4125 27.45375 23.825 27.9075 24.25 28.375 C26.06408095 30.05950374 27.75285627 30.99265971 30 32 C30 32.99 30 33.98 30 35 C30.99 35.495 30.99 35.495 32 36 C32 36.66 32 37.32 32 38 C32.66 38 33.32 38 34 38 C34 41.66666667 34 45.33333333 34 49 C33.34 49 32.68 49 32 49 C32.2475 49.86625 32.495 50.7325 32.75 51.625 C33.07322912 55.98859312 31.64457883 57.6341724 29 61 C28.01 60.67 27.02 60.34 26 60 C26 60.99 26 61.98 26 63 C23.66159963 63.77946679 21.38670463 64.41018219 19 65 C17.80375 65.350625 16.6075 65.70125 15.375 66.0625 C7.99166105 67.89114819 1.1877586 67.44112556 -6 65 C-10.43028226 63.55465044 -10.43028226 63.55465044 -15 63 C-17.07440072 61.16495321 -17.90771328 59.65086424 -18.296875 56.90625 C-18.41606632 53.3305105 -18.13303705 50.42571856 -17.0625 47 C-14.26886922 44.2910247 -11.93879814 44.1534718 -8.15625 43.75 C-6 44 -6 44 -4.21875 45.375 C-3 47 -3 47 -3 49 C-1.515 48.505 -1.515 48.505 0 48 C0.66 48.33 1.32 48.66 2 49 C3.53668865 49.22467831 5.07968054 49.40796805 6.625 49.5625 C7.44226563 49.64628906 8.25953125 49.73007813 9.1015625 49.81640625 C10.04128906 49.90728516 10.04128906 49.90728516 11 50 C11 49.01 11 48.02 11 47 C11.99 46.505 11.99 46.505 13 46 C11.7934375 45.814375 11.7934375 45.814375 10.5625 45.625 C9.716875 45.41875 8.87125 45.2125 8 45 C7.67 44.34 7.34 43.68 7 43 C5.07361988 42.24756445 5.07361988 42.24756445 3 42 C2.01 42.495 2.01 42.495 1 43 C1 42.34 1 41.68 1 41 C-0.258125 41.0825 -1.51625 41.165 -2.8125 41.25 C-5.046875 41.2421875 -5.046875 41.2421875 -7 41 C-8.5625 39.375 -8.5625 39.375 -10 37 C-11.77751064 35.39079868 -13.61756751 33.88105262 -15.4765625 32.3671875 C-17 31 -17 31 -18 29 C-18.25594354 21.44966552 -18.06102514 14.61796689 -14 8 C-12.0625 6.3125 -12.0625 6.3125 -10 5 C-9.34 4.46375 -8.68 3.9275 -8 3.375 C-5.93396048 1.95459783 -4.47467017 1.32995602 -2 1 C-1.34 1.33 -0.68 1.66 0 2 C0 1.34 0 0.68 0 0 Z " fill="#282828" transform="translate(690,128)"/>
<path d="M0 0 C0.66 0.33 1.32 0.66 2 1 C2.66 0.67 3.32 0.34 4 0 C6.92933767 -0.09341082 9.83474709 -0.12573748 12.76416016 -0.11352539 C13.67153427 -0.11367142 14.57890839 -0.11381744 15.51377869 -0.1139679 C18.52223068 -0.11326951 21.53062128 -0.10548054 24.5390625 -0.09765625 C26.62128668 -0.09579181 28.70351131 -0.09436803 30.78573608 -0.09336853 C36.27336838 -0.08954541 41.76097433 -0.07971686 47.24859619 -0.06866455 C52.84541467 -0.05844602 58.44223739 -0.05386996 64.0390625 -0.04882812 C75.02605326 -0.03809443 86.01302444 -0.02102045 97 0 C97.495 1.485 97.495 1.485 98 3 C97.67 3.66 97.34 4.32 97 5 C97.99 5.495 97.99 5.495 99 6 C98.34 6 97.68 6 97 6 C97.495 7.485 97.495 7.485 98 9 C97.3125 11.125 97.3125 11.125 96 13 C91.92962959 14.34298316 87.78729448 14.14766377 83.54711914 14.14526367 C82.69625229 14.14862228 81.84538544 14.1519809 80.96873474 14.15544128 C78.15752704 14.16493615 75.34637898 14.16689358 72.53515625 14.16796875 C70.57986934 14.17118205 68.62458267 14.17454618 66.66929626 14.17805481 C62.57127322 14.1840422 58.47327125 14.18589508 54.37524414 14.18530273 C49.12501836 14.18520107 43.87492767 14.19885983 38.62473392 14.21607494 C34.58669921 14.22719418 30.54869718 14.22922197 26.51064873 14.22869301 C24.57497123 14.22987299 22.63929288 14.23429575 20.70363045 14.24202538 C17.99641578 14.25182481 15.2894948 14.24894751 12.58227539 14.24291992 C11.38436874 14.25134918 11.38436874 14.25134918 10.16226196 14.25994873 C6.00074058 14.23640921 2.74184972 13.8766676 -1 12 C-1 11.01 -1 10.02 -1 9 C-1.66 8.67 -2.32 8.34 -3 8 C-2.34 8 -1.68 8 -1 8 C-1.33 6.68 -1.66 5.36 -2 4 C-1.34 4 -0.68 4 0 4 C0 2.68 0 1.36 0 0 Z " fill="#262727" transform="translate(90,81)"/>
<path d="M0 0 C0.33 20.46 0.66 40.92 1 62 C-2.8049007 63.26830023 -6.19305228 62.90141109 -10.125 62.625 C-10.86621094 62.58117187 -11.60742188 62.53734375 -12.37109375 62.4921875 C-17.86969484 62.13030516 -17.86969484 62.13030516 -19 61 C-19.09386381 59.1281906 -19.11743804 57.2528194 -19.11352539 55.37866211 C-19.11344986 54.17749252 -19.11337433 52.97632294 -19.11329651 51.73875427 C-19.10813522 50.4314888 -19.10297394 49.12422333 -19.09765625 47.77734375 C-19.09579198 46.43355868 -19.09436812 45.08977293 -19.09336853 43.74598694 C-19.08954402 40.20317723 -19.07971432 36.6604083 -19.06866455 33.11761475 C-19.05844899 29.50484773 -19.0538706 25.89207416 -19.04882812 22.27929688 C-19.03809198 15.1861812 -19.02101636 8.09309326 -19 1 C-13.32745403 -1.83627298 -6.3420992 0 0 0 Z " fill="#43B662" transform="translate(459,130)"/>
<path d="M0 0 C1.13240616 -0.00503792 1.13240616 -0.00503792 2.28768921 -0.01017761 C4.7790492 -0.01966381 7.27034184 -0.02162937 9.76171875 -0.02270508 C11.49519885 -0.02591863 13.22867868 -0.02928278 14.9621582 -0.03279114 C18.59359364 -0.0387761 22.22500529 -0.04063162 25.85644531 -0.04003906 C30.51040313 -0.03993733 35.16420877 -0.05360402 39.81813049 -0.07081127 C43.39718324 -0.08192558 46.97619909 -0.08395847 50.55526733 -0.08342934 C52.2712761 -0.08460975 53.98728581 -0.08903499 55.70327759 -0.0967617 C58.10177312 -0.10655268 60.49993669 -0.10368746 62.8984375 -0.09765625 C63.96147598 -0.10608551 63.96147598 -0.10608551 65.04598999 -0.11468506 C68.6827778 -0.09143208 71.35568919 0.15153972 74.44921875 2.14526367 C74.11921875 2.80526367 73.78921875 3.46526367 73.44921875 4.14526367 C74.43921875 4.64026367 74.43921875 4.64026367 75.44921875 5.14526367 C75.44921875 7.12526367 75.44921875 9.10526367 75.44921875 11.14526367 C70.59896504 13.57039053 67.322808 14.28520952 61.87841797 14.25878906 C60.70755142 14.2590081 60.70755142 14.2590081 59.51303101 14.25923157 C56.92662806 14.25853353 54.34029666 14.25074624 51.75390625 14.24291992 C49.96314534 14.24105535 48.17238392 14.23963163 46.38162231 14.2386322 C41.66337684 14.23481008 36.94516205 14.22498238 32.22692871 14.21392822 C27.41431086 14.20370756 22.60168807 14.19913317 17.7890625 14.1940918 C8.34243442 14.18335986 -1.10417087 14.16628707 -10.55078125 14.14526367 C-10.55078125 13.48526367 -10.55078125 12.82526367 -10.55078125 12.14526367 C-11.21078125 11.81526367 -11.87078125 11.48526367 -12.55078125 11.14526367 C-13.53894955 8.18075879 -13.62494294 6.44191045 -12.86328125 3.39526367 C-11.55078125 1.14526367 -11.55078125 1.14526367 -9.94067383 0.51371765 C-6.62686865 0.00282243 -3.34412068 -0.00213846 0 0 Z " fill="#2A2A2A" transform="translate(90.55078125,153.854736328125)"/>
<path d="M0 0 C6.31710371 -0.05076475 12.63415469 -0.0857608 18.95141602 -0.10986328 C21.09987351 -0.11991265 23.24831737 -0.13355433 25.39672852 -0.15087891 C28.48717622 -0.17517376 31.57744287 -0.18649386 34.66796875 -0.1953125 C35.62648239 -0.20563507 36.58499603 -0.21595764 37.57255554 -0.22659302 C46.24383271 -0.22804756 46.24383271 -0.22804756 50 2 C51.35080958 5.56999674 50.93659101 8.35770162 50 12 C49.195625 12.12375 48.39125 12.2475 47.5625 12.375 C46.716875 12.58125 45.87125 12.7875 45 13 C44.67 13.66 44.34 14.32 44 15 C43.505 14.505 43.505 14.505 43 14 C40.11306009 13.94843045 37.24899862 13.95839585 34.36328125 14.0078125 C32.57096932 14.02534107 30.77865123 14.04224816 28.98632812 14.05859375 C26.15322909 14.08947622 23.32043668 14.12486968 20.48754883 14.17138672 C17.75858817 14.21388869 15.02998369 14.23722161 12.30078125 14.2578125 C11.45993484 14.27643341 10.61908844 14.29505432 9.75276184 14.3142395 C4.72113967 14.33604302 1.41018966 13.70567606 -3 11 C-3 8.36 -3 5.72 -3 3 C-2.34 3 -1.68 3 -1 3 C-0.67 2.01 -0.34 1.02 0 0 Z " fill="#282828" transform="translate(85,191)"/>
<path d="M0 0 C0.66 0.33 1.32 0.66 2 1 C2.99 0.67 3.98 0.34 5 0 C6.3442895 -0.09987198 7.69283957 -0.14816319 9.04077148 -0.16113281 C10.25234169 -0.17554413 10.25234169 -0.17554413 11.48838806 -0.19024658 C12.35718094 -0.19449646 13.22597382 -0.19874634 14.12109375 -0.203125 C15.01740005 -0.20882507 15.91370636 -0.21452515 16.83717346 -0.22039795 C18.7326642 -0.22984164 20.6281713 -0.23637943 22.52368164 -0.24023438 C25.42297934 -0.24995133 28.32157145 -0.28098502 31.22070312 -0.3125 C33.06249579 -0.31902916 34.90429352 -0.32427997 36.74609375 -0.328125 C38.04624672 -0.3466452 38.04624672 -0.3466452 39.37266541 -0.36553955 C45.36757388 -0.34335177 45.36757388 -0.34335177 48.5402832 1.37915039 C50.44020413 3.48879666 50.587173 4.87873425 50.75 7.6875 C50.80671875 8.49574219 50.8634375 9.30398437 50.921875 10.13671875 C50.94765625 10.75160156 50.9734375 11.36648437 51 12 C46.07096909 14.6106662 41.20047382 14.27155605 35.7734375 14.23046875 C34.29648911 14.22978142 34.29648911 14.22978142 32.78970337 14.2290802 C30.71363109 14.22606543 28.63756092 14.2182024 26.56152344 14.20581055 C23.37947607 14.18752572 20.19771949 14.18530119 17.015625 14.18554688 C14.99739331 14.18063237 12.9791636 14.17480434 10.9609375 14.16796875 C10.00778656 14.16685593 9.05463562 14.1657431 8.07260132 14.16459656 C7.18803253 14.15821671 6.30346375 14.15183685 5.39208984 14.14526367 C4.61441254 14.14145187 3.83673523 14.13764008 3.03549194 14.13371277 C1 14 1 14 -2 13 C-2.19491452 11.54263913 -2.38069358 10.08405407 -2.5625 8.625 C-2.66691406 7.81289062 -2.77132812 7.00078125 -2.87890625 6.1640625 C-3 4 -3 4 -2 2 C-1.34 2 -0.68 2 0 2 C0 1.34 0 0.68 0 0 Z " fill="#292929" transform="translate(79,117)"/>
<path d="M0 0 C4.1334315 1.79714413 6.25040922 3.82042202 8 8 C7.69970204 12.90486669 6.34382094 16.25788997 3.37890625 20.1015625 C0.09431161 22.7227661 -2.10727372 22.40343431 -6.25 22.25 C-7.51328125 22.21390625 -8.7765625 22.1778125 -10.078125 22.140625 C-11.52445312 22.07101563 -11.52445312 22.07101563 -13 22 C-13.185625 21.1028125 -13.185625 21.1028125 -13.375 20.1875 C-13.95475985 17.73768652 -13.95475985 17.73768652 -16 15 C-17.5859375 7.9765625 -17.5859375 7.9765625 -15.3125 4.1875 C-14.549375 3.465625 -13.78625 2.74375 -13 2 C-12.443125 1.38125 -11.88625 0.7625 -11.3125 0.125 C-7.53885339 -1.71082808 -3.99523981 -0.92912554 0 0 Z " fill="#41B660" transform="translate(455,105)"/>
<path d="M0 0 C0.86753906 -0.00708984 1.73507813 -0.01417969 2.62890625 -0.02148438 C8.95144329 0.04203416 8.95144329 0.04203416 11.27148438 1.71459961 C12.5 3.4375 12.5 3.4375 12.5 7.4375 C11.97490898 10.44433698 11.69911915 11.24441477 9.4375 13.4375 C5.58633425 14.74853515 2.56806161 14.56872779 -1.5 14.4375 C-2.49 14.7675 -3.48 15.0975 -4.5 15.4375 C-8.06713097 14.12712536 -10.01636431 13.31683762 -11.875 9.9375 C-12.614705 6.97868001 -12.78389797 5.11420507 -11.59375 2.27734375 C-8.16858163 -0.73245905 -4.39544886 -0.10123248 0 0 Z " fill="#262827" transform="translate(163.5,190.5625)"/>
<path d="M0 0 C0.74507812 0.00902344 1.49015625 0.01804687 2.2578125 0.02734375 C4.08868059 0.05081642 5.91938238 0.08668475 7.75 0.125 C9.21963844 4.3172754 10.25858266 7.6494726 9.75 12.125 C4.90481397 15.35512402 -0.52563528 15.18699673 -6.25 15.125 C-10.50554672 14.20853001 -12.78414757 12.82377865 -15.25 9.125 C-15.25 7.805 -15.25 6.485 -15.25 5.125 C-14.59 5.125 -13.93 5.125 -13.25 5.125 C-12.92 4.135 -12.59 3.145 -12.25 2.125 C-8.62382197 -0.6404186 -4.34038938 -0.09969092 0 0 Z " fill="#262726" transform="translate(156.25,116.875)"/>
<path d="M0 0 C1.81177734 0.00580078 1.81177734 0.00580078 3.66015625 0.01171875 C6.71541303 0.29211776 8.47519012 0.52172918 10.9375 2.3125 C12 5.625 12 5.625 11.9375 9.3125 C9.16289056 13.07182378 7.68821819 14.19873214 3.01953125 14.90625 C1.59602086 14.90098262 0.17239294 14.86913827 -1.25 14.8125 C-1.97380859 14.81507813 -2.69761719 14.81765625 -3.44335938 14.8203125 C-5.54296875 14.78125 -5.54296875 14.78125 -9.0625 14.3125 C-11.62866632 10.46325052 -11.61347676 7.8775696 -12.0625 3.3125 C-7.94902834 0.3542348 -5.02571041 -0.06987619 0 0 Z " fill="#292929" transform="translate(50.0625,153.6875)"/>
<path d="M0 0 C1.31484375 0.01289062 2.6296875 0.02578125 3.984375 0.0390625 C7.25 0.375 7.25 0.375 9.25 2.375 C9.81520003 5.03037372 9.98788198 7.66644713 10.25 10.375 C5.44532808 14.64581949 1.39444283 14.99436512 -4.9609375 14.7578125 C-8.68368929 14.24684657 -10.46071684 13.37475035 -12.75 10.375 C-13.5625 7.125 -13.5625 7.125 -13.75 4.375 C-9.0395842 0.67395901 -6.16047525 -0.13392337 0 0 Z " fill="#262626" transform="translate(62.75,80.625)"/>
<path d="M0 0 C0.33 0.66 0.66 1.32 1 2 C1.99 2.33 2.98 2.66 4 3 C3.01 3.495 3.01 3.495 2 4 C1.34786708 6.02463255 1.34786708 6.02463255 1 8 C-0.32 8 -1.64 8 -3 8 C-3.33 9.32 -3.66 10.64 -4 12 C-2.02 12 -0.04 12 2 12 C2 12.33 2 12.66 2 13 C-4.75 14.125 -4.75 14.125 -7 13 C-6.70876501 7.02968261 -3.97185616 4.105466 0 0 Z " fill="#4AAE64" transform="translate(283,118)"/>
<path d="M0 0 C0 3 0 3 -1.0625 5.4375 C-2.07746423 8.21173555 -2.00487696 9.2868322 -1 12 C-4 12 -4 12 -6 11 C-6.268125 11.78375 -6.53625 12.5675 -6.8125 13.375 C-8 16 -8 16 -11 18 C-9.5810861 14.10508136 -7.74229459 10.79470749 -5.5 7.3125 C-4.8915625 6.35988281 -4.283125 5.40726563 -3.65625 4.42578125 C-2 2 -2 2 0 0 Z " fill="#49A863" transform="translate(288,169)"/>
<path d="M0 0 C0.33 0.66 0.66 1.32 1 2 C1.66 2.33 2.32 2.66 3 3 C2.01 3.33 1.02 3.66 0 4 C-0.66 4.66 -1.32 5.32 -2 6 C-2.66 6 -3.32 6 -4 6 C-5.34882408 6.63474075 -6.6846659 7.29848848 -8 8 C-8.66 6.68 -9.32 5.36 -10 4 C-9.34 3.01 -8.68 2.02 -8 1 C-4.4375 0.875 -4.4375 0.875 -1 1 C-0.67 0.67 -0.34 0.34 0 0 Z " fill="#222222" transform="translate(756,208)"/>
<path d="M0 0 C3.95260649 3.95260649 4.72353018 7.45504726 5.5078125 12.79296875 C5.83611642 15.19361177 5.83611642 15.19361177 8 17 C8 17.99 8 18.98 8 20 C5.38585418 18.69292709 5.18641404 17.53808949 4.0625 14.875 C3.71960938 14.06546875 3.37671875 13.2559375 3.0234375 12.421875 C2.68570313 11.62265625 2.34796875 10.8234375 2 10 C1.68289062 9.32453125 1.36578125 8.6490625 1.0390625 7.953125 C-1.11185383 3.3355615 -1.11185383 3.3355615 0 0 Z " fill="#48A768" transform="translate(184,166)"/>
<path d="M0 0 C3 1 3 1 4.25 2.8125 C5.13328468 5.38874698 4.82130961 6.45394021 4 9 C4 9.99 4 10.98 4 12 C3.01 12 2.02 12 1 12 C0.7834375 10.63875 0.7834375 10.63875 0.5625 9.25 C0.08075461 6.14616764 0.08075461 6.14616764 -0.625 3.75 C-1 2 -1 2 0 0 Z " fill="#1F1F1F" transform="translate(717,132)"/>
<path d="M0 0 C2.875 -0.1875 2.875 -0.1875 6 0 C6.66 0.99 7.32 1.98 8 3 C7.34 3.66 6.68 4.32 6 5 C5.60235737 6.98821313 5.26224651 8.98944339 5 11 C4.01 10.67 3.02 10.34 2 10 C2.04125 9.0925 2.0825 8.185 2.125 7.25 C2.00468444 4.1217954 1.6085292 2.61385994 0 0 Z " fill="#4CAC68" transform="translate(192,189)"/>
<path d="M0 0 C0.66 0 1.32 0 2 0 C2 3 2 3 0.5625 5.1875 C-3.17473012 7.83090667 -6.56064182 7.34148909 -11 7 C-10.34 6.67 -9.68 6.34 -9 6 C-8.67 5.34 -8.34 4.68 -8 4 C-4.9681144 2.11813998 -3.75482645 2 0 2 C0 1.34 0 0.68 0 0 Z " fill="#4DAB67" transform="translate(458,120)"/>
<path d="M0 0 C9.57 0 19.14 0 29 0 C29 0.33 29 0.66 29 1 C28.19780029 1.02505615 27.39560059 1.0501123 26.5690918 1.07592773 C22.94172926 1.19182043 19.31463083 1.31457751 15.6875 1.4375 C14.42486328 1.47681641 13.16222656 1.51613281 11.86132812 1.55664062 C10.04858398 1.61948242 10.04858398 1.61948242 8.19921875 1.68359375 C6.52605591 1.73858032 6.52605591 1.73858032 4.8190918 1.79467773 C1.92126429 1.88931209 1.92126429 1.88931209 -1 3 C-0.67 2.01 -0.34 1.02 0 0 Z " fill="#389A66" transform="translate(375,179)"/>
<path d="M0 0 C1.32 0.33 2.64 0.66 4 1 C3.34 2.98 2.68 4.96 2 7 C0.68 6.67 -0.64 6.34 -2 6 C-1.34 4.02 -0.68 2.04 0 0 Z " fill="#3BBD53" transform="translate(354,174)"/>
<path d="M0 0 C2.50037734 2.17424117 3.43628586 3.73045798 4 7 C3.34 7 2.68 7 2 7 C1.67 7.66 1.34 8.32 1 9 C-0.5625 7.75 -0.5625 7.75 -2 6 C-1.7181953 3.67511119 -1.04553582 2.09107165 0 0 Z " fill="#141415" transform="translate(748,135)"/>
<path d="M0 0 C2.64 0.33 5.28 0.66 8 1 C7.67 1.66 7.34 2.32 7 3 C6.34 3 5.68 3 5 3 C4.67 4.32 4.34 5.64 4 7 C3.67 6.34 3.34 5.68 3 5 C2.34 4.67 1.68 4.34 1 4 C0.375 1.9375 0.375 1.9375 0 0 Z " fill="#45AC63" transform="translate(447,104)"/>
<path d="M0 0 C0.66 1.32 1.32 2.64 2 4 C0.38405168 6.04119788 -1.2856382 8.04072937 -3 10 C-3.66 10 -4.32 10 -5 10 C-5 9.01 -5 8.02 -5 7 C-4.01 7 -3.02 7 -2 7 C-1.855625 6.21625 -1.71125 5.4325 -1.5625 4.625 C-1 2 -1 2 0 0 Z M2 3 C4 4 4 4 4 4 Z " fill="#4BA965" transform="translate(194,202)"/>
<path d="M0 0 C0.33 0.99 0.66 1.98 1 3 C1.66 3.33 2.32 3.66 3 4 C2.195625 4.61875 1.39125 5.2375 0.5625 5.875 C-2.03874519 7.74164041 -2.03874519 7.74164041 -3 10 C-3.66 10 -4.32 10 -5 10 C-3.66511872 6.40608886 -2.03977277 3.24509304 0 0 Z " fill="#4DA866" transform="translate(268,198)"/>
<path d="M0 0 C1.32 0.33 2.64 0.66 4 1 C4.33 2.32 4.66 3.64 5 5 C3.02 5.99 3.02 5.99 1 7 C0 6 0 6 -0.0625 2.9375 C-0.041875 1.968125 -0.02125 0.99875 0 0 Z " fill="#34BF56" transform="translate(262,170)"/>
<path d="M0 0 C0.99 0 1.98 0 3 0 C3 0.66 3 1.32 3 2 C4.65 2.33 6.3 2.66 8 3 C7.34 3.66 6.68 4.32 6 5 C4.32577014 4.70700977 2.65821773 4.37309899 1 4 C0.01 4.495 0.01 4.495 -1 5 C-0.67 3.35 -0.34 1.7 0 0 Z " fill="#3CBD57" transform="translate(442,130)"/>
<path d="M0 0 C2 1 2 1 3 3 C1.6875 5.625 1.6875 5.625 0 8 C-0.66 8 -1.32 8 -2 8 C-2.33 8.66 -2.66 9.32 -3 10 C-3 9.01 -3 8.02 -3 7 C-2.34 7 -1.68 7 -1 7 C-1.020625 6.030625 -1.04125 5.06125 -1.0625 4.0625 C-1 1 -1 1 0 0 Z " fill="#191E1D" transform="translate(474,168)"/>
<path d="M0 0 C2 3 2 3 2 5 C-2.21912747 4.5205537 -4.79663178 3.83374881 -8 1 C-7.05125 1.020625 -6.1025 1.04125 -5.125 1.0625 C-2.09333717 1.22551826 -2.09333717 1.22551826 0 0 Z " fill="#202020" transform="translate(491,154)"/>
<path d="M0 0 C0 3.93169105 -1.39419615 5.16427228 -4 8 C-4.66 8 -5.32 8 -6 8 C-5.34 5.69 -4.68 3.38 -4 1 C-2.68 0.67 -1.36 0.34 0 0 Z " fill="#181818" transform="translate(83,154)"/>
<path d="M0 0 C0.99 0 1.98 0 3 0 C3 2 3 2 1.5 3.5625 C-1.9985316 5.57415567 -4.98949133 5.66579094 -9 6 C-8 4 -8 4 -5.625 2.875 C-3 2 -3 2 0 2 C0 1.34 0 0.68 0 0 Z " fill="#4FA766" transform="translate(230,72)"/>
<path d="M0 0 C0.33 0.66 0.66 1.32 1 2 C1.66 2.33 2.32 2.66 3 3 C-0.94647618 3.98844951 -4.27392964 3.96191905 -8.3125 3.5625 C-9.38113281 3.46066406 -10.44976562 3.35882813 -11.55078125 3.25390625 C-12.35902344 3.17011719 -13.16726562 3.08632812 -14 3 C-14 2.67 -14 2.34 -14 2 C-9.38 2 -4.76 2 0 2 C0 1.34 0 0.68 0 0 Z " fill="#4DAC64" transform="translate(242,221)"/>
<path d="M0 0 C1.125 1.6875 1.125 1.6875 2 4 C1.125 6.75 1.125 6.75 0 9 C-0.99 8.67 -1.98 8.34 -3 8 C-3 6.35 -3 4.7 -3 3 C-2.34 3 -1.68 3 -1 3 C-0.67 2.01 -0.34 1.02 0 0 Z " fill="#2E2E2E" transform="translate(85,191)"/>
<path d="M0 0 C3.63 0 7.26 0 11 0 C11 0.33 11 0.66 11 1 C9.35 1 7.7 1 6 1 C5.67 1.66 5.34 2.32 5 3 C4.34 2.67 3.68 2.34 3 2 C2.67 2.66 2.34 3.32 2 4 C1.34 3.67 0.68 3.34 0 3 C0 2.01 0 1.02 0 0 Z " fill="#020202" transform="translate(582,169)"/>
<path d="M0 0 C0 0.99 0 1.98 0 3 C-1.32 3 -2.64 3 -4 3 C-2.68 2.01 -1.36 1.02 0 0 Z M-6 5 C-5.34 5.33 -4.68 5.66 -4 6 C-5.32 7.32 -6.64 8.64 -8 10 C-8.66 9.67 -9.32 9.34 -10 9 C-8.68 7.68 -7.36 6.36 -6 5 Z " fill="#181818" transform="translate(684,130)"/>
<path d="M0 0 C2 1 2 1 4 3 C3.625 5.125 3.625 5.125 3 7 C2.01 6.67 1.02 6.34 0 6 C-0.38218767 4.34385343 -0.71395102 2.67542976 -1 1 C-0.67 0.67 -0.34 0.34 0 0 Z " fill="#44AA64" transform="translate(244,212)"/>
<path d="M0 0 C0.33 0 0.66 0 1 0 C1.25 2.3125 1.25 2.3125 1 5 C-1 6.8125 -1 6.8125 -3 8 C-3.66 7.67 -4.32 7.34 -5 7 C-4.19152271 5.83054208 -3.37810888 4.66449539 -2.5625 3.5 C-2.11003906 2.8503125 -1.65757812 2.200625 -1.19140625 1.53125 C-0.79824219 1.0259375 -0.40507812 0.520625 0 0 Z " fill="#4AA86B" transform="translate(198,96)"/>
<path d="M0 0 C3.44216672 2.6598561 3.99504674 5.90288286 5 10 C4.01 10.33 3.02 10.66 2 11 C0 3.375 0 3.375 0 0 Z " fill="#1C1C1C" transform="translate(737,158)"/>
<path d="M0 0 C0 0.99 0 1.98 0 3 C-0.66 3 -1.32 3 -2 3 C-2.33 3.66 -2.66 4.32 -3 5 C-5.0625 5.625 -5.0625 5.625 -7 6 C-6.75 4.125 -6.75 4.125 -6 2 C-3.85331506 0.61504198 -2.56128588 0 0 0 Z " fill="#181818" transform="translate(45,154)"/>
<path d="M0 0 C0.33 0 0.66 0 1 0 C1.36630156 3.93774177 1.30233203 5.56539771 -1 8.875 C-1.66 9.57625 -2.32 10.2775 -3 11 C-2.53199289 6.94393835 -2.12046792 3.53411321 0 0 Z " fill="#4EA269" transform="translate(376,113)"/>
<path d="M0 0 C1.65 0 3.3 0 5 0 C3.68 1.65 2.36 3.3 1 5 C-0.32 4.34 -1.64 3.68 -3 3 C-2.01 2.67 -1.02 2.34 0 2 C0 1.34 0 0.68 0 0 Z M-4 4 C-2 5 -2 5 -2 5 Z " fill="#1B1B1B" transform="translate(484,112)"/>
<path d="M0 0 C0.33 0 0.66 0 1 0 C1 2.64 1 5.28 1 8 C0.01 7.67 -0.98 7.34 -2 7 C-1.125 1.125 -1.125 1.125 0 0 Z " fill="#2FC549" transform="translate(301,149)"/>
<path d="M0 0 C0.66 0.99 1.32 1.98 2 3 C1.01 4.485 1.01 4.485 0 6 C-0.66 6 -1.32 6 -2 6 C-2.33 6.99 -2.66 7.98 -3 9 C-2.5020163 5.26512223 -2.12508244 3.18762365 0 0 Z " fill="#47AC68" transform="translate(187,116)"/>
<path d="M0 0 C1.32 0 2.64 0 4 0 C4 1.65 4 3.3 4 5 C2.35 5.33 0.7 5.66 -1 6 C-1 5.34 -1 4.68 -1 4 C-0.01 4 0.98 4 2 4 C2 3.34 2 2.68 2 2 C1.34 2 0.68 2 0 2 C0 1.34 0 0.68 0 0 Z " fill="#3CBD50" transform="translate(244,68)"/>
<path d="M0 0 C0.99 0.495 0.99 0.495 2 1 C2 2.32 2 3.64 2 5 C2.66 5 3.32 5 4 5 C3.67 5.99 3.34 6.98 3 8 C2.01 7.34 1.02 6.68 0 6 C-0.1875 2.875 -0.1875 2.875 0 0 Z " fill="#0FB749" transform="translate(216,154)"/>
<path d="M0 0 C0.99 0 1.98 0 3 0 C2.67 0.99 2.34 1.98 2 3 C1.34 3 0.68 3 0 3 C0 2.01 0 1.02 0 0 Z " fill="#00FF00" transform="translate(249,220)"/>
<path d="M0 0 C1.65 0 3.3 0 5 0 C5 0.33 5 0.66 5 1 C3.35 1 1.7 1 0 1 C0 0.67 0 0.34 0 0 Z " fill="#000000" transform="translate(164,205)"/>
<path d="M0 0 C1.65 0 3.3 0 5 0 C5 0.33 5 0.66 5 1 C3.35 1 1.7 1 0 1 C0 0.67 0 0.34 0 0 Z " fill="#000000" transform="translate(123,205)"/>
<path d="M0 0 C4 1 4 1 4 1 Z " fill="#000000" transform="translate(90,205)"/>
<path d="" fill="#000000" transform="translate(0,0)"/>
<path d="" fill="#000000" transform="translate(0,0)"/>
<path d="M0 0 C2 1 2 1 2 1 Z " fill="#000000" transform="translate(688,170)"/>
<path d="M0 0 C2 1 2 1 2 1 Z " fill="#000000" transform="translate(641,150)"/>
<path d="" fill="#000000" transform="translate(0,0)"/>
<path d="M0 0 C2 1 2 1 2 1 Z " fill="#191919" transform="translate(633,132)"/>
<path d="M0 0 C2 1 2 1 2 1 Z " fill="#000000" transform="translate(125,131)"/>
<path d="M0 0 C2 1 2 1 2 1 Z " fill="#000000" transform="translate(51,81)"/>
<path d="" fill="#00FF00" transform="translate(0,0)"/>
<path d="" fill="#00FF00" transform="translate(0,0)"/>
<path d="" fill="#000000" transform="translate(0,0)"/>
<path d="" fill="#000000" transform="translate(0,0)"/>
<path d="" fill="#000000" transform="translate(0,0)"/>
<path d="" fill="#000000" transform="translate(0,0)"/>
<path d="" fill="#000000" transform="translate(0,0)"/>
<path d="" fill="#555555" transform="translate(0,0)"/>
<path d="" fill="#000000" transform="translate(0,0)"/>
<path d="" fill="#000000" transform="translate(0,0)"/>
<path d="" fill="#000000" transform="translate(0,0)"/>
<path d="" fill="#000000" transform="translate(0,0)"/>
<path d="" fill="#00FF00" transform="translate(0,0)"/>
<path d="" fill="#00FF00" transform="translate(0,0)"/>
<path d="" fill="#000000" transform="translate(0,0)"/>
<path d="" fill="#00FF00" transform="translate(0,0)"/>
<path d="" fill="#000000" transform="translate(0,0)"/>
<path d="" fill="#000000" transform="translate(0,0)"/>
<path d="" fill="#000000" transform="translate(0,0)"/>
<path d="" fill="#000000" transform="translate(0,0)"/>
<path d="" fill="#000000" transform="translate(0,0)"/>
<path d="" fill="#000000" transform="translate(0,0)"/>
<path d="" fill="#000000" transform="translate(0,0)"/>
<path d="" fill="#000000" transform="translate(0,0)"/>
<path d="" fill="#000000" transform="translate(0,0)"/>
<path d="" fill="#00FF00" transform="translate(0,0)"/>
<path d="" fill="#000000" transform="translate(0,0)"/>
<path d="" fill="#00FF00" transform="translate(0,0)"/>
<path d="" fill="#000000" transform="translate(0,0)"/>
<path d="" fill="#000000" transform="translate(0,0)"/>
<path d="" fill="#000000" transform="translate(0,0)"/>
<path d="" fill="#000000" transform="translate(0,0)"/>
<path d="" fill="#000000" transform="translate(0,0)"/>
<path d="" fill="#404040" transform="translate(0,0)"/>
<path d="" fill="#000000" transform="translate(0,0)"/>
<path d="" fill="#000000" transform="translate(0,0)"/>
<path d="" fill="#000000" transform="translate(0,0)"/>
<path d="" fill="#000000" transform="translate(0,0)"/>
<path d="" fill="#000000" transform="translate(0,0)"/>
<path d="" fill="#000000" transform="translate(0,0)"/>
<path d="" fill="#000000" transform="translate(0,0)"/>
<path d="" fill="#000000" transform="translate(0,0)"/>
<path d="" fill="#404040" transform="translate(0,0)"/>
<path d="" fill="#000000" transform="translate(0,0)"/>
<path d="" fill="#000000" transform="translate(0,0)"/>
<path d="" fill="#000000" transform="translate(0,0)"/>
<path d="" fill="#000000" transform="translate(0,0)"/>
<path d="" fill="#000000" transform="translate(0,0)"/>
<path d="" fill="#000000" transform="translate(0,0)"/>
<path d="" fill="#333333" transform="translate(0,0)"/>
<path d="" fill="#000000" transform="translate(0,0)"/>
<path d="" fill="#000000" transform="translate(0,0)"/>
<path d="" fill="#2A2A2A" transform="translate(0,0)"/>
<path d="" fill="#404040" transform="translate(0,0)"/>
<path d="" fill="#000000" transform="translate(0,0)"/>
<path d="" fill="#000000" transform="translate(0,0)"/>
<path d="" fill="#408080" transform="translate(0,0)"/>
<path d="" fill="#000000" transform="translate(0,0)"/>
<path d="" fill="#000000" transform="translate(0,0)"/>
<path d="" fill="#333333" transform="translate(0,0)"/>
<path d="" fill="#000000" transform="translate(0,0)"/>
<path d="" fill="#000000" transform="translate(0,0)"/>
<path d="" fill="#000000" transform="translate(0,0)"/>
<path d="" fill="#000000" transform="translate(0,0)"/>
<path d="" fill="#000000" transform="translate(0,0)"/>
<path d="" fill="#000000" transform="translate(0,0)"/>
<path d="" fill="#000000" transform="translate(0,0)"/>
<path d="" fill="#000000" transform="translate(0,0)"/>
<path d="" fill="#000000" transform="translate(0,0)"/>
<path d="" fill="#000000" transform="translate(0,0)"/>
<path d="" fill="#000000" transform="translate(0,0)"/>
<path d="" fill="#55AA55" transform="translate(0,0)"/>
<path d="" fill="#404040" transform="translate(0,0)"/>
<path d="" fill="#000000" transform="translate(0,0)"/>
<path d="" fill="#000000" transform="translate(0,0)"/>
<path d="" fill="#000000" transform="translate(0,0)"/>
<path d="" fill="#000000" transform="translate(0,0)"/>
<path d="" fill="#000000" transform="translate(0,0)"/>
<path d="" fill="#000000" transform="translate(0,0)"/>
<path d="" fill="#000000" transform="translate(0,0)"/>
<path d="" fill="#000000" transform="translate(0,0)"/>
<path d="" fill="#404040" transform="translate(0,0)"/>
<path d="" fill="#000000" transform="translate(0,0)"/>
<path d="" fill="#000000" transform="translate(0,0)"/>
<path d="" fill="#000000" transform="translate(0,0)"/>
</svg>
