<?xml version="1.0" encoding="UTF-8"?>
<svg version="1.1" xmlns="http://www.w3.org/2000/svg" width="1544" height="902">
<path d="M0 0 C509.52 0 1019.04 0 1544 0 C1544 297.66 1544 595.32 1544 902 C1034.48 902 524.96 902 0 902 C0 604.34 0 306.68 0 0 Z " fill="#FEFEFE" transform="translate(0,0)"/>
<path d="M0 0 C509.52 0 1019.04 0 1544 0 C1544 297.66 1544 595.32 1544 902 C1034.48 902 524.96 902 0 902 C0 604.34 0 306.68 0 0 Z M35 36 C20.67648008 53.39905568 21.40586917 73.2133979 21.48612978 94.69034839 C21.49635334 98.62139401 21.48320682 102.55237714 21.47315645 106.4834137 C21.45875988 113.36107315 21.45911689 120.23860684 21.46934509 127.11627197 C21.48451355 137.34380812 21.47672013 147.57123874 21.46451186 157.79877424 C21.4434752 176.06813739 21.44526397 194.33744451 21.45682751 212.60681295 C21.46689716 228.5948149 21.46951308 244.58279632 21.46473694 260.57080078 C21.4644314 261.63209328 21.46412586 262.69338578 21.46381106 263.78683865 C21.46256567 268.09517331 21.46129206 272.40350796 21.459972 276.7118426 C21.44774114 317.11190081 21.4588217 357.51192338 21.48035959 397.9119761 C21.49934144 433.79029483 21.49764291 469.66855677 21.47851562 505.546875 C21.45708842 545.87392549 21.44860861 586.20094449 21.46096468 626.52799988 C21.46224751 630.82839965 21.46349888 635.12879943 21.46473694 639.42919922 C21.46505325 640.48803601 21.46536956 641.54687281 21.46569545 642.63779557 C21.47024176 658.61417054 21.46493092 674.59052272 21.45481873 690.56689453 C21.44337576 708.7361502 21.44625368 726.90534116 21.4679417 745.07458878 C21.47967413 755.23824236 21.480472 765.40175577 21.465357 775.56540567 C21.4563682 782.36007744 21.46200439 789.15463715 21.47937608 795.94929236 C21.48886258 799.81676522 21.49220509 803.68396021 21.47775215 807.55142403 C21.40031615 829.95735581 21.40818955 849.92749793 37.625 867.25 C46.4857718 875.58718074 55.9681312 881.00567654 68 883 C69.01018896 883.17211574 70.02037791 883.34423149 71.06117866 883.52156286 C75.6949362 884.08441187 80.21048072 884.13871144 84.87270397 884.1276505 C85.85672212 884.12930128 86.84074028 884.13095206 87.85457716 884.13265286 C91.16649327 884.13698191 94.478365 884.13417524 97.79028225 884.13142776 C100.19313626 884.1330772 102.59598999 884.13516339 104.99884328 884.13764787 C110.24715146 884.14205814 115.49545102 884.14334654 120.74376046 884.14191952 C128.60081919 884.1397989 136.45786817 884.14341102 144.3149254 884.1481343 C157.70538743 884.1560098 171.09584679 884.15909645 184.48631096 884.15958023 C198.05950551 884.16008243 211.63269708 884.16272741 225.20589066 884.16798782 C226.06267058 884.16831796 226.9194505 884.16864809 227.80219344 884.16898823 C231.29164922 884.17033821 234.78110499 884.17170087 238.27056075 884.17308033 C279.59569913 884.18938805 320.92083694 884.19576959 362.24597798 884.2005282 C382.82148235 884.20291088 403.39698639 884.20661425 423.97249051 884.2105653 C489.96282531 884.22323019 555.9531601 884.23401408 621.9434961 884.23740576 C625.09787987 884.237568 628.25226365 884.23773356 631.40664742 884.23790014 C637.7328769 884.23823394 644.05910638 884.23856442 650.38533586 884.2388947 C657.79190766 884.2392816 665.19847946 884.23967121 672.60505125 884.24006577 C674.72487703 884.24017818 676.84470282 884.2402896 678.9645286 884.24040002 C747.04953753 884.24394964 815.13453591 884.25902859 883.21954081 884.28233776 C932.13892444 884.29907873 981.05830608 884.31455416 1029.9776926 884.31907272 C1031.48668098 884.31921295 1031.48668098 884.31921295 1033.02615397 884.31935601 C1055.10998645 884.32137504 1077.1938189 884.3225311 1099.27765147 884.3228846 C1107.17969598 884.32302077 1115.08174049 884.32322977 1122.983785 884.32347785 C1124.94963699 884.32353941 1126.91548897 884.32359773 1128.88134096 884.3236528 C1160.20926993 884.3245727 1191.53718789 884.33454196 1222.86511323 884.34911029 C1254.41956384 884.36372524 1285.97400093 884.36876876 1317.52845432 884.36069075 C1321.88946946 884.35957538 1326.25048461 884.35856471 1330.61149979 884.35761642 C1331.46637313 884.35742646 1332.32124647 884.35723649 1333.20202506 884.35704076 C1346.73448635 884.35430783 1360.26692264 884.36164681 1373.79937849 884.37318979 C1387.10828644 884.38433235 1400.41715907 884.38476006 1413.72606757 884.37381961 C1421.52680019 884.36772743 1429.32742616 884.36980653 1437.1281487 884.38407158 C1442.92357344 884.39374937 1448.71889811 884.38772727 1454.51431445 884.37566125 C1456.84126755 884.37322874 1459.16823276 884.37580598 1461.4951725 884.38405773 C1482.51658326 884.4536935 1502.96304003 883.66935378 1519.04296875 868.15625 C1531.49842255 854.43287575 1535.32046387 839.88206006 1535.25447559 821.76204872 C1535.25768207 820.45236933 1535.26088855 819.14268993 1535.26419219 817.79332328 C1535.27278393 814.16672327 1535.26899756 810.54022722 1535.26313647 806.9136257 C1535.25895729 802.96479765 1535.26637314 799.01598826 1535.27228898 795.06716478 C1535.28104647 788.14910192 1535.28236469 781.23106866 1535.27878571 774.31300163 C1535.27347762 764.02548208 1535.27957506 753.73799117 1535.28786864 743.45047473 C1535.30311159 724.00823324 1535.30481342 704.56600478 1535.30234561 685.12375857 C1535.30051322 670.11122497 1535.30227142 655.09869563 1535.30657005 640.08616257 C1535.30717245 637.92961313 1535.30777365 635.77306369 1535.30837366 633.61651426 C1535.3092809 630.36683871 1535.31018957 627.11716316 1535.31110601 623.86748761 C1535.31953597 593.65255189 1535.32387091 563.43761778 1535.31969929 533.22268105 C1535.31954291 532.08355857 1535.31938654 530.94443609 1535.31922542 529.77079474 C1535.31841963 523.99721906 1535.31757386 518.22364339 1535.31671212 512.45006771 C1535.31654103 511.303409 1535.31636994 510.15675028 1535.31619367 508.97534433 C1535.31584702 506.6565222 1535.31549849 504.33770008 1535.31514808 502.01887795 C1535.30979021 465.93347408 1535.31772301 429.84809463 1535.33618164 393.76269531 C1535.35689391 353.22404937 1535.36762587 312.68541856 1535.36360615 272.14676702 C1535.36321081 267.825001 1535.36284926 263.50323499 1535.36250877 259.18146896 C1535.36241804 258.11733402 1535.36232731 257.05319908 1535.36223383 255.95681763 C1535.3610675 239.88759358 1535.3677188 223.81838481 1535.37832069 207.74916458 C1535.39036428 189.4760905 1535.39194131 171.2030501 1535.37953053 152.92997552 C1535.37289573 142.70332059 1535.37454731 132.47674615 1535.38811904 122.25009763 C1535.39635468 115.41833223 1535.39367751 108.58662721 1535.38214377 101.75486673 C1535.37587862 97.86284922 1535.37430905 93.97098891 1535.38600711 90.0789804 C1535.39850443 85.88240579 1535.38771298 81.68620661 1535.37473011 77.48963356 C1535.38203946 76.28706586 1535.3893488 75.08449817 1535.39687964 73.84548903 C1535.29306031 57.67980676 1530.42799575 44.97546881 1519.28515625 33.21875 C1502.85614347 17.26716152 1483.98730016 16.55190902 1462.31970119 16.62247658 C1459.8932932 16.61934498 1457.46688661 16.6148996 1455.04048315 16.60926348 C1449.75915635 16.60001714 1444.47795149 16.60005301 1439.1966319 16.60831411 C1431.29033562 16.62062525 1423.38411436 16.61555142 1415.47781632 16.60716619 C1402.00128206 16.59338094 1388.52478179 16.59380901 1375.04824448 16.60200882 C1361.39371489 16.61026629 1347.73920767 16.61200063 1334.08467674 16.60579681 C1332.79041155 16.60521554 1332.79041155 16.60521554 1331.46999958 16.60462252 C1327.95570133 16.60302268 1324.44140309 16.60137656 1320.92710489 16.59967169 C1288.20302087 16.58380767 1255.47895184 16.5827258 1222.75486565 16.59111404 C1221.30066996 16.59148662 1221.30066996 16.59148662 1219.81709659 16.59186673 C1218.84608178 16.59211552 1217.87506697 16.59236431 1216.87462747 16.59262064 C1187.29779531 16.60018872 1157.72096935 16.60214504 1128.14413643 16.5985527 C1126.16390216 16.59832027 1124.18366789 16.5980888 1122.20343362 16.59785829 C1114.2457982 16.5969269 1106.2881628 16.5959709 1098.33052739 16.594979 C1076.08543884 16.59222792 1053.84035027 16.59051616 1031.59526157 16.58962059 C1030.58225813 16.58957965 1029.56925469 16.58953872 1028.52555417 16.58949654 C996.24490706 16.58826863 963.96426211 16.59164977 931.68361568 16.59816933 C930.63655672 16.59838007 929.58949775 16.59859082 928.51070972 16.59880795 C911.50690369 16.60224284 894.50309771 16.60590121 877.49929173 16.60957848 C810.05673212 16.62414815 742.61419039 16.62347088 675.17163086 16.60888672 C658.17523418 16.60522319 641.17883749 16.60159005 624.18244076 16.59816933 C622.61267315 16.59785231 622.61267315 16.59785231 621.01119306 16.59752889 C588.76344352 16.59106101 556.51569546 16.58831738 524.26794529 16.58962059 C523.25569821 16.58966134 522.24345113 16.5897021 521.2005299 16.58974408 C498.98081384 16.59068149 476.76109793 16.59258235 454.54138202 16.5953521 C446.59115541 16.59633954 438.6409288 16.59727878 430.69070219 16.59820423 C428.71287129 16.5984364 426.73504039 16.59867259 424.75720949 16.59891282 C395.18709004 16.60249457 365.61697757 16.5994424 336.04685899 16.59186673 C335.0773124 16.59161834 334.10776582 16.59136996 333.10883904 16.59111404 C332.14107897 16.590866 331.17331891 16.59061795 330.17623278 16.59036239 C297.54812187 16.58209091 264.92002894 16.58512508 232.29192059 16.60095628 C228.78925448 16.60261336 225.28658835 16.60422347 221.7839222 16.60579681 C220.49448984 16.60638274 220.49448984 16.60638274 219.17900836 16.60698051 C205.56001161 16.61290085 191.94103721 16.6087746 178.32204248 16.6004898 C164.93510888 16.59255967 151.54821303 16.59532918 138.16128422 16.60953206 C130.31042389 16.61754347 122.459667 16.61736127 114.60881158 16.60508727 C108.78348651 16.59689633 102.95824973 16.6043144 97.13293228 16.61785609 C94.78862872 16.62088303 92.44431197 16.61886495 90.10001886 16.61123828 C68.35134835 16.54549216 50.46208314 18.91763869 35 36 Z " fill="#FEFEFE" transform="translate(0,0)"/>
<path d="M0 0 C21.08708939 -0.60730817 38.19710969 7.71372484 53.3190918 21.90209961 C54.78359122 23.29999797 56.23843022 24.70732502 57.69140625 26.1171875 C59.06039062 27.42623047 59.06039062 27.42623047 60.45703125 28.76171875 C65.38193045 33.56128369 69.7939676 38.44530524 73.69140625 44.1171875 C77.17517394 42.9559316 77.70650014 42.0795343 79.81640625 39.1796875 C83.81702631 33.87360195 88.16752932 28.98055258 92.69140625 24.1171875 C93.31660156 23.42625 93.94179688 22.7353125 94.5859375 22.0234375 C105.30566666 10.64924066 120.37130305 1.30900851 136.1640625 -0.21875 C155.93720821 -0.43390937 174.42404123 7.49833907 188.69140625 21.1171875 C205.81894319 37.90604433 216.45890523 58.4427695 223.69140625 81.1171875 C224.07167969 82.28894531 224.45195313 83.46070313 224.84375 84.66796875 C227.69245955 93.98808641 229.39480356 103.47165091 230.69140625 113.1171875 C230.83823853 114.19540771 230.83823853 114.19540771 230.98803711 115.29541016 C231.87065721 122.75791984 231.87752582 130.2352938 231.87670898 137.73876953 C231.87889533 139.98098762 231.89711436 142.22271217 231.91601562 144.46484375 C231.99878855 165.72618463 227.27544872 186.28155748 212.03125 201.96875 C199.56565588 213.41462106 187.44536037 215.92719966 170.92578125 215.4375 C164.8841889 215.13864543 159.36269805 214.27474416 153.69140625 212.1171875 C152.86125 211.81167969 152.03109375 211.50617188 151.17578125 211.19140625 C143.39017103 207.82498674 137.58598346 202.04380046 131.69140625 196.1171875 C130.84578125 195.2715625 130.00015625 194.4259375 129.12890625 193.5546875 C109.79618365 173.23054323 96.62219577 147.12778217 82.58172607 123.05683899 C78.67947149 116.37339564 74.70337133 109.73521536 70.69140625 103.1171875 C68.32842082 105.94398205 66.29079882 108.48873643 64.94140625 111.9296875 C64.32265625 113.5075 64.32265625 113.5075 63.69140625 115.1171875 C63.03140625 115.1171875 62.37140625 115.1171875 61.69140625 115.1171875 C61.44519531 115.95894531 61.19898438 116.80070312 60.9453125 117.66796875 C59.54666157 121.5153481 57.71847075 124.80214379 55.62890625 128.3046875 C52.80269704 133.03609552 52.80269704 133.03609552 50.69140625 138.1171875 C50.03140625 138.1171875 49.37140625 138.1171875 48.69140625 138.1171875 C48.42134766 139.00148438 48.15128906 139.88578125 47.87304688 140.796875 C46.76566952 143.90851385 45.4951896 146.42869867 43.78515625 149.2421875 C43.21104004 150.18940674 42.63692383 151.13662598 42.04541016 152.11254883 C41.43358887 153.10407959 40.82176758 154.09561035 40.19140625 155.1171875 C39.56282715 156.14158936 38.93424805 157.16599121 38.28662109 158.22143555 C31.14131423 169.76630619 23.38834199 180.68086461 14.69140625 191.1171875 C14.08039063 191.87515625 13.469375 192.633125 12.83984375 193.4140625 C3.57584241 204.46986657 -8.70006845 213.35795541 -23.30859375 215.1171875 C-35.8287111 215.95291322 -47.03793377 216.17616641 -58.30859375 210.1171875 C-59.65630859 209.43076172 -59.65630859 209.43076172 -61.03125 208.73046875 C-75.57554708 200.72342737 -83.40536217 187.30601683 -88.30078125 171.91796875 C-88.63335937 170.66371094 -88.9659375 169.40945313 -89.30859375 168.1171875 C-89.49550781 167.41916016 -89.68242187 166.72113281 -89.875 166.00195312 C-91.58505065 158.75546188 -91.6131006 151.54217215 -91.56933594 144.14257812 C-91.55871585 142.01662981 -91.56923043 139.89154604 -91.58203125 137.765625 C-91.62344466 97.14024325 -78.94275058 53.15628893 -49.953125 23.63671875 C-35.8536903 9.78779164 -20.00075657 1.01526683 0 0 Z " fill="#406CAF" transform="translate(336.30859375,238.8828125)"/>
<path d="M0 0 C0.98898991 -0.00177501 1.97797982 -0.00355002 2.99693913 -0.00537882 C6.33183207 -0.0101335 9.66668203 -0.00774224 13.00157702 -0.00541991 C15.41861443 -0.00737232 17.83565152 -0.00976096 20.25268811 -0.01254788 C25.53521471 -0.01762005 30.81772896 -0.01956482 36.10025696 -0.01879714 C44.00855629 -0.01766216 51.91684525 -0.0222414 59.82514225 -0.02792798 C73.302518 -0.03744256 86.77989168 -0.04214753 100.25727046 -0.04423732 C113.91957596 -0.04636508 127.58187825 -0.0506232 141.24418223 -0.05748004 C142.53754327 -0.05812596 142.53754327 -0.05812596 143.85703282 -0.05878493 C147.36870133 -0.06054326 150.88036984 -0.0623129 154.39203833 -0.06409795 C196.97653109 -0.08570228 239.56102448 -0.09657735 282.14552147 -0.10557419 C295.95385905 -0.10850778 309.76219647 -0.11187762 323.57053387 -0.1155414 C324.54455603 -0.11579969 325.51857818 -0.11605798 326.52211616 -0.1163241 C330.46261065 -0.11737031 334.40310514 -0.11841874 338.34359963 -0.11946992 C405.74736904 -0.13743498 473.15113871 -0.15281433 540.55491018 -0.16022895 C545.84988208 -0.16081292 551.14485397 -0.16141019 556.43982587 -0.16200657 C557.49018488 -0.16212469 558.54054389 -0.16224281 559.62273196 -0.16236451 C570.2644237 -0.1635619 580.90611545 -0.16477066 591.54780719 -0.16599704 C593.68150487 -0.16624227 595.81520256 -0.16648613 597.94890025 -0.16672861 C666.47719387 -0.17451854 735.00547038 -0.19690217 803.53375652 -0.22940504 C852.7697398 -0.25274973 902.00571968 -0.27430196 951.2417084 -0.28141135 C952.25421117 -0.28155837 953.26671394 -0.28170539 954.30989862 -0.28185687 C976.53667528 -0.28504166 998.7634519 -0.28709257 1020.99022876 -0.28808442 C1029.93337246 -0.28849916 1038.87651614 -0.28905406 1047.81965983 -0.28964633 C1049.28782115 -0.28973733 1049.28782115 -0.28973733 1050.7856423 -0.28983017 C1082.31729696 -0.29184637 1113.8489314 -0.30608633 1145.38057901 -0.32659133 C1177.14076062 -0.3471717 1208.90091888 -0.35506667 1240.66110649 -0.34551357 C1245.05053086 -0.34419512 1249.43995525 -0.34301707 1253.82937968 -0.34192294 C1255.12004474 -0.34159317 1255.12004474 -0.34159317 1256.43678384 -0.34125673 C1270.05773521 -0.33814318 1283.67864188 -0.34846592 1297.29958289 -0.36439849 C1310.69537702 -0.37978875 1324.09110935 -0.38089689 1337.48690563 -0.36685025 C1345.33872723 -0.35904466 1353.19035994 -0.36214026 1361.04216264 -0.38148742 C1366.87536042 -0.39463401 1372.70840966 -0.38684795 1378.54160479 -0.37100006 C1380.88385837 -0.367854 1383.22613308 -0.37139028 1385.56836245 -0.38249181 C1406.54255095 -0.47541629 1423.86794413 1.46491085 1440.00628626 16.25380117 C1451.91848981 28.99963958 1455.67122403 43.51358493 1455.57130969 60.6128481 C1455.57785017 62.58082873 1455.57785017 62.58082873 1455.58452278 64.58856654 C1455.59614103 68.21236228 1455.58924913 71.83591631 1455.57918893 75.45970785 C1455.57155018 79.40892682 1455.58136987 83.35810992 1455.58891892 87.30732375 C1455.59973713 94.22297503 1455.59943568 101.138556 1455.59177744 108.05421048 C1455.5804203 118.33810064 1455.58623625 128.6219316 1455.59540237 138.90582137 C1455.61119469 157.27384438 1455.60983236 175.64183607 1455.60116563 194.00986205 C1455.59361847 210.08404242 1455.59164909 226.15821131 1455.59523356 242.23239309 C1455.59546271 243.29870008 1455.59569187 244.36500708 1455.59592797 245.4636264 C1455.59686199 249.79213212 1455.59781719 254.12063783 1455.59880726 258.44914354 C1455.60798392 299.05246592 1455.59966441 339.65576836 1455.58351657 380.25908766 C1455.5692798 416.33139217 1455.57055368 452.4036649 1455.58489954 488.47596914 C1455.60096401 529.00510932 1455.60733311 569.53423189 1455.59806275 610.06337482 C1455.5971006 614.38398629 1455.59616208 618.70459777 1455.59523356 623.02520925 C1455.59487771 624.62097216 1455.59487771 624.62097216 1455.59451467 626.2489727 C1455.59110249 642.31290901 1455.59509265 658.37683257 1455.60267222 674.44076711 C1455.61124771 692.70647566 1455.60911035 710.972148 1455.59282999 729.23785204 C1455.58401935 739.46007149 1455.58344866 749.68221253 1455.59476851 759.90442994 C1455.60149644 766.73317161 1455.59730755 773.56185042 1455.5842542 780.39058277 C1455.5771205 784.28083484 1455.57467222 788.17093117 1455.58547215 792.06117833 C1455.59699828 796.25583294 1455.58525038 800.45010704 1455.57130969 804.64475423 C1455.57833318 805.84675023 1455.58535668 807.04874623 1455.59259301 808.28716636 C1455.48700593 824.16001283 1450.54976588 839.58106026 1439.34613001 851.17176992 C1421.54305436 867.35932146 1401.35772005 867.42997044 1378.66242373 867.38327676 C1376.25227344 867.38566818 1373.8421239 867.38893438 1371.43197584 867.39299336 C1366.1863211 867.39981391 1360.9407033 867.40045044 1355.69504793 867.39560387 C1347.84207584 867.38838425 1339.98913864 867.39273594 1332.13616747 867.39928522 C1318.75036941 867.41010836 1305.36458542 867.4114446 1291.9787842 867.40758687 C1278.41617117 867.40370942 1264.85356863 867.40416753 1251.29095614 867.40989667 C1250.00537731 867.41043491 1250.00537731 867.41043491 1248.69382719 867.41098402 C1245.20310571 867.41245895 1241.71238425 867.41396335 1238.22166281 867.41550549 C1202.79418088 867.43113817 1167.36670616 867.43381971 1131.9392214 867.43134943 C1127.04461612 867.43101098 1122.15001083 867.43068888 1117.25540555 867.43038374 C1116.28321458 867.4303227 1115.31102362 867.43026165 1114.30937233 867.43019876 C1092.76284791 867.42892679 1071.21632447 867.43152838 1049.66980035 867.43490981 C1044.74976906 867.43568055 1039.82973776 867.43642528 1034.90970647 867.43717482 C1032.93509767 867.43747652 1030.96048887 867.4377784 1028.98588007 867.43808047 C1028.00710161 867.43823015 1027.02832315 867.43837983 1026.01988474 867.43853404 C1024.04008779 867.43883757 1022.06029084 867.43914225 1020.08049389 867.43944809 C963.9047296 867.44812117 907.72896619 867.45276494 851.55320132 867.44850045 C850.51300044 867.4484224 849.47279955 867.44834434 848.40107743 867.44826392 C836.80173215 867.44739112 825.20238688 867.44646186 813.6030416 867.44551329 C812.55579123 867.44542778 811.50854086 867.44534227 810.42955562 867.44525417 C801.72774103 867.44454337 801.72774103 867.44454337 797.72406339 867.44421194 C730.73154372 867.43867559 663.73903782 867.44621993 596.74652064 867.46498281 C579.8650999 867.469705 562.98367915 867.4743855 546.10225832 867.47881967 C544.5430868 867.47922965 544.5430868 867.47922965 542.95241686 867.47964792 C510.91862248 867.48801854 478.88482926 867.49269881 446.85103381 867.49352723 C445.3425692 867.49356678 445.3425692 867.49356678 443.80363056 867.49360713 C421.72803497 867.4941479 399.65243947 867.49377549 377.57684391 867.49256742 C369.67798746 867.49214179 361.77913101 867.49177667 353.88027455 867.49143798 C351.91523758 867.49135267 349.95020061 867.49126374 347.98516363 867.49117116 C316.67037483 867.48972222 285.3555954 867.49684965 254.04080885 867.50817512 C221.62778005 867.51982189 189.21476798 867.5203924 156.80173911 867.50833169 C153.32096559 867.50707986 149.84019206 867.50587637 146.35941851 867.50471097 C145.07805626 867.50427553 145.07805626 867.50427553 143.7708079 867.50383129 C130.245675 867.49950622 116.72056585 867.50523617 103.19543668 867.51515117 C89.89559215 867.52468929 76.59578428 867.52351206 63.29594188 867.51094494 C55.49955597 867.50389696 47.70327549 867.50501826 39.9068971 867.51829332 C34.1165216 867.5272333 28.32624824 867.52049968 22.53588387 867.50770375 C20.20967835 867.50497661 17.8834601 867.50726572 15.55726655 867.51521089 C-6.4910614 867.58537393 -25.66927445 865.81963487 -42.55621374 849.94130117 C-59.11574649 832.34494614 -58.40474757 811.09360314 -58.32008395 788.43845278 C-58.3098604 784.50740716 -58.32300692 780.57642403 -58.33305728 776.64538747 C-58.34745386 769.76772801 -58.34709685 762.89019432 -58.33686864 756.01252919 C-58.32170019 745.78499305 -58.3294936 735.55756243 -58.34170187 725.33002692 C-58.36273854 707.06066378 -58.36094976 688.79135666 -58.34938622 670.52198821 C-58.33931658 654.53398627 -58.33670065 638.54600485 -58.3414768 622.55800039 C-58.34178234 621.49670789 -58.34208788 620.43541539 -58.34240268 619.34196252 C-58.34364807 615.03362786 -58.34492167 610.72529321 -58.34624173 606.41695857 C-58.3584726 566.01690035 -58.34739203 525.61687778 -58.32585414 485.21682507 C-58.3068723 449.33850634 -58.30857083 413.4602444 -58.32769811 377.58192617 C-58.34912531 337.25487568 -58.35760512 296.92785668 -58.34524906 256.60080129 C-58.34396622 252.30040152 -58.34271486 248.00000173 -58.3414768 243.69960195 C-58.34116049 242.64076515 -58.34084418 241.58192836 -58.34051828 240.4910056 C-58.33597198 224.51463063 -58.34128282 208.53827845 -58.35139501 192.56190664 C-58.36283798 174.39265097 -58.35996006 156.22346001 -58.33827204 138.05421239 C-58.32653961 127.89055881 -58.32574174 117.7270454 -58.34085673 107.5633955 C-58.34984553 100.76872373 -58.34420935 93.97416401 -58.32683766 87.17950881 C-58.31735116 83.31203595 -58.31400865 79.44484095 -58.32846159 75.57737714 C-58.46151331 37.07446365 -58.46151331 37.07446365 -46.80621374 22.12880117 C-46.1475028 21.26641835 -45.48879186 20.40403554 -44.81011999 19.51551992 C-33.07100607 5.32088493 -17.83737452 -0.03962963 0 0 Z M-40.89215124 26.62098867 C-46.92798787 34.79610916 -49.92715467 43.4912338 -49.9350149 53.6720975 C-49.9382871 54.78373429 -49.94155929 55.89537107 -49.94493064 57.04069382 C-49.94344702 58.25918872 -49.9419634 59.47768363 -49.94043481 60.73310262 C-49.94278704 62.03502482 -49.94513927 63.33694703 -49.94756278 64.67832142 C-49.95396598 68.30645478 -49.95412415 71.934566 -49.95328537 75.56270393 C-49.95345481 79.50454409 -49.95936024 83.4463763 -49.96452624 87.3882125 C-49.97385734 95.21290153 -49.97777514 103.03758491 -49.9800452 110.86227881 C-49.98300594 120.23215148 -49.99170259 129.60201664 -50.00045948 138.97188538 C-50.02131003 161.62063902 -50.03177458 184.26939397 -50.04058909 206.91815497 C-50.04479467 217.6309615 -50.05001678 228.34376747 -50.05527362 239.05657352 C-50.07316421 275.72188092 -50.08816066 312.38718848 -50.09559381 349.05249959 C-50.09606857 351.35463571 -50.09654446 353.65677182 -50.09702147 355.95890793 C-50.09725785 357.10056916 -50.09749422 358.24223039 -50.09773776 359.41848742 C-50.09893897 365.20278471 -50.10015442 370.987082 -50.10137975 376.77137929 C-50.1016199 377.91929387 -50.10186005 379.06720844 -50.10210748 380.24990831 C-50.11000125 417.47203444 -50.13343448 454.69412873 -50.1659357 491.91624095 C-50.20022858 531.26203743 -50.21994444 570.60781526 -50.22323805 609.95362693 C-50.2236556 614.27239941 -50.22413516 618.59117188 -50.22466123 622.90994436 C-50.22478442 623.97336122 -50.22490761 625.03677809 -50.22503454 626.13241972 C-50.22736722 643.25061167 -50.24303096 660.36876663 -50.26350308 677.4869454 C-50.28375254 694.69183801 -50.28924253 711.89668617 -50.27973244 729.10158849 C-50.2745141 739.3235914 -50.28041074 749.5454464 -50.30226711 759.76742804 C-50.31576771 766.59753974 -50.31470474 773.42754954 -50.30186516 780.25766224 C-50.29496363 784.1480437 -50.29431546 788.03814223 -50.31142525 791.92849851 C-50.32973131 796.1251375 -50.31690117 800.32112118 -50.30119836 804.51777059 C-50.31142057 805.71753616 -50.32164278 806.91730174 -50.33217475 808.15342385 C-50.21558723 822.42409167 -45.5934739 835.63631781 -35.88433874 846.21083242 C-24.88363117 856.36374109 -12.53747468 859.29064533 1.98536658 859.25645167 C2.97277014 859.25810245 3.96017369 859.25975322 4.97749856 859.26145403 C8.30697938 859.26578946 11.63641619 859.26297441 14.96589816 859.26022893 C17.37902972 859.26187807 19.79216102 859.26396411 22.20529187 859.26644903 C27.47923448 859.27086188 32.75316433 859.27214692 38.02710761 859.27072069 C45.92249599 859.26860125 53.81787464 859.27221051 61.71326152 859.27693546 C75.16850026 859.28481335 88.62373636 859.28789774 102.07897723 859.2883814 C115.71870328 859.28888351 129.35842635 859.29152756 142.99815142 859.29678899 C143.85896422 859.29711912 144.71977701 859.29744926 145.60667504 859.2977894 C149.11251949 859.29913937 152.61836393 859.30050203 156.12420836 859.3018815 C197.64812433 859.3181912 239.17203974 859.32457092 280.69595837 859.32932937 C301.3683449 859.33171174 322.04073111 859.33541504 342.7131174 859.33936647 C409.00697369 859.35203124 475.30082997 859.36281537 541.59468746 859.36620693 C544.76370649 859.36636917 547.93272553 859.36653473 551.10174456 859.36670131 C557.45737062 859.36703511 563.81299668 859.36736559 570.16862273 859.36769587 C577.60967879 859.36808277 585.05073485 859.36847238 592.49179092 859.36886693 C594.62148968 859.36897935 596.75118845 859.36909077 598.88088722 859.36920119 C667.29132176 859.37275124 735.70174579 859.38783204 804.11217632 859.41113893 C853.26399723 859.42787778 902.41581616 859.44335441 951.56763995 859.44787389 C953.08349362 859.44801412 953.08349362 859.44801412 954.62997059 859.44815718 C976.81320542 859.45017611 998.99644022 859.45133225 1021.17967513 859.45168577 C1029.1170553 859.45182194 1037.05443547 859.45203094 1044.99181563 859.45227902 C1046.96648121 859.45234058 1048.94114678 859.4523989 1050.91581236 859.45245397 C1082.39556646 859.4533742 1113.87530962 859.46334742 1145.35506012 859.47791146 C1177.05761282 859.4925199 1208.76015208 859.49757395 1240.46270755 859.48949191 C1244.84214326 859.48837651 1249.22157899 859.48736586 1253.60101473 859.48641759 C1254.45951535 859.48622762 1255.31801596 859.48603766 1256.20253175 859.48584193 C1269.8038411 859.48310677 1283.40512561 859.49045509 1297.00642956 859.50199096 C1310.37622266 859.51312119 1323.74598059 859.5135736 1337.11577423 859.50262077 C1344.95671523 859.49651854 1352.7975502 859.49863448 1360.63848123 859.51287275 C1366.45654406 859.52252243 1372.27452227 859.51655455 1378.0925829 859.50446242 C1380.43396173 859.50202251 1382.77535254 859.50463316 1385.1167182 859.5128589 C1404.19298795 859.5754835 1420.3664861 858.39519189 1434.86566126 844.64833242 C1445.02079734 833.65829421 1447.65517542 822.43212792 1447.574103 807.82838041 C1447.57876292 806.51194752 1447.58342284 805.19551462 1447.58822396 803.83918983 C1447.60069892 800.19360524 1447.59459938 796.54825555 1447.58539029 792.90267004 C1447.57866986 788.93330151 1447.58935193 784.96397287 1447.59778613 780.99461287 C1447.61015343 774.0404889 1447.61136519 767.08643241 1447.6052357 760.13230115 C1447.59614519 749.79116477 1447.60417622 739.45009078 1447.61552694 729.10895918 C1447.63519934 710.63914573 1447.63754016 692.16936033 1447.63233174 673.6995389 C1447.62777564 657.53510068 1447.6283724 641.37067357 1447.63417208 625.20623571 C1447.63492895 623.03847269 1447.63568493 620.87070967 1447.63644003 618.70294666 C1447.63758521 615.43637549 1447.63873509 612.16980433 1447.63989927 608.90323318 C1447.65060529 578.53111343 1447.65532846 548.15899738 1447.64742911 517.7868765 C1447.64713194 516.64182258 1447.64683476 515.49676866 1447.64652858 514.31701613 C1447.64407961 505.01820254 1447.64146805 495.71938899 1447.63884445 486.42057544 C1447.62874158 450.147193 1447.63709777 413.87385684 1447.660339 377.60048085 C1447.68640598 336.85088083 1447.69926105 296.10130868 1447.69215125 255.35170001 C1447.69143518 251.00746606 1447.69076079 246.66323211 1447.6901108 242.31899816 C1447.68985609 240.71449684 1447.68985609 240.71449684 1447.68959623 239.07758136 C1447.68729243 222.92462683 1447.69527409 206.77169817 1447.70840228 190.61874944 C1447.72330426 172.25051148 1447.72416908 153.88233417 1447.70633136 135.51409753 C1447.69675946 125.23409846 1447.69822142 114.95424079 1447.71556605 104.67425112 C1447.72604404 97.80692448 1447.72197134 90.9397057 1447.70608602 84.0723897 C1447.6974425 80.1600296 1447.69505804 76.24794686 1447.71035533 72.33560087 C1447.72669375 68.11714479 1447.71198848 63.89935492 1447.69435751 59.68090421 C1447.70400803 58.47191913 1447.71365854 57.26293405 1447.72360149 56.01731306 C1447.60766539 42.52841003 1443.16105198 30.99594856 1434.19769251 20.87489492 C1424.30601215 11.30991225 1412.82648349 7.96997561 1399.4792189 8.00115067 C1398.48798398 7.99949989 1397.49674906 7.99784911 1396.47547672 7.99614831 C1393.12690832 7.99180652 1389.77838354 7.9946299 1386.42981398 7.9973734 C1384.00530468 7.99572456 1381.58079564 7.99363866 1379.15628704 7.9911533 C1373.85428961 7.98673789 1368.55230487 7.9854562 1363.25030676 7.98688164 C1355.31293327 7.98899992 1347.37556947 7.98539348 1339.43819747 7.98066687 C1325.9118836 7.97278659 1312.38557237 7.96970448 1298.85925639 7.96922094 C1285.14654692 7.96871892 1271.43384041 7.96607578 1257.72113192 7.96081334 C1256.85587727 7.96048321 1255.99062262 7.96015308 1255.09914814 7.95981294 C1251.57524498 7.95846298 1248.05134183 7.95710031 1244.52743869 7.95572083 C1202.78423595 7.93940891 1161.04103377 7.93303115 1119.29782839 7.92827296 C1098.51742308 7.92589084 1077.73701809 7.9221876 1056.95661303 7.91823587 C990.3210164 7.90557096 923.68541979 7.89478679 857.04982197 7.89139541 C853.86429978 7.89123317 850.67877758 7.89106761 847.49325539 7.89090102 C841.10449933 7.89056722 834.71574327 7.89023674 828.32698721 7.88990647 C820.84709517 7.88951956 813.36720312 7.88912996 805.88731108 7.8887354 C803.74649465 7.88862298 801.60567821 7.88851156 799.46486177 7.88840115 C730.69432499 7.88485094 661.92379865 7.86976957 593.15326585 7.8464634 C543.74434705 7.82972562 494.33543022 7.81424837 444.92650855 7.80972844 C443.40287629 7.80958821 443.40287629 7.80958821 441.84846358 7.80944515 C419.55191222 7.80742627 397.25536089 7.80627009 374.95880944 7.80591657 C366.98098625 7.80578039 359.00316306 7.80557139 351.02533987 7.80532332 C349.04059905 7.80526175 347.05585823 7.80520343 345.07111741 7.80514837 C313.42475133 7.80422796 281.77839613 7.79425266 250.13203363 7.77969088 C218.26380145 7.76508565 186.39558263 7.76002638 154.52734769 7.76811042 C150.12604712 7.76922584 145.72474653 7.77023649 141.32344592 7.77118474 C140.46065052 7.77137471 139.59785512 7.77156468 138.70891441 7.7717604 C125.03376635 7.77449668 111.35864298 7.76714366 97.68350029 7.75561137 C84.2445627 7.74448733 70.8056601 7.74402251 57.36672198 7.75498156 C49.48293041 7.76108888 41.59924425 7.7589544 33.71546256 7.74472959 C27.86925511 7.735094 22.02313204 7.74103457 16.1769268 7.75313991 C13.82151868 7.75558356 11.4660987 7.75295616 9.11070363 7.74474344 C5.91864421 7.73434163 2.72713878 7.74239716 -0.46490055 7.75505501 C-1.37536076 7.74764651 -2.28582097 7.74023802 -3.22387089 7.73260502 C-18.73199049 7.86197692 -31.04713539 14.85859146 -40.89215124 26.62098867 Z " fill="#27333A" transform="translate(79.80621373653412,16.87119883298874)"/>
<path d="M0 0 C13.2 0 26.4 0 40 0 C46.75146085 11.25243475 46.75146085 11.25243475 49.3046875 15.86328125 C49.87952881 16.89952637 50.45437012 17.93577148 51.04663086 19.00341797 C51.64999268 20.09541504 52.25335449 21.18741211 52.875 22.3125 C53.52925336 23.49372153 54.18363479 24.67487213 54.83813477 25.85595703 C56.89484062 29.56911971 58.94774301 33.28437707 61 37 C61.33122864 37.59951477 61.66245728 38.19902954 62.00372314 38.81671143 C67.34559358 48.48540825 72.67853428 58.15902232 78.01037598 67.83325195 C80.02734151 71.49279521 82.0447293 75.1521052 84.06253052 78.81118774 C85.05376375 80.6091536 86.04435566 82.40747176 87.03491211 84.20581055 C90.44897463 90.4003573 93.88158664 96.58391392 97.33984375 102.75390625 C98.04491164 104.01412035 98.74990952 105.27437363 99.45483398 106.53466797 C100.7921964 108.92563429 102.13494879 111.31346187 103.48071289 113.69970703 C104.07489014 114.7617334 104.66906738 115.82375977 105.28125 116.91796875 C105.80783203 117.85406982 106.33441406 118.7901709 106.87695312 119.75463867 C108 122 108 122 108 124 C110.78355495 121.52757886 112.34377619 118.82765718 114.1015625 115.5625 C114.67390625 114.50289063 115.24625 113.44328125 115.8359375 112.3515625 C116.42632813 111.24554688 117.01671875 110.13953125 117.625 109 C118.223125 107.89398438 118.82125 106.78796875 119.4375 105.6484375 C122.5610892 99.97548577 122.5610892 99.97548577 125 94 C125.66 94 126.32 94 127 94 C127.25974609 93.14027588 127.51949219 92.28055176 127.78710938 91.39477539 C129.03458714 87.9031936 130.57931056 84.90724688 132.40625 81.68359375 C132.73161743 81.10464859 133.05698486 80.52570343 133.39221191 79.92921448 C134.42326092 78.09583835 135.46105038 76.26640876 136.5 74.4375 C137.53819136 72.60461684 138.57479193 70.77089037 139.60778809 68.93507385 C140.54417363 67.27166208 141.48580915 65.61120888 142.42773438 63.95092773 C143.81879843 61.34009059 144.96875012 58.76908505 146 56 C146.66 56 147.32 56 148 56 C148.25974609 55.14027588 148.51949219 54.28055176 148.78710938 53.39477539 C150.03458714 49.9031936 151.57931056 46.90724688 153.40625 43.68359375 C153.73161743 43.10464859 154.05698486 42.52570343 154.39221191 41.92921448 C155.42326092 40.09583835 156.46105038 38.26640876 157.5 36.4375 C158.53819136 34.60461684 159.57479193 32.77089037 160.60778809 30.93507385 C161.54417363 29.27166208 162.48580915 27.61120888 163.42773438 25.95092773 C164.81879843 23.34009059 165.96875012 20.76908505 167 18 C167.66 18 168.32 18 169 18 C169.66 16.02 170.32 14.04 171 12 C173.31 8.04 175.62 4.08 178 0 C190.87 0 203.74 0 217 0 C217 67.65 217 135.3 217 205 C206.44 205 195.88 205 185 205 C184.67 153.52 184.34 102.04 184 49 C178.72 58.57 173.44 68.14 168 78 C163.6254055 85.88150084 159.24934861 93.76209502 154.86767578 101.63964844 C152.97067513 105.05276177 151.0767217 108.46754978 149.18359375 111.8828125 C143.02966204 122.98174158 136.85755413 134.06998757 130.625 145.125 C130.07118652 146.10952148 129.51737305 147.09404297 128.94677734 148.10839844 C128.44098145 149.00333008 127.93518555 149.89826172 127.4140625 150.8203125 C126.9701416 151.60680176 126.5262207 152.39329102 126.06884766 153.20361328 C125 155 125 155 124 156 C99.16711986 159.39879887 99.16711986 159.39879887 90.8125 154.79443359 C87.31399503 151.22118378 85.84205149 146.55139589 84.17382812 141.92333984 C82.07131961 136.68718408 79.15324762 131.86908334 76.36199951 126.9770813 C74.59106613 123.85186537 72.87233106 120.69820164 71.1484375 117.546875 C67.26823084 110.47649813 63.35773863 103.42326989 59.4375 96.375 C58.83172119 95.28574219 58.22594238 94.19648438 57.60180664 93.07421875 C56.37180427 90.86259713 55.1417421 88.65100876 53.91162109 86.43945312 C51.88275642 82.7890514 49.8570713 79.13689906 47.83203125 75.484375 C46.80354174 73.63011136 45.77497205 71.77589222 44.74636841 69.92169189 C43.77492745 68.16995019 42.80432279 66.4177448 41.83374023 64.66552734 C41.24407471 63.60285645 40.65440918 62.54018555 40.046875 61.4453125 C39.52963867 60.51219238 39.01240234 59.57907227 38.47949219 58.61767578 C37.03008179 56.05322392 35.51555498 53.52592497 34 51 C33.67 101.82 33.34 152.64 33 205 C22.11 205 11.22 205 0 205 C0 137.35 0 69.7 0 0 Z " fill="#1F2B32" transform="translate(637,246)"/>
<path d="M0 0 C3.31075707 2.70450667 6.45899302 5.544796 9.31445312 8.73242188 C9.31445312 9.39242188 9.31445312 10.05242187 9.31445312 10.73242188 C9.97445313 10.73242188 10.63445312 10.73242188 11.31445312 10.73242188 C11.31445312 4.46242188 11.31445312 -1.80757813 11.31445312 -8.26757812 C21.54445313 -8.26757812 31.77445313 -8.26757812 42.31445312 -8.26757812 C42.31445312 42.22242188 42.31445312 92.71242188 42.31445312 144.73242188 C32.08445312 144.73242188 21.85445312 144.73242188 11.31445312 144.73242188 C10.98445313 138.13242187 10.65445312 131.53242188 10.31445312 124.73242188 C9.20070313 126.07304687 8.08695313 127.41367187 6.93945312 128.79492188 C-2.47562505 139.31668467 -15.90708103 146.66668386 -30.12744141 147.95336914 C-52.1882348 148.93306306 -68.23643955 144.6599996 -85.12304688 130.29492188 C-100.13158549 116.09699173 -108.29265997 94.62469585 -108.98632812 74.15429688 C-109.00558064 72.26376587 -109.00915572 70.37301827 -108.99804688 68.48242188 C-108.99313232 67.48025635 -108.98821777 66.47809082 -108.9831543 65.44555664 C-108.61729979 42.10403908 -100.30919001 22.1892726 -83.68554688 5.73242188 C-61.72427463 -14.83331802 -24.580532 -18.48524365 0 0 Z " fill="#1F2B32" transform="translate(1270.685546875,306.267578125)"/>
<path d="M0 0 C18.87492149 15.35548161 26.9291694 37.02542792 29.38525391 60.76757812 C29.38525391 66.70757812 29.38525391 72.64757812 29.38525391 78.76757812 C-7.57474609 78.76757812 -44.53474609 78.76757812 -82.61474609 78.76757812 C-78.94192839 92.23457636 -74.96716438 104.30874274 -62.80224609 112.01757812 C-49.13180667 119.70335741 -34.70382653 120.17229371 -19.61474609 116.76757812 C-9.07614315 113.77300243 -0.35370173 108.2268062 8.38525391 101.76757812 C10.13610724 103.82935886 11.88595772 105.89197689 13.63525391 107.95507812 C14.12638672 108.53322266 14.61751953 109.11136719 15.12353516 109.70703125 C16.54937519 111.38952249 17.96824964 113.07764298 19.38525391 114.76757812 C20.55314453 116.15396484 20.55314453 116.15396484 21.74462891 117.56835938 C23.38525391 119.76757812 23.38525391 119.76757812 23.38525391 121.76757812 C24.04525391 121.76757812 24.70525391 121.76757812 25.38525391 121.76757812 C24.0581022 125.74903323 21.50324165 127.20070092 18.19775391 129.51757812 C17.5698999 129.95859863 16.9420459 130.39961914 16.29516602 130.85400391 C5.42316934 138.31722608 -5.75030527 142.99814989 -18.61474609 145.76757812 C-19.94699219 146.05761719 -19.94699219 146.05761719 -21.30615234 146.35351562 C-46.24039743 149.47397605 -69.00531466 145.39048334 -89.08740234 129.95898438 C-104.37407961 116.70423021 -113.60689064 98.9732121 -115.61474609 78.76757812 C-116.54685074 64.87478031 -116.06362315 52.01142995 -111.61474609 38.76757812 C-111.27572266 37.66671875 -110.93669922 36.56585938 -110.58740234 35.43164062 C-104.1218877 16.42624883 -91.02047494 3.00670206 -73.51513672 -6.30908203 C-51.10600293 -17.19697309 -19.85891344 -15.15690884 0 0 Z " fill="#202C33" transform="translate(999.61474609375,307.232421875)"/>
<path d="M0 0 C22.339591 17.28696658 31.06031021 45.95290287 36.4375 72.5 C36.685 73.68980469 36.9325 74.87960937 37.1875 76.10546875 C38.68092378 84.95193047 38.64150811 93.86458189 38.6875 102.8125 C38.7016394 104.7450061 38.7016394 104.7450061 38.71606445 106.71655273 C38.6774998 117.95778521 38.21574143 130.79729481 30.0625 139.375 C25.24565962 144.10386156 20.63350858 144.8081973 14 144.875 C12.72253906 144.90335938 11.44507813 144.93171875 10.12890625 144.9609375 C5.80572526 144.42111173 3.83907904 143.16698769 0.4375 140.5 C-0.39136719 139.90574219 -1.22023438 139.31148437 -2.07421875 138.69921875 C-5.28547107 135.86101615 -7.79150464 132.72076376 -10.375 129.3125 C-10.93413086 128.57620361 -11.49326172 127.83990723 -12.06933594 127.08129883 C-27.64741604 106.18006643 -40.62408312 83.14045332 -53.984375 60.77734375 C-54.50467285 59.90706543 -55.0249707 59.03678711 -55.56103516 58.14013672 C-56.5424432 56.49615856 -57.52139132 54.85070873 -58.49755859 53.20361328 C-60.69653838 49.51332679 -62.94341392 45.88730523 -65.3671875 42.33984375 C-65.80224609 41.69708496 -66.23730469 41.05432617 -66.68554688 40.39208984 C-67.84402827 38.69909851 -69.0264838 37.02257961 -70.2109375 35.34765625 C-71.5625 32.5 -71.5625 32.5 -71.12890625 30.09765625 C-61.95786633 14.88882447 -49.95632374 0.05970042 -33.25 -6.875 C-20.65209146 -9.01023874 -10.59403771 -7.13203099 0 0 Z " fill="#FEFEFE" transform="translate(498.5625,274.5)"/>
<path d="M0 0 C8.90002148 7.03796025 16.08928292 14.97473783 23.203125 23.7421875 C23.89535156 24.53367187 24.58757812 25.32515625 25.30078125 26.140625 C25.86667969 26.81351562 26.43257813 27.48640625 27.015625 28.1796875 C27.49644531 28.73527344 27.97726562 29.29085937 28.47265625 29.86328125 C29.66617253 32.93323488 28.48768234 34.80037028 27.203125 37.7421875 C25.93809807 39.90854611 24.60179409 42.03461036 23.203125 44.1171875 C22.15125 45.70660156 22.15125 45.70660156 21.078125 47.328125 C20.459375 48.12476563 19.840625 48.92140625 19.203125 49.7421875 C18.543125 49.7421875 17.883125 49.7421875 17.203125 49.7421875 C17.0803418 50.32742188 16.95755859 50.91265625 16.83105469 51.515625 C16.19535212 53.76974918 15.37973067 55.3791636 14.15625 57.3671875 C13.73013428 58.06352295 13.30401855 58.7598584 12.86499023 59.47729492 C12.39907471 60.22470947 11.93315918 60.97212402 11.453125 61.7421875 C10.967229 62.52891846 10.48133301 63.31564941 9.98071289 64.1262207 C4.20500418 73.42873014 -1.78061404 82.59417426 -7.796875 91.7421875 C-8.26013184 92.45068848 -8.72338867 93.15918945 -9.20068359 93.88916016 C-34.49629502 132.57273229 -34.49629502 132.57273229 -49.796875 136.7421875 C-56.41607478 137.36072923 -63.30319508 137.92784839 -68.796875 133.7421875 C-76.37041729 126.75509207 -80.37971793 117.96389558 -80.97387695 107.67797852 C-81.61812242 71.59766572 -76.03698857 31.98602126 -49.796875 4.7421875 C-35.36601612 -10.05723949 -17.01301002 -12.30077343 0 0 Z " fill="#FDFEFE" transform="translate(360.796875,282.2578125)"/>
<path d="M0 0 C10.56 0 21.12 0 32 0 C32 14.85 32 29.7 32 45 C47.18 45 62.36 45 78 45 C78 53.91 78 62.82 78 72 C62.82 72 47.64 72 32 72 C32.09096372 85.97476194 32.09096372 85.97476194 32.20898438 99.94921875 C32.26316499 105.6547595 32.31428031 111.36020503 32.34643555 117.06591797 C32.3725809 121.66967545 32.41306157 126.27311039 32.46318626 130.87666702 C32.47977939 132.62674551 32.49134044 134.3768797 32.49761391 136.1270256 C32.4342097 153.05235945 32.4342097 153.05235945 40.20703125 167.625 C49.83740074 175.0103814 66.76156461 171.82232454 78 171 C78 179.58 78 188.16 78 197 C62.73986354 203.10405458 43.62935308 202.83155646 28 198 C17.36161362 193.42813147 8.99749623 185.04068582 4.3162384 174.48693848 C-0.46211098 161.8282816 -0.41450477 148.60731689 -0.29296875 135.28125 C-0.28735655 133.44324087 -0.28309416 131.60522718 -0.28010559 129.76721191 C-0.26878446 124.98658318 -0.23943087 120.20623857 -0.20599365 115.42572021 C-0.17501425 110.52473796 -0.16154139 105.6237087 -0.14648438 100.72265625 C-0.11454566 91.14829414 -0.06188584 81.57421541 0 72 C-10.23 72 -20.46 72 -31 72 C-31 63.09 -31 54.18 -31 45 C-20.77 45 -10.54 45 0 45 C0 30.15 0 15.3 0 0 Z " fill="#212D34" transform="translate(1069,253)"/>
<path d="M0 0 C1.31049316 0.01135986 1.31049316 0.01135986 2.64746094 0.02294922 C13.47538912 0.29755606 22.08815461 3.14458294 30.1875 10.4375 C30.80367187 10.97375 31.41984375 11.51 32.0546875 12.0625 C37.93732231 17.5159297 42.28951952 23.61699957 42.8503418 31.79858398 C42.88962454 33.75989803 42.90050197 35.72193477 42.88671875 37.68359375 C42.89387405 38.73474869 42.90102936 39.78590363 42.90840149 40.86891174 C42.91614558 43.07999836 42.91123671 45.29116205 42.89428711 47.50219727 C42.87506876 50.86297561 42.91449277 54.21960968 42.95898438 57.58007812 C42.9592748 59.73958577 42.95613309 61.89909716 42.94921875 64.05859375 C42.97214241 65.54654701 42.97214241 65.54654701 42.99552917 67.06455994 C42.84445783 76.22607927 38.98587406 82.45329322 33 89.1875 C22.55319196 98.96552783 9.07709041 102.45371936 -4.85839844 102.50341797 C-16.06977632 102.12522306 -24.51623031 97.15613553 -32.0625 89.1875 C-41.72727016 77.67816138 -44.05633382 65.04094803 -44.1875 50.375 C-44.20143799 49.37001465 -44.21537598 48.3650293 -44.22973633 47.32958984 C-44.14200952 33.3776089 -39.62040134 20.53546866 -29.8125 10.4375 C-20.65973086 3.27867754 -11.57551813 -0.1413838 0 0 Z " fill="#FDFDFD" transform="translate(1238.8125,323.5625)"/>
<path d="M0 0 C52.87552854 0 52.87552854 0 62.41015625 9.22265625 C67.05165524 14.41155561 68.15415885 20.19645629 68 27 C66.89288817 33.59967632 63.84052882 38.44939868 59 43 C58.01 43.66 57.02 44.32 56 45 C56.59167969 45.36351562 57.18335938 45.72703125 57.79296875 46.1015625 C63.80118925 49.92408451 69.52810678 53.99630254 72 61 C73.62973271 68.87704145 72.89062598 76.1973993 68.8125 83.25 C64.32699696 89.74217546 58.73716364 94.16159702 51 96 C34.12803367 98.10899579 17.00326766 97 0 97 C0 64.99 0 32.98 0 0 Z " fill="#202B32" transform="translate(242,563)"/>
<path d="M0 0 C57 0 57 0 65 7 C71.11020376 13.39439928 73.97120222 20.21667661 74 29 C73.38110946 37.42229296 70.26337757 45.18581378 63.88671875 50.890625 C56.59763801 56.07732839 49.09127693 57.27911706 40.34375 57.4140625 C39.64411133 57.43170654 38.94447266 57.44935059 38.22363281 57.4675293 C35.64930768 57.52984742 33.07462343 57.57654785 30.5 57.625 C24.725 57.74875 18.95 57.8725 13 58 C12.67 70.87 12.34 83.74 12 97 C8.04 97 4.08 97 0 97 C0 64.99 0 32.98 0 0 Z " fill="#1F2B32" transform="translate(843,563)"/>
<path d="M0 0 C4.26092073 3.40126129 5.98622088 7.751305 7 13 C7.29106614 16.40411798 7.32415926 19.79567996 7.34375 23.2109375 C7.3583728 24.17850983 7.37299561 25.14608215 7.38806152 26.14297485 C7.43432133 29.22027505 7.4686463 32.29751408 7.5 35.375 C7.54140155 39.42470836 7.59517188 43.47398332 7.65625 47.5234375 C7.6615271 48.43934662 7.6668042 49.35525574 7.67224121 50.29891968 C7.76145181 56.13571728 8.55946604 61.3392191 10 67 C6.04 67 2.08 67 -2 67 C-2.99 64.36 -3.98 61.72 -5 59 C-5.556875 59.39832031 -6.11375 59.79664063 -6.6875 60.20703125 C-16.88256949 67.28502713 -24.39939533 69.00749632 -37 68 C-42.73400665 66.86026678 -46.97021261 64.12350337 -51 60 C-55.26483313 52.32330036 -54.26526094 46.0699921 -52 38 C-51.34 38 -50.68 38 -50 38 C-49.74734375 37.39414062 -49.4946875 36.78828125 -49.234375 36.1640625 C-47.82978933 33.70159269 -46.66042712 32.82312482 -44.25 31.375 C-43.59515625 30.97023438 -42.9403125 30.56546875 -42.265625 30.1484375 C-37.71943119 27.84398753 -33.06580406 26.72319724 -28.05078125 25.96484375 C-26.95572266 25.79533203 -25.86066406 25.62582031 -24.73242188 25.45117188 C-23.60384766 25.28166016 -22.47527344 25.11214844 -21.3125 24.9375 C-19.05824845 24.59471104 -16.80432439 24.24975944 -14.55078125 23.90234375 C-13.06058472 23.67792603 -13.06058472 23.67792603 -11.5402832 23.44897461 C-8.88887679 23.04423023 -8.88887679 23.04423023 -6 22 C-5.68693859 16.78230991 -6.02138164 13.36864026 -9 9 C-14.43875176 4.70624861 -21.41865213 5.4091558 -28 6 C-32.32115883 6.8971264 -34.58938539 8.48132891 -37.375 12 C-39.07120371 14.92396892 -39.07120371 14.92396892 -40 18 C-43.96 17.67 -47.92 17.34 -52 17 C-50.12295751 9.93348711 -47.73628101 4.72148269 -42 0 C-29.02812463 -7.00197953 -12.76891701 -7.67751339 0 0 Z " fill="#212D34" transform="translate(983,593)"/>
<path d="M0 0 C9.28675355 9.73976592 10.5625 19.19147463 10.5625 32.6875 C-6.5975 32.6875 -23.7575 32.6875 -41.4375 32.6875 C-39.05956659 44.06831566 -39.05956659 44.06831566 -32.4375 52.6875 C-26.43915022 56.18079183 -20.07381124 56.3182659 -13.4375 54.6875 C-9.0663571 52.62564014 -7.30009591 50.5892878 -5.125 46.4375 C-3.92578125 44.33203125 -3.92578125 44.33203125 -2.4375 42.6875 C1.79205591 41.63198251 5.48749771 42.3291659 9.5625 43.6875 C8.3097587 51.88071606 3.27867379 57.65697558 -3.21484375 62.49609375 C-8.72717021 65.45085574 -14.28609696 66.00820578 -20.4375 65.9375 C-21.11039063 65.94523438 -21.78328125 65.95296875 -22.4765625 65.9609375 C-32.548888 65.92204821 -38.94355307 62.01386855 -46.4375 55.6875 C-52.58145019 48.46835853 -53.92701982 39.89253065 -53.75 30.6875 C-53.75322266 29.84960938 -53.75644531 29.01171875 -53.75976562 28.1484375 C-53.66339012 16.82869632 -51.13098748 9.21235919 -43.4375 0.6875 C-30.76307728 -10.3778221 -13.37419848 -10.08208808 0 0 Z " fill="#222E35" transform="translate(635.4375,595.3125)"/>
<path d="M0 0 C8.71342049 -0.51035749 16.80904773 2.31055749 23.859375 7.46484375 C33.31058894 17.5911444 34.484375 26.55050412 34.484375 40.27734375 C17.324375 40.27734375 0.164375 40.27734375 -17.515625 40.27734375 C-15.13769159 51.65815941 -15.13769159 51.65815941 -8.515625 60.27734375 C-2.51727522 63.77063558 3.84806376 63.90810965 10.484375 62.27734375 C14.8555179 60.21548389 16.62177909 58.17913155 18.796875 54.02734375 C19.99609375 51.921875 19.99609375 51.921875 21.484375 50.27734375 C25.71393091 49.22182626 29.40937271 49.91900965 33.484375 51.27734375 C32.87173498 57.81217062 28.91908899 63.2101809 24.234375 67.58984375 C15.7060368 74.26340477 5.83121284 73.93003983 -4.515625 73.27734375 C-7.34557428 72.8168374 -9.79116356 72.18549756 -12.515625 71.27734375 C-12.515625 70.61734375 -12.515625 69.95734375 -12.515625 69.27734375 C-13.2375 69.05046875 -13.959375 68.82359375 -14.703125 68.58984375 C-18.07780781 67.01499177 -19.99592513 64.99596729 -22.515625 62.27734375 C-23.051875 61.82359375 -23.588125 61.36984375 -24.140625 60.90234375 C-31.32926227 52.40668152 -30.3566835 38.68462343 -29.515625 28.27734375 C-27.25622329 17.17934988 -22.57099642 10.39773346 -13.3125 3.98046875 C-8.78964897 1.22633041 -5.17089226 0.57008284 0 0 Z " fill="#222E35" transform="translate(1199.515625,587.72265625)"/>
<path d="M0 0 C8.25711866 8.36946041 10.86024685 18.6024685 12 30 C-14.73 30 -41.46 30 -69 30 C-65.31452986 15.25811944 -61.09262135 3.77133852 -47.875 -4.4375 C-32.30897952 -13.02728569 -13.73037894 -11.39439765 0 0 Z " fill="#FCFCFC" transform="translate(985,332)"/>
<path d="M0 0 C3.92114717 4.2152332 5.5 7.81044961 5.5 13.6875 C1.87 14.0175 -1.76 14.3475 -5.5 14.6875 C-6.671875 12.66927083 -7.84375 10.65104167 -9.015625 8.6328125 C-10.74840307 6.36196124 -11.80327757 5.61006294 -14.5 4.6875 C-21.3022218 4.01079318 -27.74475276 3.69080053 -33.5 7.6875 C-35.36922654 9.55672654 -34.79230229 12.18501169 -34.92578125 14.6796875 C-34.6751706 16.82131578 -34.6751706 16.82131578 -32.84936523 18.19628906 C-30.10454265 19.93850836 -27.62119308 20.70296552 -24.484375 21.5546875 C-23.31519531 21.88339844 -22.14601563 22.21210937 -20.94140625 22.55078125 C-18.49699145 23.22073197 -16.05168667 23.88744456 -13.60546875 24.55078125 C2.06817895 28.97243598 2.06817895 28.97243598 7 35.8125 C9.30659172 40.6239877 9.5386441 45.50139353 8.5 50.6875 C5.1172631 58.09380283 0.01498548 62.70095309 -7.5 65.6875 C-11.93314797 66.97178854 -16.22731799 66.9093916 -20.8125 66.9375 C-21.64201172 66.958125 -22.47152344 66.97875 -23.32617188 67 C-31.749252 67.0531844 -37.43850034 64.48622688 -43.69921875 58.796875 C-46.93219466 55.00987502 -49.5 49.75480378 -49.5 44.6875 C-45.54 44.0275 -41.58 43.3675 -37.5 42.6875 C-36.943125 44.5128125 -36.943125 44.5128125 -36.375 46.375 C-34.74063919 50.62283178 -32.6678388 53.65611638 -28.5 55.6875 C-22.16571223 57.32493493 -15.60507186 57.08634946 -9.5 54.6875 C-6.2460079 52.76838544 -6.2460079 52.76838544 -4.5 49.6875 C-4.13746236 46.78719887 -4.2446177 44.34268912 -5.5 41.6875 C-8.94131439 39.31573178 -12.0961384 38.08702923 -16.140625 37.109375 C-17.21183594 36.83480469 -18.28304687 36.56023438 -19.38671875 36.27734375 C-21.61055304 35.72203089 -23.8371264 35.17756283 -26.06640625 34.64453125 C-34.60521897 32.42546256 -41.25421267 29.11357363 -46.5625 21.875 C-48.2300607 16.20529361 -48.27915488 10.98167825 -46.375 5.375 C-42.32002531 -0.4371304 -36.71309434 -4.20907053 -29.875 -6 C-19.06665316 -7.00077286 -9.06556229 -6.74334929 0 0 Z " fill="#222E35" transform="translate(705.5,594.3125)"/>
<path d="M0 0 C4.30364806 3.6738459 7.18961678 6.40913388 8.375 12.0625 C8.436875 13.09375 8.49875 14.125 8.5625 15.1875 C4.6025 15.5175 0.6425 15.8475 -3.4375 16.1875 C-4.34895833 14.16927083 -5.26041667 12.15104167 -6.171875 10.1328125 C-7.74769686 7.71071594 -8.6952136 7.09380931 -11.4375 6.1875 C-14.77487146 5.8702548 -14.77487146 5.8702548 -18.375 5.9375 C-19.58027344 5.93234375 -20.78554688 5.9271875 -22.02734375 5.921875 C-25.33279648 6.1793444 -27.52979203 6.62701272 -30.4375 8.1875 C-32.78272935 11.07262978 -32.78272935 11.07262978 -32.3125 14.6875 C-31.31111989 18.69302045 -30.84614289 19.13537246 -27.4375 21.1875 C-24.55545391 22.25470849 -24.55545391 22.25470849 -21.3515625 23.08984375 C-19.58425781 23.58967773 -19.58425781 23.58967773 -17.78125 24.09960938 C-15.31034427 24.78092529 -12.83899203 25.46062402 -10.3671875 26.13867188 C-1.27221272 28.71525043 5.08320774 31.04683722 10.5625 39.1875 C12.29170656 45.67202459 11.4248092 51.11623515 8.5625 57.1875 C4.4187998 63.2136568 -1.34992545 66.66164 -8.4375 68.1875 C-18.87676543 69.39192926 -29.83446831 69.10931698 -38.5546875 62.609375 C-42.53949958 58.93871823 -44.78821555 55.32938681 -46.4375 50.1875 C-46.4375 48.8675 -46.4375 47.5475 -46.4375 46.1875 C-42.8075 45.5275 -39.1775 44.8675 -35.4375 44.1875 C-34.715625 45.775625 -33.99375 47.36375 -33.25 49 C-30.56605877 54.38127849 -30.56605877 54.38127849 -25.4375 57.1875 C-18.91977125 58.51624611 -12.7154109 58.57054373 -6.4375 56.1875 C-3.67015848 54.1811774 -2.70857534 52.94263844 -1.5625 49.75 C-1.40435471 46.50802165 -1.69315268 44.94938325 -3.4375 42.1875 C-8.21729867 39.83058547 -12.92377526 38.50362177 -18.125 37.375 C-27.95943859 35.05738076 -37.65157421 31.96614602 -43.4375 23.1875 C-45.56138567 18.93972866 -45.04284465 13.78811932 -44.4375 9.1875 C-41.3535923 2.55016232 -35.91871852 -1.4735698 -29.1875 -4.0625 C-19.1681838 -6.06636324 -9.08821577 -4.79196831 0 0 Z " fill="#212D34" transform="translate(454.4375,592.8125)"/>
<path d="M0 0 C4.30364806 3.6738459 7.18961678 6.40913388 8.375 12.0625 C8.436875 13.09375 8.49875 14.125 8.5625 15.1875 C4.6025 15.5175 0.6425 15.8475 -3.4375 16.1875 C-4.34895833 14.16927083 -5.26041667 12.15104167 -6.171875 10.1328125 C-7.74769686 7.71071594 -8.6952136 7.09380931 -11.4375 6.1875 C-14.77487146 5.8702548 -14.77487146 5.8702548 -18.375 5.9375 C-19.58027344 5.93234375 -20.78554688 5.9271875 -22.02734375 5.921875 C-25.33279648 6.1793444 -27.52979203 6.62701272 -30.4375 8.1875 C-32.78272935 11.07262978 -32.78272935 11.07262978 -32.3125 14.6875 C-31.31111989 18.69302045 -30.84614289 19.13537246 -27.4375 21.1875 C-24.55545391 22.25470849 -24.55545391 22.25470849 -21.3515625 23.08984375 C-19.58425781 23.58967773 -19.58425781 23.58967773 -17.78125 24.09960938 C-15.31034427 24.78092529 -12.83899203 25.46062402 -10.3671875 26.13867188 C-1.27221272 28.71525043 5.08320774 31.04683722 10.5625 39.1875 C12.29170656 45.67202459 11.4248092 51.11623515 8.5625 57.1875 C4.4187998 63.2136568 -1.34992545 66.66164 -8.4375 68.1875 C-17.84008346 69.27232218 -28.1732116 69.29830993 -36.4375 64.1875 C-40.99757373 60.167435 -44.57309097 56.04044575 -46.4375 50.1875 C-46.4375 48.8675 -46.4375 47.5475 -46.4375 46.1875 C-42.8075 45.5275 -39.1775 44.8675 -35.4375 44.1875 C-34.715625 45.775625 -33.99375 47.36375 -33.25 49 C-30.56605877 54.38127849 -30.56605877 54.38127849 -25.4375 57.1875 C-18.91977125 58.51624611 -12.7154109 58.57054373 -6.4375 56.1875 C-3.67015848 54.1811774 -2.70857534 52.94263844 -1.5625 49.75 C-1.40435471 46.50802165 -1.69315268 44.94938325 -3.4375 42.1875 C-8.21729867 39.83058547 -12.92377526 38.50362177 -18.125 37.375 C-27.95943859 35.05738076 -37.65157421 31.96614602 -43.4375 23.1875 C-45.56138567 18.93972866 -45.04284465 13.78811932 -44.4375 9.1875 C-41.3535923 2.55016232 -35.91871852 -1.4735698 -29.1875 -4.0625 C-19.1681838 -6.06636324 -9.08821577 -4.79196831 0 0 Z " fill="#212D34" transform="translate(770.4375,592.8125)"/>
<path d="M0 0 C7.23774377 -0.57380311 13.15961669 2.19780517 19.04296875 6.265625 C23.39161199 11.16823553 25.17140939 16.13706471 25.15649414 22.6550293 C25.15641861 23.75594406 25.15634308 24.85685883 25.15626526 25.99113464 C25.15110397 27.17870865 25.14594269 28.36628265 25.140625 29.58984375 C25.13921005 30.80638138 25.1377951 32.02291901 25.13633728 33.27632141 C25.13073187 37.1686141 25.11817842 41.06084964 25.10546875 44.953125 C25.10045445 47.58919188 25.09589142 50.22525966 25.09179688 52.86132812 C25.08076068 59.32944916 25.06349237 65.79752739 25.04296875 72.265625 C21.08296875 72.265625 17.12296875 72.265625 13.04296875 72.265625 C13.01323975 70.00319946 13.01323975 70.00319946 12.98291016 67.69506836 C12.9066689 62.08341159 12.81797979 56.47200785 12.72558594 50.8605957 C12.68737271 48.43486538 12.65250664 46.00907987 12.62109375 43.58325195 C12.57527722 40.09045733 12.51730934 36.59804011 12.45703125 33.10546875 C12.44548004 32.026035 12.43392883 30.94660126 12.42202759 29.8344574 C12.31426069 24.2994281 12.03208381 19.46103488 10.04296875 14.265625 C6.22728061 11.42604313 1.13211829 11.00720003 -3.51953125 11.265625 C-8.2458572 12.05196645 -12.64085693 13.73187364 -15.95703125 17.265625 C-18.93208026 23.72869429 -19.42303547 29.26856244 -19.46875 36.328125 C-19.4867012 37.36001953 -19.5046524 38.39191406 -19.52314758 39.45507812 C-19.57698581 42.72521984 -19.61106147 45.99521781 -19.64453125 49.265625 C-19.67772767 51.49350947 -19.71221946 53.72137504 -19.74804688 55.94921875 C-19.83269718 61.38791668 -19.89963455 66.82657394 -19.95703125 72.265625 C-23.91703125 72.265625 -27.87703125 72.265625 -31.95703125 72.265625 C-31.95703125 49.165625 -31.95703125 26.065625 -31.95703125 2.265625 C-28.32703125 2.265625 -24.69703125 2.265625 -20.95703125 2.265625 C-20.95703125 4.905625 -20.95703125 7.545625 -20.95703125 10.265625 C-20.52132812 9.86730469 -20.085625 9.46898437 -19.63671875 9.05859375 C-13.40165881 3.51181964 -8.26284272 1.1215036 0 0 Z " fill="#222D34" transform="translate(541.95703125,587.734375)"/>
<path d="M0 0 C7.2360054 -0.56265503 13.15246393 2.20216756 19.03515625 6.26953125 C23.38379949 11.17214178 25.16359689 16.14097096 25.14868164 22.65893555 C25.14860611 23.75985031 25.14853058 24.86076508 25.14845276 25.99504089 C25.14329147 27.1826149 25.13813019 28.3701889 25.1328125 29.59375 C25.13139755 30.81028763 25.1299826 32.02682526 25.12852478 33.28022766 C25.12291937 37.17252035 25.11036592 41.06475589 25.09765625 44.95703125 C25.09264195 47.59309813 25.08807892 50.22916591 25.08398438 52.86523438 C25.07294818 59.33335541 25.05567987 65.80143364 25.03515625 72.26953125 C21.07515625 72.26953125 17.11515625 72.26953125 13.03515625 72.26953125 C13.00542725 69.95381104 13.00542725 69.95381104 12.97509766 67.59130859 C12.89893377 61.85481665 12.81023249 56.11857477 12.71777344 50.38232422 C12.67952834 47.90125471 12.64466772 45.4201306 12.61328125 42.93896484 C12.56753423 39.36926786 12.50955456 35.79994531 12.44921875 32.23046875 C12.43766754 31.12399994 12.42611633 30.01753113 12.41421509 28.87753296 C12.2936131 21.37565054 12.2936131 21.37565054 10.03515625 14.26953125 C5.48683789 11.12513357 -0.42813201 10.74847288 -5.7578125 11.64453125 C-9.80756841 12.79136478 -12.89368311 14.37895453 -15.96484375 17.26953125 C-19.26837987 23.51881228 -19.43053665 30.29802944 -19.4765625 37.2109375 C-19.4945137 38.21922104 -19.5124649 39.22750458 -19.53096008 40.26634216 C-19.58470504 43.45486392 -19.61884348 46.64323911 -19.65234375 49.83203125 C-19.68554844 52.0071817 -19.72004098 54.18231289 -19.75585938 56.35742188 C-19.84041078 61.66135194 -19.90739198 66.96524124 -19.96484375 72.26953125 C-23.92484375 72.26953125 -27.88484375 72.26953125 -31.96484375 72.26953125 C-31.96484375 49.16953125 -31.96484375 26.06953125 -31.96484375 2.26953125 C-28.33484375 2.26953125 -24.70484375 2.26953125 -20.96484375 2.26953125 C-20.63484375 4.90953125 -20.30484375 7.54953125 -19.96484375 10.26953125 C-19.43375 9.78742187 -18.90265625 9.3053125 -18.35546875 8.80859375 C-17.29585937 7.86113281 -17.29585937 7.86113281 -16.21484375 6.89453125 C-15.51875 6.26804687 -14.82265625 5.6415625 -14.10546875 4.99609375 C-9.62065098 1.37877723 -5.6081834 0.76931343 0 0 Z " fill="#232F36" transform="translate(1129.96484375,587.73046875)"/>
<path d="M0 0 C3.96 0 7.92 0 12 0 C12.01458252 1.51352051 12.02916504 3.02704102 12.04418945 4.58642578 C12.10223807 10.21117572 12.17947146 15.8355281 12.26245117 21.45996094 C12.29566947 23.8925124 12.32371099 26.32514037 12.34643555 28.7578125 C12.38003758 32.25814358 12.43235834 35.75777555 12.48828125 39.2578125 C12.49467117 40.34240753 12.5010611 41.42700256 12.50764465 42.54446411 C12.61502043 48.08085869 12.81850452 52.25183322 16 57 C19.74224709 60.40204281 23.57776019 60.51410062 28.43359375 60.34765625 C34.10148871 59.57985922 37.80608954 57.43881517 41.4375 53.0625 C43.59307415 48.83757467 44.11261201 45.00324801 44.20532227 40.30151367 C44.22526749 39.40095749 44.24521271 38.50040131 44.26576233 37.57255554 C44.28247482 36.6140419 44.29918732 35.65552826 44.31640625 34.66796875 C44.33718735 33.67622147 44.35796844 32.68447418 44.37937927 31.66267395 C44.44460052 28.50435101 44.50363202 25.34594712 44.5625 22.1875 C44.60571131 20.04230944 44.64932643 17.89712698 44.69335938 15.75195312 C44.80025377 10.5013844 44.90159817 5.25073448 45 0 C48.96 0 52.92 0 57 0 C57 23.1 57 46.2 57 70 C53.37 70 49.74 70 46 70 C45.505 65.545 45.505 65.545 45 61 C43.948125 62.11375 43.948125 62.11375 42.875 63.25 C35.60800024 70.20104325 29.62127808 71.55395497 19.8125 71.34375 C13.12259322 70.74056168 8.54747939 67.9610798 4.0625 63.0625 C-0.57884657 56.17080358 -0.2674871 49.6437848 -0.1953125 41.6015625 C-0.1924826 40.41146576 -0.18965271 39.22136902 -0.18673706 37.99520874 C-0.17556817 34.20503563 -0.15046917 30.41510134 -0.125 26.625 C-0.11496597 24.05078467 -0.10584085 21.47656562 -0.09765625 18.90234375 C-0.07563954 12.60147089 -0.04113191 6.3007759 0 0 Z " fill="#232F35" transform="translate(337,590)"/>
<path d="M0 0 C2.21035852 -0.00960608 4.41974682 -0.04056488 6.62988281 -0.07226562 C23.94342721 -0.20493505 23.94342721 -0.20493505 29.35058594 4.69262695 C34.14606648 10.22168188 34.21863832 14.60269639 34.14550781 21.74023438 C33.66984259 25.91862692 32.84603793 28.1024682 29.66845703 30.84326172 C21.54286501 36.75109368 11.22221704 35.58980404 1.68457031 35.42773438 C0.13575521 35.41265957 -1.4130741 35.39897611 -2.96191406 35.38671875 C-6.72594146 35.35393576 -10.48927607 35.30230935 -14.25292969 35.24023438 C-14.27758159 30.41642636 -14.29576661 25.59265471 -14.30786133 20.76879883 C-14.31290143 19.12653973 -14.31973347 17.48428514 -14.32836914 15.84204102 C-14.34044894 13.48647959 -14.34616107 11.13097729 -14.35058594 8.77539062 C-14.35574722 8.03684341 -14.36090851 7.2982962 -14.3662262 6.53736877 C-14.36642219 4.7712535 -14.31487687 3.00526292 -14.25292969 1.24023438 C-11.57692082 -1.43577449 -3.85375591 0.01012814 0 0 Z " fill="#F9F9F9" transform="translate(869.2529296875,573.759765625)"/>
<path d="M0 0 C7.6415625 -0.0928125 7.6415625 -0.0928125 15.4375 -0.1875 C17.02618896 -0.21481201 18.61487793 -0.24212402 20.25170898 -0.27026367 C37.28033468 -0.37018557 37.28033468 -0.37018557 42.60327148 4.45263672 C47.09675146 9.63180242 47.35718901 13.3536353 47.26953125 20.015625 C46.89910226 24.11718652 45.912631 26.087369 43 29 C36.2260502 33.54045659 29.23094016 34.13470479 21.19140625 34.09765625 C19.51220093 34.09390991 19.51220093 34.09390991 17.79907227 34.09008789 C16.40100342 34.08098389 15.00293457 34.07187988 13.5625 34.0625 C9.086875 34.041875 4.61125 34.02125 0 34 C0 22.78 0 11.56 0 0 Z " fill="#F8F9F9" transform="translate(254,615)"/>
<path d="M0 0 C0.33 7.59 0.66 15.18 1 23 C4.63 23.33 8.26 23.66 12 24 C12 26.97 12 29.94 12 33 C8.04 33 4.08 33 0 33 C0.11867226 38.99581106 0.24294783 44.99147067 0.37231445 50.98706055 C0.41550518 53.02478923 0.45719078 55.06255041 0.49731445 57.1003418 C0.55540311 60.03704604 0.61898448 62.97358909 0.68359375 65.91015625 C0.70866249 67.26682152 0.70866249 67.26682152 0.73423767 68.65089417 C0.84711392 73.51996121 1.19585438 78.19515835 2 83 C5.3 83 8.6 83 12 83 C13.19287411 86.87684087 14 89.91621923 14 94 C8.15902896 95.50734737 2.36015327 95.89062388 -3.3125 93.75 C-7.12888112 91.26491462 -9.5424304 89.3727088 -11 85 C-11.08770177 83.29716578 -11.11765393 81.59107252 -11.11352539 79.88598633 C-11.11344986 78.84513382 -11.11337433 77.80428131 -11.11329651 76.73188782 C-11.10813522 75.60993515 -11.10297394 74.48798248 -11.09765625 73.33203125 C-11.0962413 72.18208176 -11.09482635 71.03213226 -11.09336853 69.84733582 C-11.08776429 66.16903092 -11.07521104 62.49078655 -11.0625 58.8125 C-11.05748555 56.32096442 -11.05292255 53.82942789 -11.04882812 51.33789062 C-11.03779347 45.22523971 -11.02105118 39.11262418 -11 33 C-13.97 33 -16.94 33 -20 33 C-20 30.03 -20 27.06 -20 24 C-17.03 24 -14.06 24 -11 24 C-11.17402344 22.15535156 -11.17402344 22.15535156 -11.3515625 20.2734375 C-12.20182352 7.38820257 -12.20182352 7.38820257 -8.80859375 3.46875 C-2.83180147 0 -2.83180147 0 0 0 Z " fill="#202C33" transform="translate(1074,566)"/>
<path d="M0 0 C1.65612305 -0.01836914 1.65612305 -0.01836914 3.34570312 -0.03710938 C19.45744493 -0.06565942 19.45744493 -0.06565942 26.0625 4.0625 C30.25529571 8.51734545 30.57279325 12.52944805 30.4296875 18.4921875 C29.81990326 22.9682633 28.58576494 24.31136536 25.0625 27.1875 C17.4737779 31.08951006 9.3089915 30.53470955 1 30.375 C-0.35610486 30.35991956 -1.71222602 30.34623712 -3.06835938 30.33398438 C-6.35849602 30.29885836 -9.64778183 30.2496664 -12.9375 30.1875 C-12.96215746 26.0757744 -12.98033959 21.96407722 -12.99243164 17.85229492 C-12.9974708 16.45254772 -13.00430216 15.0528058 -13.01293945 13.65307617 C-13.0250232 11.64504223 -13.03019807 9.63697043 -13.03515625 7.62890625 C-13.04039307 6.41920166 -13.04562988 5.20949707 -13.05102539 3.96313477 C-12.79272884 -2.35207696 -4.92519604 0.00278732 0 0 Z " fill="#F8F8F9" transform="translate(266.9375,573.8125)"/>
<path d="M0 0 C1.95363029 0.97508627 3.86559613 2.03268664 5.76953125 3.1015625 C4.77953125 6.4015625 3.78953125 9.7015625 2.76953125 13.1015625 C1.26390625 12.8746875 -0.24171875 12.6478125 -1.79296875 12.4140625 C-6.9645336 11.90130111 -9.76466775 12.45853742 -14.23046875 15.1015625 C-19.2601293 19.95778648 -19.46430691 27.17485087 -19.60952759 33.75559998 C-19.6268544 35.17788658 -19.6268544 35.17788658 -19.64453125 36.62890625 C-19.6638974 37.61782364 -19.68326355 38.60674103 -19.70321655 39.62562561 C-19.76267497 42.76335201 -19.80926231 45.90111578 -19.85546875 49.0390625 C-19.89367959 51.17514561 -19.93273311 53.31121383 -19.97265625 55.44726562 C-20.06834867 60.66524264 -20.1525037 65.88329173 -20.23046875 71.1015625 C-24.19046875 71.1015625 -28.15046875 71.1015625 -32.23046875 71.1015625 C-32.23046875 48.0015625 -32.23046875 24.9015625 -32.23046875 1.1015625 C-28.60046875 1.1015625 -24.97046875 1.1015625 -21.23046875 1.1015625 C-20.90046875 3.7415625 -20.57046875 6.3815625 -20.23046875 9.1015625 C-19.7715625 8.54726563 -19.31265625 7.99296875 -18.83984375 7.421875 C-18.22625 6.69742188 -17.61265625 5.97296875 -16.98046875 5.2265625 C-16.3771875 4.50726562 -15.77390625 3.78796875 -15.15234375 3.046875 C-10.85455064 -1.30333022 -5.80140316 -2.33681739 0 0 Z " fill="#232F36" transform="translate(1039.23046875,588.8984375)"/>
<path d="M0 0 C2.8310409 1.13142821 5.33049837 2.50133242 8 4 C7.01 7.63 6.02 11.26 5 15 C2.7415625 14.4121875 2.7415625 14.4121875 0.4375 13.8125 C-4.86840839 12.75282141 -7.39939408 13.1833025 -12 16 C-19.82009907 24.72776809 -17.4368778 41.69390125 -17.625 52.75 C-17.66326544 54.62241229 -17.70232184 56.49480859 -17.7421875 58.3671875 C-17.83724004 62.91132549 -17.92160338 67.45554539 -18 72 C-21.63 72 -25.26 72 -29 72 C-29 48.9 -29 25.8 -29 2 C-25.7 2 -22.4 2 -19 2 C-19 4.97 -19 7.94 -19 11 C-18.34 11 -17.68 11 -17 11 C-16.79375 10.278125 -16.5875 9.55625 -16.375 8.8125 C-13.03088017 1.9722549 -7.39064222 -0.59601953 0 0 Z " fill="#202C33" transform="translate(1278,588)"/>
<path d="M0 0 C3.96 0 7.92 0 12 0 C12 23.1 12 46.2 12 70 C8.04 70 4.08 70 0 70 C0 46.9 0 23.8 0 0 Z " fill="#1F2B32" transform="translate(480,590)"/>
<path d="M0 0 C0.4107826 8.4134362 -0.24944231 13.45100074 -4.625 20.6875 C-9.85412086 25.77901242 -15.48060437 27.26632621 -22.6875 27.5625 C-26.77041967 27.44311638 -29.53669851 27.23435567 -32.75 24.625 C-35.86090441 20.99561152 -36.37549071 18.86218248 -36.26171875 14.03125 C-35.81367451 10.5538917 -34.67919873 9.23266561 -32 7 C-24.99278938 3.86519525 -16.95788279 2.9719671 -9.44140625 1.6484375 C-0.69277108 0 -0.69277108 0 0 0 Z " fill="#F9F9FA" transform="translate(978,625)"/>
<path d="M0 0 C4.56492351 3.3780434 7.5171448 6.81899472 9.125 12.3125 C9.125 14.2925 9.125 16.2725 9.125 18.3125 C-3.745 18.3125 -16.615 18.3125 -29.875 18.3125 C-28.07049052 10.19220734 -26.86164408 5.22955664 -20.3125 0.4375 C-14.07626976 -2.44076011 -6.21293245 -3.32787742 0 0 Z " fill="#FAFBFB" transform="translate(1211.875,599.6875)"/>
<path d="M0 0 C0 0.66 0 1.32 0 2 C0.5775 2.061875 1.155 2.12375 1.75 2.1875 C5.68844732 3.60971709 7.40125388 6.83244507 9.25 10.4375 C10 13 10 13 10 19 C-2.87 19 -15.74 19 -29 19 C-26.15347138 6.19062119 -26.15347138 6.19062119 -20.28125 1.6796875 C-14.10952535 -1.93734785 -6.73531668 -2.24510556 0 0 Z " fill="#FAFBFB" transform="translate(623,599)"/>
<path d="M0 0 C3.96 0 7.92 0 12 0 C12 4.62 12 9.24 12 14 C8.04 14 4.08 14 0 14 C0 9.38 0 4.76 0 0 Z " fill="#232E35" transform="translate(480,563)"/>
</svg>
