<?xml version="1.0" encoding="UTF-8"?>
<svg version="1.1" xmlns="http://www.w3.org/2000/svg" width="1752" height="836">
<path d="M0 0 C1.11247375 -0.00177501 2.22494749 -0.00355002 3.37113256 -0.00537882 C7.12692884 -0.01013804 10.88268703 -0.00774115 14.63848513 -0.00541991 C17.35878679 -0.0068178 20.07908639 -0.0097198 22.79938689 -0.01254788 C28.74704197 -0.01792459 34.69468915 -0.01956454 40.64234648 -0.01879714 C49.54638712 -0.01766256 58.45041854 -0.0222401 67.35445711 -0.02792798 C82.52845279 -0.03744445 97.70244663 -0.04214787 112.876445 -0.04423732 C128.25934981 -0.04636483 143.64225178 -0.05062235 159.02515525 -0.05748004 C159.99586493 -0.05791065 160.96657462 -0.05834127 161.96669974 -0.05878493 C165.92011043 -0.06054325 169.87352112 -0.0623129 173.82693179 -0.06409795 C221.77251042 -0.0857043 269.71808962 -0.09657768 317.663672 -0.10557419 C333.21015304 -0.10850764 348.75663395 -0.11187746 364.30311483 -0.1155414 C365.39969351 -0.11579969 366.4962722 -0.11605798 367.62608053 -0.1163241 C372.06235764 -0.11737031 376.49863475 -0.11841873 380.93491186 -0.11946992 C456.81943779 -0.13743514 532.70396395 -0.1528146 608.5884917 -0.16022895 C614.54990333 -0.16081293 620.51131496 -0.16141019 626.47272659 -0.16200657 C627.65528893 -0.16212469 628.83785127 -0.16224281 630.05624884 -0.16236451 C642.03739335 -0.1635619 654.01853787 -0.16477066 665.99968238 -0.16599704 C668.4019487 -0.16624227 670.80421501 -0.16648613 673.20648132 -0.16672861 C750.36129462 -0.17451862 827.51609271 -0.19690235 904.67089936 -0.22940504 C960.10358245 -0.25274907 1015.53626253 -0.27430166 1070.96895045 -0.28141135 C1072.10883588 -0.28155837 1073.24872131 -0.28170539 1074.42314872 -0.28185687 C1099.44602769 -0.28504163 1124.46890664 -0.28709256 1149.49178579 -0.28808442 C1159.55992214 -0.28849916 1169.62805849 -0.28905406 1179.69619483 -0.28964633 C1180.79809594 -0.289707 1181.89999705 -0.28976766 1183.0352891 -0.28983017 C1218.53660234 -0.29184654 1254.03789762 -0.30608778 1289.53920459 -0.32659133 C1325.29693793 -0.34716974 1361.05465052 -0.3550677 1396.81238918 -0.34551357 C1401.75380093 -0.34419511 1406.69521271 -0.34301707 1411.63662452 -0.34192294 C1412.60527642 -0.34170309 1413.57392832 -0.34148324 1414.57193332 -0.34125673 C1429.90868992 -0.33814262 1445.24540683 -0.3484681 1460.58215423 -0.36439849 C1475.66370823 -0.37978499 1490.74520734 -0.38090038 1505.82676324 -0.36685025 C1514.66779939 -0.35904183 1523.50866781 -0.36214832 1532.34968719 -0.38148742 C1538.22584237 -0.39324468 1544.10187534 -0.39041573 1549.97802395 -0.37587277 C1553.30631645 -0.36803974 1556.63401582 -0.36849464 1559.96232693 -0.38249181 C1589.79684609 -0.4997808 1614.13864781 5.5105023 1636.05359572 27.12880117 C1652.09643269 43.40456498 1662.23135622 65.6664871 1662.1878168 88.6411112 C1662.19016903 89.48851674 1662.19252126 90.33592229 1662.19494477 91.20900679 C1662.20161507 94.05571791 1662.20117714 96.90238319 1662.20076674 99.74910146 C1662.20406661 101.80797701 1662.20779243 103.86685192 1662.21190822 105.925726 C1662.22192265 111.5896083 1662.22564413 117.25348 1662.22829753 122.9173699 C1662.2322023 129.02400981 1662.24178062 135.13064134 1662.25051039 141.2372759 C1662.26933715 155.29182949 1662.27953089 169.34638112 1662.28797108 183.40094376 C1662.29218038 190.35052955 1662.29740206 197.30011448 1662.3026556 204.24969954 C1662.3205465 228.05174301 1662.33554039 251.85378674 1662.3429758 275.65583593 C1662.34345055 277.14981006 1662.34392644 278.6437842 1662.34440346 280.13775833 C1662.34475802 281.2490464 1662.34475802 281.2490464 1662.34511975 282.38278473 C1662.34632091 286.13617693 1662.34753637 289.88956913 1662.34876174 293.64296132 C1662.34900189 294.38782653 1662.34924204 295.13269174 1662.34948946 295.90012862 C1662.35737695 320.03364439 1662.38079706 344.16711092 1662.41331768 368.3006052 C1662.44765853 393.83164515 1662.46733097 419.36265631 1662.47062004 444.89371973 C1662.47103755 447.699632 1662.47151711 450.50554425 1662.47204322 453.3114565 C1662.47216641 454.00232228 1662.4722896 454.69318805 1662.47241652 455.40498915 C1662.47474347 466.49775903 1662.49037535 477.59047152 1662.51088506 488.68322098 C1662.53119723 499.84680301 1662.53626304 511.01031759 1662.52711443 522.17392096 C1662.52257762 528.21560787 1662.52442014 534.25710938 1662.54387587 540.29877073 C1662.56156445 545.83974486 1662.56046358 551.38039911 1662.54497858 556.92137691 C1662.54261114 558.91612496 1662.54688071 560.91089549 1662.55880723 562.90560928 C1662.7161091 590.97388326 1655.30407183 614.93599671 1635.36609572 635.37880117 C1619.4382642 651.08335537 1600.05330394 658.24480974 1578.57312697 662.80458242 C1576.65451252 663.22484906 1574.73621202 663.64655111 1572.81819838 664.06955129 C1567.64076653 665.20684943 1562.45903591 666.32324524 1557.27613753 667.43532735 C1551.87184149 668.59830305 1546.47157385 669.77971179 1541.07068557 670.95839101 C1527.93623586 673.81996617 1514.79475853 676.64857442 1501.65265197 679.47473699 C1494.90273683 680.92665423 1488.15360674 682.3822159 1481.4044258 683.8375414 C1480.71249676 683.98673894 1480.02056772 684.13593647 1479.30767113 684.28965515 C1476.47939493 684.89951082 1473.65112188 685.50938105 1470.82285845 686.11929595 C1466.49736981 687.05208285 1462.17183149 687.98463895 1457.84625709 688.91702807 C1426.56876093 695.65917567 1395.29894484 702.43665896 1364.03010315 709.2188133 C1356.45167563 710.86255661 1348.87317389 712.50595756 1341.29466695 714.14933461 C1337.5144172 714.96907248 1333.73417075 715.78882554 1329.95392531 716.60858327 C1329.20881391 716.77016292 1328.4637025 716.93174256 1327.69601196 717.09821856 C1322.46283834 718.23305618 1317.22967997 719.36796412 1311.99652785 720.5029009 C1284.38231058 726.49168592 1256.7673842 732.47719548 1229.15199965 738.46059591 C1226.7099305 738.98971716 1224.26786304 739.5188462 1221.82579726 740.04798299 C1192.49630887 746.40297191 1163.16610353 752.7546407 1133.83484572 759.10145742 C1132.81524949 759.32208337 1132.81524949 759.32208337 1131.77505535 759.54716641 C1119.25316027 762.25672257 1106.73124523 764.96618654 1094.2092849 767.67544115 C1058.17960922 775.47084733 1022.15149277 783.27339644 986.12572402 791.0868395 C983.0496796 791.75398566 979.97363484 792.42113024 976.89758986 793.08827382 C976.13732509 793.25316438 975.37706031 793.41805494 974.59375721 793.58794218 C963.24264491 796.04980442 951.89126607 798.51043437 940.53967971 800.97010976 C939.05702668 801.29138017 937.57437369 801.61265079 936.09172076 801.93392164 C930.24475717 803.20086637 924.39778954 804.4677924 918.55079001 805.73457128 C902.10781531 809.29706537 885.66575568 812.86370374 869.22563094 816.43932801 C859.51541189 818.55107797 849.80436418 820.65898366 840.09262007 822.76370889 C833.5410098 824.183802 826.99047498 825.60871224 820.44077986 827.03761083 C816.48037427 827.90029252 812.51889837 828.75797305 808.55708998 829.61418706 C806.76389833 830.0027477 804.97113873 830.39330941 803.17888564 830.7861765 C776.20279534 836.69622069 753.62997754 836.08170969 726.77625197 829.92176992 C724.86625759 829.48888813 722.95612739 829.05660523 721.04587477 828.6248644 C715.83461909 827.44533986 710.62525123 826.25766334 705.41615599 825.06863958 C699.77632341 823.78288649 694.13472046 822.50494684 688.49329299 821.22621328 C678.74985484 819.01678019 669.00740466 816.8030361 659.26550978 814.58680898 C644.11131065 811.1397742 628.95385564 807.70719462 613.79578322 804.27723867 C608.62836706 803.10779913 603.46097019 801.93827436 598.29358596 800.76869375 C597.6475398 800.62247111 597.00149364 800.47624847 596.33587033 800.32559484 C580.83345527 796.81678575 565.33205789 793.30348983 549.83093947 789.78895742 C549.14506766 789.6334519 548.45919585 789.47794638 547.75254005 789.31772858 C510.71382722 780.91992817 473.67719011 772.5129778 436.64066237 764.10554677 C394.32223864 754.49912004 352.00160282 744.90251457 309.67859572 735.31630117 C299.11867944 732.92446434 288.55876924 730.53260072 277.99890822 728.14051992 C277.02959852 727.92094727 277.02959852 727.92094727 276.04070681 727.69693881 C256.39575112 723.24682505 236.75161481 718.79310969 217.10828322 714.33583242 C215.26983966 713.91867278 215.26983966 713.91867278 213.39425582 713.49308568 C201.15532625 710.71589571 188.91650681 707.93822082 176.67780608 705.16002256 C151.02694587 699.33738618 125.37480697 693.52047997 99.71972412 687.7164802 C94.54094515 686.54486954 89.36222389 685.37300415 84.18353957 684.20097524 C83.45708448 684.03656828 82.73062939 683.87216131 81.98216051 683.70277232 C79.06314408 683.04215795 76.14412782 682.38154286 73.22511739 681.72090203 C64.74253385 679.80111752 56.25972376 677.88234148 47.77651101 675.96533918 C41.85445026 674.62700417 35.93277269 673.28698049 30.01121825 671.94640714 C27.60127833 671.40112227 25.19121222 670.85639472 22.78100127 670.31230909 C10.62721282 667.56843766 -1.5165396 664.7859043 -13.63829881 661.90345937 C-14.66946761 661.66021775 -15.70063642 661.41697612 -16.76305276 661.16636354 C-35.56719901 656.66116977 -50.27518095 648.63629727 -63.94640428 635.12880117 C-64.9286699 634.25481679 -64.9286699 634.25481679 -65.93077928 633.36317617 C-79.55453213 620.9893089 -87.44354565 600.9531898 -89.94640428 583.12880117 C-90.03956964 580.26638488 -90.08601395 577.42878708 -90.08062536 574.56684572 C-90.08297759 573.71407545 -90.08532982 572.86130519 -90.08775333 571.9826934 C-90.09442403 569.11774283 -90.09398568 566.25283782 -90.0935753 563.38788015 C-90.09687513 561.31591751 -90.10060095 559.24395551 -90.10471678 557.17199433 C-90.11473146 551.4719767 -90.11845273 545.7719696 -90.12110609 540.07194442 C-90.12501076 533.92646849 -90.13458905 527.7810009 -90.14331895 521.63553029 C-90.16214555 507.49193963 -90.17233924 493.3483509 -90.18077963 479.20475123 C-90.18498877 472.21164573 -90.19021045 465.21854108 -90.19546416 458.22543629 C-90.2133546 434.27579282 -90.22834884 410.3261491 -90.23578435 386.37649995 C-90.23625911 384.87327895 -90.23673499 383.37005795 -90.23721201 381.86683695 C-90.23744839 381.12139123 -90.23768477 380.37594552 -90.23792831 379.60791053 C-90.23912947 375.83126405 -90.24034493 372.05461757 -90.24157029 368.27797109 C-90.24193052 367.15375035 -90.24193052 367.15375035 -90.24229802 366.00681807 C-90.25018646 341.72080725 -90.27360877 317.43484534 -90.30612624 293.14885586 C-90.34046149 267.45819981 -90.36013898 241.76757235 -90.36342859 216.07689297 C-90.36384611 213.25386684 -90.36432567 210.43084072 -90.36485177 207.60781461 C-90.36497496 206.91273196 -90.36509816 206.21764931 -90.36522508 205.50150355 C-90.36755267 194.33786904 -90.38318805 183.17429152 -90.40369362 172.01067729 C-90.42399843 160.77765979 -90.42907485 149.54470932 -90.41992299 138.31167062 C-90.41538407 132.231628 -90.41724102 126.15176962 -90.43668443 120.07175237 C-90.45435779 114.49690672 -90.45328434 108.92237915 -90.43778714 103.34752993 C-90.43541741 101.33934084 -90.43970132 99.33112949 -90.45161579 97.32297435 C-90.60601071 69.5625642 -82.65406162 45.67901304 -62.94640428 25.69130117 C-45.84998558 9.02397964 -23.82105981 -0.04692228 0 0 Z " fill="#FEFEFE" transform="translate(89.94640427827835,-0.128801167011261)"/>
<path d="M0 0 C11.16286137 -0.06999074 22.3256692 -0.1230576 33.48870659 -0.15543652 C38.67402865 -0.17098894 43.85919888 -0.19203292 49.04443359 -0.22631836 C54.06303491 -0.25928843 59.08149163 -0.27693102 64.10019302 -0.28463173 C66.00002438 -0.29010855 67.89984922 -0.3007997 69.79961777 -0.31719017 C79.2789475 -0.39560509 88.51848435 -0.19199165 97.89111328 1.33862305 C98.61232298 1.45623647 99.33353268 1.57384989 100.07659721 1.69502735 C109.58691789 3.43686451 119.44416062 7.97659331 125.39453125 15.84375 C132.24674702 26.11220014 132.12230889 37.10255967 129.875 48.9375 C127.14864761 60.37798806 122.72302646 70.1308623 115 79 C114.360625 79.82628906 113.72125 80.65257812 113.0625 81.50390625 C105.00497939 91.25533744 92.89284596 97.2879905 81 101 C81.53109375 101.30292969 82.0621875 101.60585938 82.609375 101.91796875 C89.43937637 105.96860825 93.53239658 110.30357881 96 118 C96.81846731 122.22811545 97.3225636 126.4819333 97.82421875 130.7578125 C97.97534622 131.97902802 98.12647369 133.20024353 98.28218079 134.45846558 C98.59869136 137.03144658 98.9102107 139.60504589 99.21704102 142.17919922 C99.68684768 146.11952889 100.17114366 150.05786304 100.65820312 153.99609375 C100.96438457 156.49989707 101.26975106 159.00380021 101.57421875 161.5078125 C101.71792404 162.68497833 101.86162933 163.86214417 102.00968933 165.07498169 C102.14015152 166.1731723 102.27061371 167.27136292 102.4050293 168.40283203 C102.57798775 169.84675827 102.57798775 169.84675827 102.75444031 171.31985474 C102.99064269 173.89787029 103.04474077 176.41296623 103 179 C97.17928378 179.02464638 91.35859766 179.0428343 85.5378418 179.05493164 C83.55606559 179.05997267 81.57429311 179.06680538 79.5925293 179.07543945 C76.75047891 179.08751515 73.90847753 179.09323045 71.06640625 179.09765625 C69.72891075 179.10539818 69.72891075 179.10539818 68.36439514 179.11329651 C66.24259399 179.11349177 64.1208922 179.0621003 62 179 C60.50574813 177.50574813 60.6835572 176.09473658 60.45922852 174.00952148 C60.36565567 173.16030624 60.27208282 172.311091 60.17567444 171.43614197 C60.07774094 170.50717606 59.97980743 169.57821014 59.87890625 168.62109375 C59.77408432 167.66163345 59.66926239 166.70217316 59.56126404 165.71363831 C59.22421906 162.62202361 58.89310612 159.5298093 58.5625 156.4375 C58.34352788 154.40945885 58.12413172 152.38146344 57.90429688 150.35351562 C57.7968515 149.36203522 57.68940613 148.37055481 57.57870483 147.34902954 C57.25692395 144.39876169 56.92984662 141.44911661 56.60205078 138.49951172 C56.22007995 135.06043216 55.86342733 131.62081397 55.53466797 128.17626953 C55.38675373 126.75419423 55.23850468 125.33215369 55.08984375 123.91015625 C54.97374756 122.70625244 54.85765137 121.50234863 54.73803711 120.26196289 C53.58636747 115.17183451 51.59574306 112.07001816 47.25146484 109.15698242 C43.44228627 107.80154638 39.97227294 107.52410393 35.9765625 107.48828125 C34.85729874 107.46135445 34.85729874 107.46135445 33.71542358 107.43388367 C31.3520051 107.38006895 28.98878514 107.34597933 26.625 107.3125 C25.01429546 107.27930128 23.40361702 107.24480928 21.79296875 107.20898438 C17.86212313 107.12435982 13.93133341 107.05741257 10 107 C9.88825439 107.67877197 9.77650879 108.35754395 9.66137695 109.05688477 C8.55290034 115.49875564 7.06769027 121.68191368 5.1875 127.9375 C3.11138581 135.00809373 1.18103062 142.09014297 -0.5625 149.25 C-3.00908898 159.26785687 -5.73792742 169.21378226 -9 179 C-21.54 179 -34.08 179 -47 179 C-46.34445731 174.41120117 -45.65562725 170.23871539 -44.546875 165.7890625 C-44.25997803 164.63567383 -43.97308105 163.48228516 -43.67749023 162.29394531 C-43.37141846 161.08319336 -43.06534668 159.87244141 -42.75 158.625 C-42.43426025 157.3678418 -42.11852051 156.11068359 -41.79321289 154.81542969 C-39.96310964 147.59542366 -38.02205928 140.43310124 -35.84472656 133.31103516 C-33.70665128 126.22887878 -31.99244176 119.04530972 -30.23022461 111.86230469 C-28.78828402 106.0279699 -27.25052382 100.24899962 -25.5 94.5 C-23.46176558 87.80142324 -21.73022906 81.04986436 -20.0625 74.25 C-17.97833018 65.75299998 -15.70759596 57.33995587 -13.25244141 48.94335938 C-11.04768469 41.33241837 -9.11688471 33.66352987 -7.26757812 25.95898438 C-5.80833136 19.95798975 -4.15640913 14.0338143 -2.40063477 8.11425781 C-2.16933113 7.33128326 -1.9380275 6.54830872 -1.69971466 5.74160767 C-1.1340954 3.82745679 -0.56718045 1.91368886 0 0 Z " fill="#092855" transform="translate(428,156)"/>
<path d="M0 0 C7.69772242 5.95580853 13.51653773 16.54498719 15.3203125 26.171875 C17.80452108 51.69147228 9.4541618 77.40831265 -6.46484375 97.37890625 C-7.07585937 98.18199219 -7.686875 98.98507812 -8.31640625 99.8125 C-16.39664061 109.73227707 -27.64654216 116.76688612 -39.46484375 121.37890625 C-40.26792969 121.72953125 -41.07101562 122.08015625 -41.8984375 122.44140625 C-48.31475936 124.78526812 -54.96633538 124.62626621 -61.71484375 124.69140625 C-62.70097656 124.72041016 -63.68710938 124.74941406 -64.703125 124.77929688 C-73.73861899 124.85667594 -81.59692761 122.78886309 -88.40234375 116.56640625 C-89.11261719 115.94121094 -89.82289062 115.31601562 -90.5546875 114.671875 C-92.9965276 111.74066818 -94.09699447 108.93359922 -95.46484375 105.37890625 C-100.47073981 122.94382589 -100.47073981 122.94382589 -105.02734375 140.62890625 C-106.75858633 147.7140165 -108.64546577 154.74173181 -110.65234375 161.75390625 C-110.90250244 162.62821289 -111.15266113 163.50251953 -111.41040039 164.40332031 C-112.67279065 168.77027762 -114.02556434 173.06106802 -115.46484375 177.37890625 C-128.00484375 177.37890625 -140.54484375 177.37890625 -153.46484375 177.37890625 C-150.14807356 163.00623544 -150.14807356 163.00623544 -148.15234375 156.56640625 C-146.02531907 149.55704186 -144.20854068 142.49258728 -142.46484375 135.37890625 C-140.79666079 128.57886848 -139.07519024 121.82482535 -137.02734375 115.12890625 C-134.73184219 107.61226388 -132.8423357 100.00954843 -130.96484375 92.37890625 C-128.9242087 84.08520579 -126.80642029 75.85473548 -124.30859375 67.6875 C-122.17155417 60.60593748 -120.45708253 53.4233886 -118.69506836 46.24121094 C-117.08918345 39.74352978 -115.32094527 33.3292583 -113.37036133 26.92797852 C-110.34477095 16.85204189 -107.97427533 6.59170919 -105.46484375 -3.62109375 C-93.25484375 -3.62109375 -81.04484375 -3.62109375 -68.46484375 -3.62109375 C-69.79817708 2.37890625 -71.13151042 8.37890625 -72.46484375 14.37890625 C-71.41296875 12.92484375 -71.41296875 12.92484375 -70.33984375 11.44140625 C-53.92590669 -7.69522179 -21.08997929 -13.8705886 0 0 Z " fill="#092755" transform="translate(1219.46484375,211.62109375)"/>
<path d="M0 0 C2.82739272 1.87804918 5.00935762 3.77393674 7.140625 6.421875 C7.59050781 6.93105469 8.04039062 7.44023437 8.50390625 7.96484375 C10.65630036 10.42039196 12.09907834 12.29723503 13.140625 15.421875 C13.55634766 13.81505859 13.55634766 13.81505859 13.98046875 12.17578125 C14.34617424 10.77859873 14.71206946 9.38146585 15.078125 7.984375 C15.26052734 7.27732422 15.44292969 6.57027344 15.63085938 5.84179688 C17.02734375 0.53515625 17.02734375 0.53515625 18.140625 -0.578125 C20.87956585 -0.66671146 23.5931577 -0.69335979 26.33203125 -0.67578125 C27.15186996 -0.6743663 27.97170868 -0.67295135 28.81639099 -0.67149353 C31.44533882 -0.66587789 34.07420273 -0.65332279 36.703125 -0.640625 C38.48111857 -0.63561201 40.25911346 -0.63104876 42.03710938 -0.62695312 C46.40498045 -0.61590339 50.77278848 -0.59862831 55.140625 -0.578125 C50.97137579 17.72056083 46.53864168 35.95502463 41.27026367 53.97070312 C39.58704215 59.75716348 38.06996361 65.56782112 36.640625 71.421875 C34.76211875 79.11010112 32.66575498 86.71339222 30.45239258 94.31152344 C28.15618426 102.24051367 26.07921416 110.22098369 24.05688477 118.22387695 C23.82026123 119.15031006 23.5836377 120.07674316 23.33984375 121.03125 C23.13190186 121.85592773 22.92395996 122.68060547 22.7097168 123.53027344 C22.140625 125.421875 22.140625 125.421875 21.140625 126.421875 C18.40168415 126.51046146 15.6880923 126.53710979 12.94921875 126.51953125 C12.12938004 126.5181163 11.30954132 126.51670135 10.46485901 126.51524353 C7.83591118 126.50962789 5.20704727 126.49707279 2.578125 126.484375 C0.80013143 126.47936201 -0.97786346 126.47479876 -2.75585938 126.47070312 C-7.12373045 126.45965339 -11.49153848 126.44237831 -15.859375 126.421875 C-15.55071732 124.85131866 -15.24051635 123.28106559 -14.9296875 121.7109375 C-14.75711426 120.83646973 -14.58454102 119.96200195 -14.40673828 119.06103516 C-13.66478185 115.48362703 -12.77620038 111.95820148 -11.859375 108.421875 C-12.49875 109.1025 -13.138125 109.783125 -13.796875 110.484375 C-27.06780689 123.56995868 -41.95249555 127.87734901 -60.19750977 127.85571289 C-70.88327 127.65000411 -79.30582737 124.95338976 -87.11328125 117.421875 C-97.34768394 105.69924821 -98.89621383 91.81064812 -98.06640625 76.82373047 C-95.82433915 50.81257935 -81.66774271 26.98542534 -62.171875 10.171875 C-45.41403349 -2.66506128 -19.8104536 -10.31070392 0 0 Z " fill="#092755" transform="translate(648.859375,208.578125)"/>
<path d="M0 0 C4.18785003 3.2388362 6.52676729 6.87384707 8.87890625 11.578125 C10.52890625 6.628125 12.17890625 1.678125 13.87890625 -3.421875 C26.08890625 -3.421875 38.29890625 -3.421875 50.87890625 -3.421875 C49.30867368 4.42928784 47.57634104 12.1350701 45.62890625 19.890625 C45.32098145 21.12103516 45.01305664 22.35144531 44.69580078 23.61914062 C42.62017767 31.8362604 40.38732038 39.99229824 38.00878906 48.1262207 C36.32542912 53.91291098 34.80831862 59.7238237 33.37890625 65.578125 C31.523252 73.17220443 29.44868285 80.67914596 27.26318359 88.18432617 C23.87472434 99.91318916 20.91096968 111.75307764 17.87890625 123.578125 C5.33890625 123.578125 -7.20109375 123.578125 -20.12109375 123.578125 C-18.80109375 117.968125 -17.48109375 112.358125 -16.12109375 106.578125 C-17.19359375 107.58875 -18.26609375 108.599375 -19.37109375 109.640625 C-34.80395829 123.13069985 -51.3410478 125.64777555 -71.12109375 124.578125 C-79.41735377 123.54625186 -86.06283632 119.21725771 -92.12109375 113.578125 C-94.55188742 110.41611698 -96.39483167 107.16615778 -98.12109375 103.578125 C-98.44722656 102.94777344 -98.77335937 102.31742187 -99.109375 101.66796875 C-101.15922075 97.4031238 -101.8674993 93.24426282 -102.12109375 88.578125 C-102.19714844 87.47984375 -102.27320313 86.3815625 -102.3515625 85.25 C-103.21003512 62.32646086 -94.84214782 39.13560567 -80.12109375 21.578125 C-79.40050781 20.70800781 -78.67992187 19.83789062 -77.9375 18.94140625 C-59.42754339 -2.51987793 -26.06600431 -17.47334359 0 0 Z " fill="#092755" transform="translate(1348.12109375,211.421875)"/>
<path d="M0 0 C5.45040329 4.65436823 9.37518006 9.38585962 12.18359375 15.98828125 C12.71339844 17.16648438 13.24320313 18.3446875 13.7890625 19.55859375 C15.70152347 24.75335741 15.62343306 29.82185926 15.55859375 35.30078125 C15.57019531 36.26951172 15.58179688 37.23824219 15.59375 38.23632812 C15.56570171 45.24372485 14.32373646 51.33408369 12.18359375 57.98828125 C11.61898437 59.80972656 11.61898437 59.80972656 11.04296875 61.66796875 C3.21207761 84.22314111 -10.56991221 102.64466594 -32.05078125 113.64453125 C-45.67804011 120.17026085 -57.51123154 122.18223084 -72.50390625 122.30078125 C-73.70724609 122.32978516 -74.91058594 122.35878906 -76.15039062 122.38867188 C-90.34628662 122.48837293 -102.60542094 117.91944352 -113.12890625 108.30078125 C-120.32293869 100.64168005 -122.85294877 91.2347817 -123.81640625 80.98828125 C-123.95949219 79.51294922 -123.95949219 79.51294922 -124.10546875 78.0078125 C-125.15085607 56.30227059 -114.33760477 33.83304971 -100.50390625 17.80078125 C-91.56404885 8.28219373 -81.691016 1.27897813 -69.81640625 -4.01171875 C-69.20684082 -4.28564453 -68.59727539 -4.55957031 -67.96923828 -4.84179688 C-48.27826793 -13.19776302 -17.68454521 -12.63181801 0 0 Z " fill="#082755" transform="translate(958.81640625,214.01171875)"/>
<path d="M0 0 C1.11227512 3.34744142 0.86710442 5.50922548 -0.00390625 8.90234375 C-0.2469751 9.86430664 -0.49004395 10.82626953 -0.74047852 11.81738281 C-1.01174561 12.84702148 -1.2830127 13.87666016 -1.5625 14.9375 C-1.83698975 16.00709961 -2.11147949 17.07669922 -2.39428711 18.17871094 C-4.40539085 25.93853034 -6.57511522 33.64813093 -8.81860352 41.34350586 C-10.75426431 48.01752273 -12.45805255 54.73141723 -14.10571289 61.48144531 C-15.81663087 68.4232344 -17.77218572 75.280557 -19.76953125 82.14453125 C-21.48047378 88.06702461 -23.03821404 94.01145002 -24.5 100 C-26.15983498 106.79938829 -27.97739889 113.53109671 -29.9375 120.25 C-32.13640734 127.79394365 -34.12874394 135.36830645 -36 143 C-38.08664456 151.51012974 -40.36656313 159.93660814 -42.8203125 168.34765625 C-44.75350366 175.01767182 -46.45705769 181.72697421 -48.10351562 188.47265625 C-49.81482995 195.41632779 -51.74445964 202.28613954 -53.76953125 209.14453125 C-56.0854821 217.05736333 -57.99314234 224.97256938 -60 233 C-74.19 233 -88.38 233 -103 233 C-102.34445731 228.41120117 -101.65562725 224.23871539 -100.546875 219.7890625 C-100.11652954 218.05897949 -100.11652954 218.05897949 -99.67749023 216.29394531 C-99.37141846 215.08319336 -99.06534668 213.87244141 -98.75 212.625 C-98.43426025 211.3678418 -98.11852051 210.11068359 -97.79321289 208.81542969 C-95.96310964 201.59542366 -94.02205928 194.43310124 -91.84472656 187.31103516 C-90.01760922 181.25889525 -88.50613673 175.13886471 -87 169 C-85.33165705 162.19999877 -83.6103489 155.44592699 -81.5625 148.75 C-79.26699644 141.23335107 -77.37760235 133.6306202 -75.5 126 C-73.4334883 117.60580176 -71.29836035 109.26574515 -68.78442383 100.99438477 C-66.28070747 92.72909169 -64.15683523 84.36117827 -62 76 C-69.23425911 80.06842877 -76.20405293 84.39196682 -83.08276367 89.02709961 C-89.21092765 93.15605921 -95.40858154 97.17130741 -101.62109375 101.171875 C-104.68599486 103.14618502 -107.73866536 105.13802795 -110.78515625 107.140625 C-111.56391113 107.65052979 -112.34266602 108.16043457 -113.14501953 108.68579102 C-114.64703264 109.66969758 -116.14679938 110.65704395 -117.64404297 111.64819336 C-122.77524925 115 -122.77524925 115 -125 115 C-123.83946446 106.16607273 -121.70411086 97.75228664 -119.203125 89.22265625 C-118.48337923 86.76606173 -117.8738718 84.38397141 -117.359375 81.87109375 C-116.31126715 76.96744633 -114.97860021 74.52428902 -110.875 71.5625 C-108.92846357 70.35575993 -106.96834694 69.17082706 -105 68 C-103.07140388 66.76413475 -101.15542237 65.50991237 -99.23876953 64.25561523 C-97.06382772 62.83504513 -94.88074153 61.42781403 -92.6953125 60.0234375 C-87.78590814 56.86576494 -82.892351 53.68400816 -78 50.5 C-68.32255834 44.20590982 -58.63126343 37.93341497 -48.93652344 31.66601562 C-46.85339003 30.3192045 -44.77039279 28.97218322 -42.6875 27.625 C-41.99591797 27.17769531 -41.30433594 26.73039062 -40.59179688 26.26953125 C-34.99313231 22.64656408 -29.40235033 19.01154723 -23.8125 15.375 C-15.89240493 10.22270877 -7.95555506 5.09735068 0 0 Z " fill="#3495FF" transform="translate(398,102)"/>
<path d="M0 0 C12.87 0 25.74 0 39 0 C39.53625 4.186875 40.0725 8.37375 40.625 12.6875 C43.34009416 33.80176472 46.17443686 54.90029126 49 76 C51.44062373 73.63547373 53.62504754 71.31776897 55.55859375 68.5234375 C56.02023926 67.86190674 56.48188477 67.20037598 56.95751953 66.51879883 C57.44591309 65.81134521 57.93430664 65.1038916 58.4375 64.375 C59.50560746 62.84442156 60.57464972 61.31449513 61.64453125 59.78515625 C62.1957666 58.99641113 62.74700195 58.20766602 63.31494141 57.39501953 C66.04940974 53.50844544 68.8361406 49.66014278 71.625 45.8125 C75.43334732 40.55338041 79.2321594 35.28822436 83 30 C86.94435006 24.4690866 90.90423886 18.94948498 94.875 13.4375 C95.42285156 12.67501953 95.97070312 11.91253906 96.53515625 11.12695312 C97.05722656 10.40314453 97.57929687 9.67933594 98.1171875 8.93359375 C98.57722168 8.29478271 99.03725586 7.65597168 99.51123047 6.99780273 C100.00252441 6.33852783 100.49381836 5.67925293 101 5 C101.54897949 4.10394043 102.09795898 3.20788086 102.66357422 2.28466797 C105.42628235 -0.4168391 107.14601808 -0.56847236 110.94195557 -0.56648254 C111.70876648 -0.54067612 112.47557739 -0.51486969 113.265625 -0.48828125 C114.05902283 -0.48120651 114.85242065 -0.47413177 115.66986084 -0.46684265 C118.19754365 -0.43891048 120.72298988 -0.37617989 123.25 -0.3125 C124.96611378 -0.28741535 126.68226238 -0.26460246 128.3984375 -0.24414062 C132.59981671 -0.18908839 136.79952952 -0.10282863 141 0 C139.34599264 4.39781764 137.07947904 7.84444499 134.25 11.5625 C129.74425342 17.59283824 125.36573396 23.69852378 121.0625 29.875 C120.47065918 30.72368652 119.87881836 31.57237305 119.26904297 32.44677734 C118.08332572 34.14717939 116.89777691 35.8476989 115.71240234 37.54833984 C113.11266786 41.27040054 110.49533588 44.97992544 107.875 48.6875 C107.38781494 49.3769873 106.90062988 50.06647461 106.39868164 50.77685547 C105.42182597 52.15909731 104.44485714 53.54125919 103.46777344 54.92333984 C100.97679014 58.44767516 98.48855097 61.97394701 96 65.5 C95.00001278 66.91667568 94.00001278 68.33334236 93 69.75 C92.505 70.45125 92.01 71.1525 91.5 71.875 C87 78.25 87 78.25 85.50048828 80.37426758 C84.49880957 81.79333958 83.4971821 83.21244775 82.49560547 84.6315918 C80.02170505 88.13675274 77.54696634 91.64131515 75.0703125 95.14453125 C69.69494856 102.75009937 64.33744986 110.36776805 59 118 C53.17876317 126.32401819 47.331458 134.62918349 41.46777344 142.92333984 C38.48405211 147.14481916 35.5035737 151.36859041 32.52368164 155.59277344 C29.89109748 159.32396774 27.25474761 163.05243103 24.61328125 166.77734375 C23.78473633 167.94716797 23.78473633 167.94716797 22.93945312 169.140625 C21.8754686 170.64272079 20.81040813 172.14405518 19.74414062 173.64453125 C19.26783203 174.31742188 18.79152344 174.9903125 18.30078125 175.68359375 C17.66910034 176.57389282 17.66910034 176.57389282 17.0246582 177.48217773 C15.9279769 179.03588548 15.9279769 179.03588548 15 181 C1.8 181 -11.4 181 -25 181 C-20.54937252 174.00615681 -16.14119396 167.28729288 -11.1875 160.6875 C-9.9536641 159.02791072 -8.72059548 157.36775074 -7.48828125 155.70703125 C-6.89225098 154.90475098 -6.2962207 154.1024707 -5.68212891 153.27587891 C-2.98061363 149.6207954 -0.31908733 145.93772197 2.28759766 142.21435547 C4.54957043 138.98792479 6.88590518 135.84822629 9.31640625 132.74609375 C10.15631104 131.64128662 10.15631104 131.64128662 11.01318359 130.51416016 C12.09561129 129.09081035 13.20023892 127.68395674 14.33056641 126.29833984 C17.26280208 122.37687003 18.31870955 119.80815755 17.74061584 114.88751221 C17.62885576 113.91680534 17.51709568 112.94609848 17.40194893 111.94597626 C16.78827631 107.44822829 16.09545718 102.97269428 15.32592773 98.49902344 C15.15997101 97.513797 14.99401428 96.52857056 14.82302856 95.51348877 C14.46580367 93.39566798 14.10672321 91.27815947 13.74593925 89.16094208 C13.17462741 85.80673305 12.60882469 82.45163506 12.04444885 79.09625244 C10.43998638 69.56385638 8.82481833 60.03327948 7.20825195 50.50292969 C6.21678654 44.65554422 5.23086873 38.80724402 4.24815559 32.95838165 C3.6919537 29.65896663 3.12917265 26.36071614 2.56626892 23.06243896 C2.22538127 21.03615219 1.88483271 19.00980833 1.54467773 16.98339844 C1.38728622 16.07207153 1.22989471 15.16074463 1.06773376 14.22180176 C0.92613831 13.36983215 0.78454285 12.51786255 0.63865662 11.64007568 C0.45255908 10.5429104 0.45255908 10.5429104 0.26270199 9.42358017 C-0.07593382 6.29946594 0 3.14241371 0 0 Z " fill="#082755" transform="translate(1414,208)"/>
<path d="M0 0 C0.79550735 0.00092179 1.59101469 0.00184359 2.41062832 0.00279331 C3.32073162 0.00141865 4.23083492 0.00004398 5.16851711 -0.00137234 C6.1748016 0.00222294 7.18108608 0.00581821 8.21786404 0.00952244 C9.27139568 0.00937641 10.32492733 0.00923038 11.41038418 0.00907993 C14.91125415 0.00977957 18.41207166 0.01757435 21.9129324 0.02539158 C24.33288958 0.02725558 26.75284714 0.02867957 29.17280483 0.0296793 C35.55642639 0.03350591 41.94002536 0.04333742 48.32363796 0.05438328 C54.83191529 0.06459432 61.34019625 0.06917626 67.84847927 0.0742197 C80.62908789 0.08495956 93.40968082 0.10184671 106.19027615 0.12304783 C105.98459011 1.14495213 105.77890408 2.16685642 105.56698513 3.21972752 C105.29425087 4.57812009 105.02154742 5.93651886 104.7488699 7.29492283 C104.54602383 8.30208347 104.54602383 8.30208347 104.33907986 9.3295908 C103.75429296 12.2455145 103.18370325 15.16058559 102.6707449 18.09008884 C101.14480434 26.42482606 94.41948686 31.06525528 88.19027615 36.12304783 C87.25054958 36.89648533 86.31082302 37.66992283 85.3426199 38.46679783 C83.53561622 39.94360083 81.72310843 41.41369502 79.9051199 42.87695408 C77.08354119 45.21135372 74.38436903 47.64295381 71.69027615 50.12304783 C67.24300503 54.21655874 62.64310152 58.04747281 57.94027615 61.84179783 C55.10928036 64.19023751 52.39644017 66.63214685 49.69027615 69.12304783 C45.25050568 73.20965474 40.65914025 77.03498122 35.96371365 80.82226658 C32.08683403 84.03843854 28.39180137 87.43775356 24.69808865 90.86132908 C22.27811275 93.04383071 19.73494977 95.08730893 17.19027615 97.12304783 C49.36527615 97.61804783 49.36527615 97.61804783 82.19027615 98.12304783 C80.19027615 110.12304783 80.19027615 110.12304783 75.19027615 127.12304783 C38.23027615 127.12304783 1.27027615 127.12304783 -36.80972385 127.12304783 C-36.14972385 123.82304783 -35.48972385 120.52304783 -34.80972385 117.12304783 C-34.53515354 115.71281345 -34.26058323 114.30257908 -33.9776926 112.84961033 C-31.33547428 101.11265753 -26.1713317 95.34157098 -16.80972385 88.12304783 C-14.93258027 86.58399193 -13.05743384 85.04249543 -11.18472385 83.49804783 C-10.29527073 82.7839072 -9.4058176 82.06976658 -8.48941135 81.33398533 C-5.67719071 79.01369832 -2.99175123 76.59233649 -0.30972385 74.12304783 C4.13754726 70.02953691 8.73745078 66.19862284 13.44027615 62.40429783 C16.27127193 60.05585814 18.98411212 57.61394881 21.69027615 55.12304783 C26.12737276 51.03890208 30.71512592 47.21508702 35.40902615 43.43164158 C39.35981741 40.15226288 43.11636318 36.68297572 46.87777615 33.18945408 C49.19027615 31.12304783 49.19027615 31.12304783 52.19027615 29.12304783 C21.99527615 28.62804783 21.99527615 28.62804783 -8.80972385 28.12304783 C-6.54381847 14.52761553 -6.54381847 14.52761553 -4.74722385 7.93554783 C-4.40562229 6.66324314 -4.06402073 5.39093845 -3.7120676 4.08007908 C-2.51929415 0.17129336 -2.51929415 0.17129336 0 0 Z " fill="#0A2856" transform="translate(731.8097238540649,207.87695217132568)"/>
<path d="M0 0 C-1.625 6.5 -1.625 6.5 -2.16064453 8.63598633 C-3.24840667 12.97731445 -4.32535788 17.32106262 -5.390625 21.66796875 C-7.98145426 32.19720949 -10.70836586 42.65693814 -13.74951172 53.06518555 C-15.66330614 59.67257013 -17.36184091 66.31938246 -19 73 C-21.0609977 81.40500624 -23.30939147 89.72653844 -25.74121094 98.03125 C-28.05156585 105.99757232 -30.05283418 114.03270201 -31.99609375 122.09570312 C-32.22941406 123.05412109 -32.46273437 124.01253906 -32.703125 125 C-32.90583008 125.845625 -33.10853516 126.69125 -33.31738281 127.5625 C-34.02810619 130.100362 -35.0211991 132.55299774 -36 135 C-65.04 135 -94.08 135 -124 135 C-120.23149629 118.04173332 -116.14639547 101.12388946 -111.046875 84.51171875 C-109.84418745 80.4773303 -108.85965884 76.41077761 -107.96875 72.296875 C-105.04729235 65.37019315 -97.29062181 61.72753279 -91.25 57.875 C-90.22374512 57.21338867 -89.19749023 56.55177734 -88.14013672 55.87011719 C-86.06413719 54.53228678 -83.98651667 53.19696817 -81.90722656 51.86425781 C-78.65761631 49.7804466 -75.41728195 47.6826929 -72.17871094 45.58178711 C-70.12321912 44.24884514 -68.06581338 42.91890798 -66.0078125 41.58984375 C-63.35501524 39.87639133 -60.70399582 38.16024815 -58.0546875 36.44140625 C-51.71707409 32.33154132 -45.37241936 28.2337694 -39.00390625 24.171875 C-36.8567698 22.80208496 -34.7096344 21.43229327 -32.5625 20.0625 C-31.4995874 19.38485596 -30.4366748 18.70721191 -29.34155273 18.0090332 C-21.92172039 13.2655043 -14.57022438 8.43072715 -7.30493164 3.45336914 C-2.21246997 0 -2.21246997 0 0 0 Z " fill="#092855" transform="translate(320,200)"/>
<path d="M0 0 C0.81782959 -0.00636475 1.63565918 -0.01272949 2.47827148 -0.01928711 C7.06285291 0.07964006 9.26882024 0.46342929 12.875 3.5 C11.75345862 7.87589407 10.62715893 12.25054985 9.5 16.625 C9.02433594 18.48125 9.02433594 18.48125 8.5390625 20.375 C8.075 22.17324219 8.075 22.17324219 7.6015625 24.0078125 C7.31877441 25.10754395 7.03598633 26.20727539 6.74462891 27.34033203 C5.8926274 30.43595345 4.91889643 33.46430117 3.875 36.5 C-1.875 35.625 -1.875 35.625 -4.125 34.5 C-17.80598281 33.28685023 -29.32315194 33.59333347 -40.3125 42.375 C-49.99649195 51.74023987 -52.97473324 63.56419162 -55.88671875 76.25390625 C-57.070133 81.39599826 -58.50669757 86.44063866 -60 91.5 C-63.77216874 104.40118996 -66.91063431 117.44967529 -70.125 130.5 C-82.665 130.5 -95.205 130.5 -108.125 130.5 C-107.51232531 126.2112772 -106.92929163 122.33943764 -105.890625 118.19921875 C-105.64900635 117.23193848 -105.4073877 116.2646582 -105.15844727 115.26806641 C-104.89990967 114.25147949 -104.64137207 113.23489258 -104.375 112.1875 C-104.10550537 111.11935059 -103.83601074 110.05120117 -103.55834961 108.95068359 C-101.63174402 101.36584589 -99.58902415 93.82047508 -97.46484375 86.2890625 C-95.84654578 80.53865321 -94.29940395 74.76928372 -92.75 69 C-92.45359619 67.89672363 -92.15719238 66.79344727 -91.85180664 65.65673828 C-91.24508709 63.39751272 -90.63856191 61.13823495 -90.03222656 58.87890625 C-88.56611587 53.41847246 -87.09537967 47.95928547 -85.625 42.5 C-85.05075784 40.3671938 -84.47653921 38.23438127 -83.90234375 36.1015625 C-80.9765625 25.234375 -78.05078125 14.3671875 -75.125 3.5 C-62.585 3.5 -50.045 3.5 -37.125 3.5 C-38.445 9.11 -39.765 14.72 -41.125 20.5 C-40.17625 19.324375 -39.2275 18.14875 -38.25 16.9375 C-28.06262021 5.42840426 -15.17877805 0.10268635 0 0 Z " fill="#092855" transform="translate(1085.125,204.5)"/>
<path d="M0 0 C7.38375 -0.061875 14.7675 -0.12375 22.375 -0.1875 C25.8407251 -0.22846802 25.8407251 -0.22846802 29.37646484 -0.27026367 C31.23795044 -0.27903755 33.09944185 -0.28667935 34.9609375 -0.29296875 C36.37403198 -0.3159906 36.37403198 -0.3159906 37.81567383 -0.33947754 C46.15805497 -0.34272024 54.75839408 1.0264012 61.4609375 6.37890625 C66.45871116 11.6430587 68.31312107 17.45951201 68.5625 24.625 C68.18892338 32.78621241 65.9657076 37.42812452 60 42.9375 C57.37590463 45.18745677 55.41926897 46.39704855 52 47 C52 47.66 52 48.32 52 49 C52.7425 49.226875 53.485 49.45375 54.25 49.6875 C59.72027241 52.29831183 61.69949427 57.14030054 63.796875 62.578125 C64.0353717 63.19016785 64.27386841 63.80221069 64.51959229 64.43280029 C65.27142829 66.36875173 66.0106448 68.30925289 66.75 70.25 C67.26093971 71.5680106 67.77265126 72.88572226 68.28515625 74.203125 C72 83.80064946 72 83.80064946 72 85 C65.4 85 58.8 85 52 85 C51.31292969 83.26492188 50.62585938 81.52984375 49.91796875 79.7421875 C49.00795074 77.45307004 48.09778684 75.16401057 47.1875 72.875 C46.73568359 71.73289062 46.28386719 70.59078125 45.81835938 69.4140625 C45.15610352 67.75117187 45.15610352 67.75117187 44.48046875 66.0546875 C44.07723389 65.03874512 43.67399902 64.02280273 43.25854492 62.97607422 C41.10020555 57.27016445 41.10020555 57.27016445 37.359375 52.6640625 C33.69324326 51.63220423 30.0414122 51.5264555 26.25 51.375 C22.16625 51.189375 22.16625 51.189375 18 51 C18 62.22 18 73.44 18 85 C12.06 85 6.12 85 0 85 C0 56.95 0 28.9 0 0 Z " fill="#092855" transform="translate(722,485)"/>
<path d="M0 0 C11.570625 -0.12375 11.570625 -0.12375 23.375 -0.25 C26.99734619 -0.30462402 26.99734619 -0.30462402 30.69287109 -0.36035156 C32.63638423 -0.372049 34.57990726 -0.38223832 36.5234375 -0.390625 C37.50868408 -0.41108887 38.49393066 -0.43155273 39.5090332 -0.45263672 C47.59740388 -0.45665379 54.79149565 1.36862105 61.375 6.25 C66.62071981 11.74551599 68.25521125 16.22600171 68.5625 23.875 C68.32247272 31.86447942 66.20741371 37.94532028 60.375 43.5 C59.59125 43.995 58.8075 44.49 58 45 C57.01 45.66 56.02 46.32 55 47 C54.01 47 53.02 47 52 47 C52 47.66 52 48.32 52 49 C52.556875 49.04125 53.11375 49.0825 53.6875 49.125 C58.27530842 50.86092751 60.3982664 54.74574841 62.43481445 58.99072266 C63.95180883 62.55650941 65.39523376 66.14344532 66.8125 69.75 C67.31872417 71.00688832 67.8258782 72.26340256 68.33398438 73.51953125 C72 82.6870642 72 82.6870642 72 85 C65.4 85 58.8 85 52 85 C51.26394531 83.03675781 50.52789063 81.07351563 49.76953125 79.05078125 C49.0412289 77.13652316 48.30831868 75.22408999 47.57495117 73.31176758 C47.0707641 71.98970931 46.57132876 70.6658281 46.0769043 69.34008789 C45.362115 67.426065 44.63004598 65.51942087 43.89453125 63.61328125 C43.45987549 62.46641846 43.02521973 61.31955566 42.57739258 60.13793945 C40.56353009 56.13172144 38.06219681 53.0310984 34 51 C28.72 50.67 23.44 50.34 18 50 C18 61.55 18 73.1 18 85 C12.06 85 6.12 85 0 85 C0 56.95 0 28.9 0 0 Z " fill="#082755" transform="translate(1260,485)"/>
<path d="M0 0 C14 0 14 0 17.203125 2.16796875 C17.87859375 3.16441406 18.5540625 4.16085937 19.25 5.1875 C19.63873291 5.72777832 20.02746582 6.26805664 20.42797852 6.82470703 C21.24280755 7.95987524 22.03978658 9.10805905 22.81884766 10.26806641 C24.35109576 12.51481465 26.01296902 14.64272785 27.69018555 16.78222656 C28.95336138 18.39525438 30.19715077 20.02171533 31.4375 21.65234375 C34.86814484 26.14780797 38.37220671 30.58493661 41.87109375 35.02734375 C46.5861927 41.01393006 51.29191707 47.00789445 56 53 C56.33 35.84 56.66 18.68 57 1 C62.61 1 68.22 1 74 1 C74 29.05 74 57.1 74 86 C60 86 60 86 56.61328125 83.4296875 C55.41870117 81.73535156 55.41870117 81.73535156 54.3125 79.875 C53.42047804 78.57469185 52.52721444 77.27523475 51.6328125 75.9765625 C51.19743164 75.31043945 50.76205078 74.64431641 50.31347656 73.95800781 C48.27435565 70.91827739 45.98129941 68.09924113 43.6875 65.25 C42.78082707 64.09901301 41.87592943 62.94662573 40.97265625 61.79296875 C40.50102051 61.19145996 40.02938477 60.58995117 39.54345703 59.97021484 C36.56684897 56.17059019 33.59373918 52.36827653 30.625 48.5625 C30.04194092 47.81709961 29.45888184 47.07169922 28.8581543 46.30371094 C28.299104 45.58602539 27.74005371 44.86833984 27.1640625 44.12890625 C26.67373535 43.50056885 26.1834082 42.87223145 25.67822266 42.22485352 C23.39218918 39.19421298 21.20646556 36.08905178 19 33 C18.67 50.49 18.34 67.98 18 86 C12.06 86 6.12 86 0 86 C0 57.62 0 29.24 0 0 Z " fill="#0A2956" transform="translate(989,484)"/>
<path d="M0 0 C7.54875 -0.061875 15.0975 -0.12375 22.875 -0.1875 C25.23769043 -0.21481201 27.60038086 -0.24212402 30.03466797 -0.27026367 C31.9371693 -0.27903715 33.83967633 -0.28667904 35.7421875 -0.29296875 C36.70584229 -0.30831665 37.66949707 -0.32366455 38.66235352 -0.33947754 C48.10135762 -0.34306833 56.37768782 1.28954408 63.3046875 7.9921875 C68.16915997 13.75333692 69.70942163 19.75823538 69.375 27.23046875 C68.32439291 34.98963988 65.41293195 40.34920676 59.5859375 45.52734375 C50.94173965 50.45009691 42.0927957 50.38112482 32.375 50.1875 C25.754375 50.0946875 25.754375 50.0946875 19 50 C19 61.55 19 73.1 19 85 C12.73 85 6.46 85 0 85 C0 56.95 0 28.9 0 0 Z " fill="#092856" transform="translate(442,485)"/>
<path d="M0 0 C1.48831242 0.00667405 2.97660807 0.01863442 4.46484375 0.03515625 C5.22345703 0.03966797 5.98207031 0.04417969 6.76367188 0.04882812 C8.64326246 0.06064945 10.52281274 0.07858547 12.40234375 0.09765625 C20.80903936 17.91480512 29.11853887 35.77055816 37.23291016 53.72290039 C40.83391045 61.68441347 44.4664552 69.62802822 48.32202148 77.47045898 C49.65976322 80.23999944 50.40234375 81.97145836 50.40234375 85.09765625 C44.46234375 85.09765625 38.52234375 85.09765625 32.40234375 85.09765625 C29.76234375 79.15765625 27.12234375 73.21765625 24.40234375 67.09765625 C11.20234375 67.09765625 -1.99765625 67.09765625 -15.59765625 67.09765625 C-18.23765625 73.03765625 -20.87765625 78.97765625 -23.59765625 85.09765625 C-29.86765625 85.09765625 -36.13765625 85.09765625 -42.59765625 85.09765625 C-38.44679035 74.88455733 -33.86905673 64.9048267 -29.22265625 54.91015625 C-27.62084719 51.45644554 -26.02098419 48.00183653 -24.421875 44.546875 C-23.81899406 43.24472046 -23.81899406 43.24472046 -23.20393372 41.91625977 C-20.48459723 36.03557884 -17.79097458 30.14370997 -15.1171875 24.2421875 C-14.7681134 23.47185684 -14.41903931 22.70152618 -14.05938721 21.90785217 C-12.40468193 18.25372357 -10.75361715 14.59798401 -9.10595703 10.94067383 C-8.51859333 9.64142133 -7.93119318 8.34218531 -7.34375 7.04296875 C-6.83513428 5.91391113 -6.32651855 4.78485352 -5.80249023 3.62158203 C-4.12715229 0.11202911 -4.12715229 0.11202911 0 0 Z " fill="#092855" transform="translate(609.59765625,484.90234375)"/>
<path d="M0 0 C2.4375 2.5 2.4375 2.5 4 5 C4.53367187 5.8353125 4.53367187 5.8353125 5.078125 6.6875 C6.37161389 9.93218399 6.34050948 13.0588931 6.3125 16.5 C6.30512817 17.567948 6.30512817 17.567948 6.29760742 18.6574707 C6.1567809 25.08999314 5.02238996 30.88390132 3 37 C2.6596875 38.06992187 2.319375 39.13984375 1.96875 40.2421875 C-2.2396416 52.3270958 -8.84203709 62.54666133 -20.5625 68.24609375 C-29.28362106 71.82621305 -38.07586126 72.48486698 -46.9921875 69.11328125 C-52.17410776 66.24003753 -55.19691298 61.53109126 -57 56 C-58.85171252 41.43969209 -54.39916319 24.97165794 -46 13 C-35.17326962 -0.96607971 -16.90203556 -11.3046082 0 0 Z " fill="#FCFCFD" transform="translate(930,237)"/>
<path d="M0 0 C3.11119687 3.03531402 5.67764539 6.6248912 6.2746582 11.02368164 C6.30335783 13.3708819 6.32823003 15.7150776 6.3125 18.0625 C6.30512817 19.34459351 6.30512817 19.34459351 6.29760742 20.65258789 C6.17693754 27.17680631 5.3418687 32.87728304 3 39 C2.64808594 39.99386719 2.29617188 40.98773438 1.93359375 42.01171875 C-1.95956614 52.25214262 -8.35212333 62.35704195 -18.55859375 67.21875 C-27.59091187 70.88935823 -36.56156623 73.20075843 -46 69.3125 C-51.6367744 66.39236597 -54.41788959 62.37495343 -56.45703125 56.34765625 C-59.86962706 41.59247581 -53.38973929 26.37300505 -46.10742188 13.74902344 C-40.77742535 5.33101306 -32.47148423 -0.59382481 -22.9375 -3.3125 C-14.29865061 -4.82087053 -7.89896425 -3.9304025 0 0 Z " fill="#FCFCFD" transform="translate(646,237)"/>
<path d="M0 0 C5.24359236 3.80417485 7.4200346 7.13755758 9.1875 13.3125 C11.08781327 29.11510512 4.97901034 47.22655717 -4.72265625 59.78515625 C-11.11620963 66.58545656 -19.53250006 71.55539341 -28.890625 72.68359375 C-36.59576361 72.84490823 -42.50653047 71.96921596 -48.8125 67.3125 C-54.86789725 60.87058803 -54.29595624 52.66423189 -54.15234375 44.38671875 C-53.54702018 31.01183074 -47.07899972 17.76460758 -38.125 7.9375 C-28.00263109 -1.29626401 -13.14244687 -5.96937306 0 0 Z " fill="#FCFCFD" transform="translate(1338.8125,235.6875)"/>
<path d="M0 0 C5.24630918 3.80614587 7.41048889 7.13813936 9.1875 13.3125 C11.05654516 29.26458308 5.54564014 45.77471106 -3.5390625 58.78515625 C-9.30466995 65.82762198 -16.87695319 70.47071257 -25.8125 72.3125 C-33.55887041 73.01174923 -40.38241607 72.59922262 -47 68.1875 C-52.52962223 63.02849588 -54.08035715 57.88441098 -54.375 50.375 C-53.90539993 34.1333147 -47.62151223 18.30502602 -36.3359375 6.55078125 C-26.71551523 -1.98250352 -12.18554463 -5.5347427 0 0 Z " fill="#FCFCFD" transform="translate(1186.8125,235.6875)"/>
<path d="M0 0 C19.47 0 38.94 0 59 0 C59 4.95 59 9.9 59 15 C45.8 15 32.6 15 19 15 C19 21.6 19 28.2 19 35 C31.54 35 44.08 35 57 35 C57 39.95 57 44.9 57 50 C44.46 50 31.92 50 19 50 C19 56.93 19 63.86 19 71 C32.2 71 45.4 71 59 71 C59 75.95 59 80.9 59 86 C39.53 86 20.06 86 0 86 C0 57.62 0 29.24 0 0 Z " fill="#0F2D59" transform="translate(1134,484)"/>
<path d="M0 0 C6.02819135 -0.09983628 12.05588788 -0.17192045 18.0847168 -0.21972656 C20.13004962 -0.2396826 22.17532658 -0.26685738 24.22045898 -0.30175781 C51.22847977 -0.75068116 51.22847977 -0.75068116 58.84545898 5.51904297 C62.52786597 9.72951979 63.3459726 13.03050232 63.28515625 18.42578125 C62.47398926 25.74850787 58.6969936 33.64134734 53.25 38.58984375 C43.59902143 46.29931687 33.66137782 47.16435093 21.69140625 47.09765625 C20.72468491 47.0962413 19.75796356 47.09482635 18.76194763 47.09336853 C15.69543268 47.08780221 12.62899262 47.07525599 9.5625 47.0625 C7.47461043 47.05748065 5.38671972 47.0529185 3.29882812 47.04882812 C-1.8008098 47.03784382 -6.90039223 47.02060255 -12 47 C-11.07185749 41.13373207 -9.69379428 35.44444738 -8.25 29.6875 C-8.01023437 28.71232422 -7.77046875 27.73714844 -7.5234375 26.73242188 C-5.27754905 17.74307968 -2.6561078 8.87465728 0 0 Z " fill="#FBFCFC" transform="translate(458,186)"/>
<path d="M0 0 C24.09 0 48.18 0 73 0 C73 4.95 73 9.9 73 15 C64.09 15 55.18 15 46 15 C46 38.1 46 61.2 46 85 C39.73 85 33.46 85 27 85 C27 61.9 27 38.8 27 15 C18.09 15 9.18 15 0 15 C0 10.05 0 5.1 0 0 Z " fill="#092755" transform="translate(853,485)"/>
<path d="M0 0 C3.87542277 -0.0811135 7.74913882 -0.1405605 11.625 -0.1875 C13.26662109 -0.22520508 13.26662109 -0.22520508 14.94140625 -0.26367188 C25.13931456 -0.35638013 25.13931456 -0.35638013 30 3 C32.16013764 5.36918322 32.93969719 6.97850701 33.12890625 10.18359375 C32.8995847 14.41561867 32.59020105 16.39466559 29.5625 19.5 C25.73740622 21.73907928 23.78205776 22.1201114 19.3359375 22.09765625 C18.21445313 22.09443359 17.09296875 22.09121094 15.9375 22.08789062 C14.761875 22.07951172 13.58625 22.07113281 12.375 22.0625 C11.19164062 22.05798828 10.00828125 22.05347656 8.7890625 22.04882812 C5.85935361 22.03701478 2.92967059 22.0190789 0 22 C0 14.74 0 7.48 0 0 Z " fill="#FAFBFC" transform="translate(1278,499)"/>
<path d="M0 0 C3.85492683 -0.10833518 7.70678338 -0.18748693 11.5625 -0.25 C12.64853516 -0.28351563 13.73457031 -0.31703125 14.85351562 -0.3515625 C21.47889354 -0.43211421 25.65508189 -0.04804457 31 4 C32.85855282 7.71710563 32.57908439 11.95277281 32 16 C29.47323961 19.34625024 27.96066458 20.67977847 24 22 C22.15389468 22.08239169 20.30494836 22.10743359 18.45703125 22.09765625 C17.38388672 22.09443359 16.31074219 22.09121094 15.20507812 22.08789062 C14.08552734 22.07951172 12.96597656 22.07113281 11.8125 22.0625 C10.68134766 22.05798828 9.55019531 22.05347656 8.38476562 22.04882812 C5.58982124 22.03703511 2.79490401 22.01909957 0 22 C0 14.74 0 7.48 0 0 Z " fill="#FDFDFD" transform="translate(740,499)"/>
<path d="M0 0 C3.87575108 -0.1081605 7.74846959 -0.1874032 11.625 -0.25 C13.26662109 -0.30027344 13.26662109 -0.30027344 14.94140625 -0.3515625 C21.27515938 -0.42833527 25.25338428 -0.38391751 30 4 C32.67134463 8.00701694 32.82653281 11.28876296 32 16 C29.47031526 19.28175318 27.92268669 20.69243777 24 22 C22.15389468 22.08239169 20.30494836 22.10743359 18.45703125 22.09765625 C17.38388672 22.09443359 16.31074219 22.09121094 15.20507812 22.08789062 C14.08552734 22.07951172 12.96597656 22.07113281 11.8125 22.0625 C10.68134766 22.05798828 9.55019531 22.05347656 8.38476562 22.04882812 C5.58982124 22.03703511 2.79490401 22.01909957 0 22 C0 14.74 0 7.48 0 0 Z " fill="#FDFDFD" transform="translate(461,499)"/>
<path d="M0 0 C0.66 0 1.32 0 2 0 C3.85615587 4.09128955 5.70743902 8.18473722 7.55419922 12.28027344 C8.1833904 13.6737841 8.8139191 15.06669164 9.44580078 16.45898438 C10.35279374 18.4580709 11.25498538 20.45926313 12.15625 22.4609375 C12.44060913 23.08495453 12.72496826 23.70897156 13.01794434 24.35189819 C15 28.77225659 15 28.77225659 15 31 C5.76 31 -3.48 31 -13 31 C-4.2642369 8.93849658 -4.2642369 8.93849658 0 0 Z " fill="#F4F5F7" transform="translate(613,506)"/>
</svg>
